Merriweather (Autosaved).glyphspackage
{
glyphname = numbersign;
layers = (
{
layerId = UUID0;
shapes = (
{
closed = 1;
nodes = (
(286,0,l),
(404,0,l),
(469,413,l),
(824,413,l),
(761,0,l),
(879,0,l),
(942,413,l),
(1190,413,l),
(1208,546,l),
(964,546,l),
(1035,977,l),
(1268,977,l),
(1286,1108,l),
(1053,1108,l),
(1123,1540,l),
(1004,1540,l),
(934,1108,l),
(580,1108,l),
(648,1540,l),
(530,1540,l),
(462,1108,l),
(223,1108,l),
(205,977,l),
(441,977,l),
(371,546,l),
(146,546,l),
(128,413,l),
(350,413,l)
);
},
{
closed = 1;
nodes = (
(488,546,l),
(560,977,l),
(916,977,l),
(846,546,l)
);
}
);
width = 1414;
},
{
layerId = "DEBB1CE4-A72D-4960-969E-E04A036D2FA1";
shapes = (
{
closed = 1;
nodes = (
(306,0,l),
(424,0,l),
(489,413,l),
(834,413,l),
(771,0,l),
(889,0,l),
(952,413,l),
(1220,413,l),
(1248,616,l),
(984,616,l),
(1034,907,l),
(1288,907,l),
(1316,1108,l),
(1063,1108,l),
(1133,1539,l),
(1014,1539,l),
(944,1108,l),
(600,1108,l),
(668,1539,l),
(550,1539,l),
(482,1108,l),
(223,1108,l),
(195,907,l),
(451,907,l),
(404,616,l),
(156,616,l),
(128,413,l),
(370,413,l)
);
},
{
closed = 1;
nodes = (
(521,616,l),
(570,907,l),
(915,907,l),
(866,616,l)
);
}
);
width = 1444;
},
{
layerId = "184155C8-9F61-4F1C-9784-DDA8EA717636";
shapes = (
{
closed = 1;
nodes = (
(299,0,l),
(367,0,l),
(432,413,l),
(777,413,l),
(714,0,l),
(782,0,l),
(845,413,l),
(1113,413,l),
(1141,616,l),
(877,616,l),
(927,907,l),
(1181,907,l),
(1209,1108,l),
(956,1108,l),
(1026,1539,l),
(957,1539,l),
(887,1108,l),
(543,1108,l),
(611,1539,l),
(543,1539,l),
(475,1108,l),
(216,1108,l),
(188,907,l),
(444,907,l),
(397,616,l),
(149,616,l),
(121,413,l),
(363,413,l)
);
},
{
closed = 1;
nodes = (
(464,616,l),
(513,907,l),
(858,907,l),
(809,616,l)
);
}
);
width = 1330;
},
{
layerId = "EA2265BD-E890-48C4-9E90-A53076E780C5";
shapes = (
{
closed = 1;
nodes = (
(306,0,l),
(424,0,l),
(489,413,l),
(814,413,l),
(751,0,l),
(869,0,l),
(932,413,l),
(1200,413,l),
(1228,616,l),
(964,616,l),
(1014,907,l),
(1268,907,l),
(1296,1108,l),
(1043,1108,l),
(1113,1539,l),
(994,1539,l),
(924,1108,l),
(600,1108,l),
(668,1539,l),
(550,1539,l),
(482,1108,l),
(223,1108,l),
(195,907,l),
(451,907,l),
(404,616,l),
(156,616,l),
(128,413,l),
(370,413,l)
);
},
{
closed = 1;
nodes = (
(521,616,l),
(570,907,l),
(895,907,l),
(846,616,l)
);
}
);
width = 1424;
},
{
layerId = "0E4B6E2E-ECAB-4D06-9686-B0B40AA31834";
shapes = (
{
closed = 1;
nodes = (
(286,0,l),
(404,0,l),
(469,413,l),
(794,413,l),
(731,0,l),
(849,0,l),
(912,413,l),
(1160,413,l),
(1178,546,l),
(934,546,l),
(1005,977,l),
(1238,977,l),
(1256,1108,l),
(1023,1108,l),
(1093,1540,l),
(974,1540,l),
(904,1108,l),
(580,1108,l),
(648,1540,l),
(530,1540,l),
(462,1108,l),
(223,1108,l),
(205,977,l),
(441,977,l),
(371,546,l),
(146,546,l),
(128,413,l),
(350,413,l)
);
},
{
closed = 1;
nodes = (
(488,546,l),
(560,977,l),
(886,977,l),
(816,546,l)
);
}
);
width = 1384;
},
{
layerId = "F2B10EEF-9DDC-48CA-970D-6B8C79870881";
shapes = (
{
closed = 1;
nodes = (
(299,0,l),
(367,0,l),
(432,413,l),
(737,413,l),
(674,0,l),
(742,0,l),
(805,413,l),
(1073,413,l),
(1101,616,l),
(837,616,l),
(887,907,l),
(1141,907,l),
(1169,1108,l),
(916,1108,l),
(986,1539,l),
(917,1539,l),
(847,1108,l),
(543,1108,l),
(611,1539,l),
(543,1539,l),
(475,1108,l),
(216,1108,l),
(188,907,l),
(444,907,l),
(397,616,l),
(149,616,l),
(121,413,l),
(363,413,l)
);
},
{
closed = 1;
nodes = (
(464,616,l),
(513,907,l),
(818,907,l),
(769,616,l)
);
}
);
width = 1290;
},
{
layerId = "E96AC896-F5DF-475B-BBD9-C7FEC6A86D0E";
shapes = (
{
closed = 1;
nodes = (
(279,0,l),
(347,0,l),
(412,413,l),
(737,413,l),
(674,0,l),
(742,0,l),
(805,413,l),
(1053,413,l),
(1071,546,l),
(827,546,l),
(898,977,l),
(1131,977,l),
(1149,1108,l),
(916,1108,l),
(986,1539,l),
(917,1539,l),
(847,1108,l),
(523,1108,l),
(591,1539,l),
(523,1539,l),
(455,1108,l),
(216,1108,l),
(198,977,l),
(434,977,l),
(364,546,l),
(139,546,l),
(121,413,l),
(343,413,l)
);
},
{
closed = 1;
nodes = (
(431,546,l),
(503,977,l),
(829,977,l),
(759,546,l)
);
}
);
width = 1270;
},
{
layerId = "C9B9556E-C2FD-4F62-BB40-44923C452C22";
shapes = (
{
closed = 1;
nodes = (
(271,3,l),
(339,3,l),
(404,416,l),
(759,416,l),
(696,3,l),
(764,3,l),
(827,416,l),
(1075,416,l),
(1093,549,l),
(849,549,l),
(920,980,l),
(1153,980,l),
(1171,1111,l),
(938,1111,l),
(1008,1542,l),
(939,1542,l),
(869,1111,l),
(515,1111,l),
(583,1542,l),
(515,1542,l),
(447,1111,l),
(208,1111,l),
(190,980,l),
(426,980,l),
(356,549,l),
(131,549,l),
(113,416,l),
(335,416,l)
);
},
{
closed = 1;
nodes = (
(423,549,l),
(495,980,l),
(851,980,l),
(781,549,l)
);
}
);
width = 1284;
},
{
layerId = "AFA1064D-EFC9-4C9F-B9B0-9118E41D87C4";
shapes = (
{
closed = 1;
nodes = (
(299,0,l),
(367,0,l),
(432,413,l),
(827,413,l),
(764,0,l),
(832,0,l),
(895,413,l),
(1163,413,l),
(1191,616,l),
(927,616,l),
(977,907,l),
(1231,907,l),
(1259,1108,l),
(1006,1108,l),
(1076,1539,l),
(1007,1539,l),
(937,1108,l),
(543,1108,l),
(611,1539,l),
(543,1539,l),
(475,1108,l),
(216,1108,l),
(188,907,l),
(444,907,l),
(397,616,l),
(149,616,l),
(121,413,l),
(363,413,l)
);
},
{
closed = 1;
nodes = (
(464,616,l),
(513,907,l),
(908,907,l),
(859,616,l)
);
}
);
width = 1380;
},
{
layerId = "2103F1D3-C390-4F79-A87D-298F85EA6916";
shapes = (
{
closed = 1;
nodes = (
(279,0,l),
(347,0,l),
(412,413,l),
(807,413,l),
(744,0,l),
(812,0,l),
(875,413,l),
(1123,413,l),
(1141,546,l),
(897,546,l),
(968,977,l),
(1201,977,l),
(1219,1108,l),
(986,1108,l),
(1056,1539,l),
(987,1539,l),
(917,1108,l),
(523,1108,l),
(591,1539,l),
(523,1539,l),
(455,1108,l),
(216,1108,l),
(198,977,l),
(434,977,l),
(364,546,l),
(139,546,l),
(121,413,l),
(343,413,l)
);
},
{
closed = 1;
nodes = (
(431,546,l),
(503,977,l),
(899,977,l),
(829,546,l)
);
}
);
width = 1340;
},
{
layerId = "779F1615-9D1A-4778-9767-9A030AA58B6C";
shapes = (
{
closed = 1;
nodes = (
(286,0,l),
(404,0,l),
(469,413,l),
(864,413,l),
(801,0,l),
(919,0,l),
(982,413,l),
(1230,413,l),
(1248,546,l),
(1004,546,l),
(1075,977,l),
(1308,977,l),
(1326,1108,l),
(1093,1108,l),
(1164,1540,l),
(1045,1540,l),
(974,1108,l),
(580,1108,l),
(649,1540,l),
(531,1540,l),
(462,1108,l),
(223,1108,l),
(205,977,l),
(441,977,l),
(371,546,l),
(146,546,l),
(128,413,l),
(350,413,l)
);
},
{
closed = 1;
nodes = (
(488,546,l),
(560,977,l),
(956,977,l),
(886,546,l)
);
}
);
width = 1454;
},
{
layerId = "97BB7961-D669-43AB-8BBF-11FFD0C46A4B";
shapes = (
{
closed = 1;
nodes = (
(306,0,l),
(424,0,l),
(489,413,l),
(874,413,l),
(811,0,l),
(929,0,l),
(992,413,l),
(1260,413,l),
(1288,616,l),
(1024,616,l),
(1074,907,l),
(1328,907,l),
(1356,1108,l),
(1103,1108,l),
(1173,1539,l),
(1054,1539,l),
(984,1108,l),
(600,1108,l),
(668,1539,l),
(550,1539,l),
(482,1108,l),
(223,1108,l),
(195,907,l),
(451,907,l),
(404,616,l),
(156,616,l),
(128,413,l),
(370,413,l)
);
},
{
closed = 1;
nodes = (
(521,616,l),
(570,907,l),
(955,907,l),
(906,616,l)
);
}
);
width = 1484;
}
);
metricRight = "=|";
unicode = 35;
}
{
glyphname = dollar;
layers = (
{
layerId = UUID0;
shapes = (
{
closed = 1;
nodes = (
(700,-252,l),
(702,-20,l),
(972,0,o),
(1132,150,o),
(1132,370,cs),
(1132,605,o),
(960,688,o),
(691,838,cs),
(529,928,o),
(376,1003,o),
(376,1174,cs),
(376,1344,o),
(516,1408,o),
(672,1408,cs),
(786,1410,o),
(856,1382,o),
(900,1348,c),
(946,1110,l),
(1042,1110,l),
(1052,1426,l),
(1002,1448,o),
(892,1494,o),
(736,1502,c),
(736,1720,l),
(608,1720,l),
(608,1500,l),
(398,1476,o),
(220,1352,o),
(220,1150,cs),
(220,924,o),
(352,824,o),
(588,700,cs),
(789,594,o),
(970,512,o),
(970,342,cs),
(970,162,o),
(854,74,o),
(650,74,cs),
(518,74,o),
(414,104,o),
(354,154,c),
(314,404,l),
(214,404,l),
(200,68,l),
(250,42,o),
(408,-8,o),
(576,-20,c),
(574,-252,l)
);
}
);
width = 1312;
},
{
layerId = "DEBB1CE4-A72D-4960-969E-E04A036D2FA1";
shapes = (
{
closed = 1;
nodes = (
(758,-252,l),
(760,-16,l),
(1089,21,o),
(1206,225,o),
(1206,420,cs),
(1206,649,o),
(1018,760,o),
(827,863,cs),
(668,948,o),
(493,1027,o),
(493,1184,cs),
(493,1291,o),
(572,1373,o),
(710,1373,cs),
(786,1373,o),
(847,1348,o),
(875,1320,c),
(919,1100,l),
(1104,1100,l),
(1116,1432,l),
(1066,1447,o),
(923,1491,o),
(769,1502,c),
(769,1720,l),
(592,1720,l),
(592,1500,l),
(318,1467,o),
(171,1300,o),
(171,1110,cs),
(171,854,o),
(340,736,o),
(527,641,cs),
(728,540,o),
(870,461,o),
(870,324,cs),
(870,200,o),
(807,117,o),
(634,117,cs),
(519,117,o),
(454,148,o),
(420,185,c),
(369,428,l),
(180,428,l),
(163,65,l),
(220,51,o),
(386,-8,o),
(585,-20,c),
(583,-252,l)
);
}
);
width = 1342;
},
{
layerId = "184155C8-9F61-4F1C-9784-DDA8EA717636";
shapes = (
{
closed = 1;
nodes = (
(732,-260,l),
(732,-22,l),
(1021,16,o),
(1206,177,o),
(1206,424,cs),
(1206,675,o),
(1012,780,o),
(827,885,cs),
(634,993,o),
(537,1082,o),
(537,1221,cs),
(537,1339,o),
(585,1446,o),
(710,1446,cs),
(761,1446,o),
(820,1429,o),
(875,1393,c),
(924,1090,l),
(1104,1090,l),
(1126,1432,l),
(1066,1437,o),
(866,1504,o),
(732,1504,c),
(732,1738,l),
(631,1738,l),
(631,1504,l),
(341,1480,o),
(171,1330,o),
(171,1088,cs),
(171,811,o),
(396,691,o),
(527,619,cs),
(721,513,o),
(826,417,o),
(826,278,cs),
(826,141,o),
(755,37,o),
(617,37,cs),
(554,37,o),
(486,58,o),
(421,105,c),
(364,438,l),
(180,438,l),
(153,65,l),
(219,60,o),
(391,-18,o),
(631,-26,c),
(631,-260,l)
);
}
);
width = 1337;
},
{
layerId = "EA2265BD-E890-48C4-9E90-A53076E780C5";
shapes = (
{
closed = 1;
nodes = (
(681,-252,l),
(682,-16,l),
(978,18,o),
(1079,226,o),
(1079,406,cs),
(1079,640,o),
(908,765,o),
(759,859,cs),
(625,944,o),
(456,1036,o),
(456,1194,cs),
(456,1287,o),
(513,1373,o),
(634,1373,cs),
(694,1373,o),
(746,1348,o),
(767,1320,c),
(806,1100,l),
(986,1100,l),
(997,1432,l),
(953,1447,o),
(819,1490,o),
(685,1502,c),
(685,1720,l),
(518,1720,l),
(518,1500,l),
(255,1464,o),
(139,1302,o),
(139,1100,cs),
(139,850,o),
(314,732,o),
(449,645,cs),
(638,522,o),
(748,463,o),
(748,315,cs),
(748,220,o),
(704,117,o),
(547,117,cs),
(460,117,o),
(404,149,o),
(382,185,c),
(335,428,l),
(151,428,l),
(135,65,l),
(190,50,o),
(336,-8,o),
(518,-20,c),
(516,-252,l)
);
}
);
width = 1342;
},
{
layerId = "0E4B6E2E-ECAB-4D06-9686-B0B40AA31834";
shapes = (
{
closed = 1;
nodes = (
(630,-252,l),
(631,-20,l),
(868,-1,o),
(1012,151,o),
(1012,362,cs),
(1012,607,o),
(821,721,o),
(620,838,cs),
(506,905,o),
(340,988,o),
(340,1180,cs),
(340,1330,o),
(444,1407,o),
(597,1408,cs),
(695,1409,o),
(754,1385,o),
(795,1348,c),
(836,1110,l),
(931,1110,l),
(940,1426,l),
(896,1448,o),
(794,1491,o),
(659,1502,c),
(659,1720,l),
(534,1720,l),
(534,1499,l),
(327,1470,o),
(188,1349,o),
(188,1135,cs),
(188,920,o),
(326,818,o),
(519,701,cs),
(718,580,o),
(854,518,o),
(854,328,cs),
(854,166,o),
(754,74,o),
(569,74,cs),
(459,74,o),
(366,107,o),
(320,154,c),
(283,404,l),
(185,404,l),
(172,68,l),
(217,42,o),
(358,-7,o),
(508,-20,c),
(506,-252,l)
);
}
);
width = 1165;
},
{
layerId = "F2B10EEF-9DDC-48CA-970D-6B8C79870881";
shapes = (
{
closed = 1;
nodes = (
(663,-260,l),
(663,-22,l),
(932,15,o),
(1093,178,o),
(1093,420,cs),
(1093,672,o),
(917,769,o),
(766,866,cs),
(571,992,o),
(488,1074,o),
(488,1222,cs),
(488,1338,o),
(539,1446,o),
(654,1446,cs),
(712,1446,o),
(780,1419,o),
(794,1393,c),
(833,1090,l),
(999,1090,l),
(1024,1432,l),
(970,1437,o),
(780,1504,o),
(657,1504,c),
(657,1738,l),
(560,1738,l),
(560,1504,l),
(298,1482,o),
(139,1334,o),
(139,1093,cs),
(139,821,o),
(342,709,o),
(455,637,cs),
(634,523,o),
(730,432,o),
(730,270,cs),
(730,146,o),
(673,37,o),
(550,37,cs),
(493,37,o),
(403,60,o),
(375,105,c),
(330,438,l),
(150,438,l),
(126,65,l),
(188,60,o),
(343,-18,o),
(566,-26,c),
(566,-260,l)
);
}
);
width = 1234;
},
{
layerId = "E96AC896-F5DF-475B-BBD9-C7FEC6A86D0E";
shapes = (
{
closed = 1;
nodes = (
(598,-252,l),
(600,-20,l),
(857,-2,o),
(1012,152,o),
(1012,360,cs),
(1012,592,o),
(825,703,o),
(636,808,cs),
(463,902,o),
(306,984,o),
(306,1171,cs),
(306,1335,o),
(426,1451,o),
(587,1451,cs),
(669,1453,o),
(763,1426,o),
(809,1391,c),
(841,1111,l),
(932,1111,l),
(941,1426,l),
(891,1448,o),
(781,1492,o),
(629,1502,c),
(629,1720,l),
(543,1720,l),
(543,1500,l),
(322,1472,o),
(168,1348,o),
(168,1143,cs),
(168,909,o),
(367,797,o),
(539,698,cs),
(697,608,o),
(868,539,o),
(868,332,cs),
(868,152,o),
(735,31,o),
(552,31,cs),
(456,31,o),
(335,66,o),
(286,111,c),
(259,403,l),
(164,403,l),
(151,68,l),
(197,42,o),
(351,-8,o),
(514,-20,c),
(512,-252,l)
);
}
);
width = 1145;
},
{
layerId = "C9B9556E-C2FD-4F62-BB40-44923C452C22";
shapes = (
{
closed = 1;
nodes = (
(640,-252,l),
(642,-20,l),
(900,-3,o),
(1063,150,o),
(1063,359,cs),
(1063,587,o),
(870,696,o),
(679,795,cs),
(489,893,o),
(314,974,o),
(314,1166,cs),
(314,1335,o),
(450,1447,o),
(631,1447,cs),
(722,1448,o),
(828,1422,o),
(877,1387,c),
(910,1110,l),
(978,1110,l),
(988,1426,l),
(938,1448,o),
(826,1494,o),
(672,1502,c),
(672,1720,l),
(585,1720,l),
(585,1500,l),
(360,1472,o),
(203,1348,o),
(203,1145,cs),
(203,915,o),
(403,808,o),
(581,711,cs),
(763,612,o),
(947,542,o),
(947,335,cs),
(947,152,o),
(797,35,o),
(594,35,cs),
(483,35,o),
(351,70,o),
(297,115,c),
(269,404,l),
(198,404,l),
(185,68,l),
(234,42,o),
(391,-8,o),
(557,-20,c),
(555,-252,l)
);
}
);
width = 1229;
},
{
layerId = "AFA1064D-EFC9-4C9F-B9B0-9118E41D87C4";
shapes = (
{
closed = 1;
nodes = (
(797,-260,l),
(797,-22,l),
(1100,17,o),
(1302,177,o),
(1302,430,cs),
(1302,672,o),
(1118,754,o),
(884,886,cs),
(702,988,o),
(585,1065,o),
(585,1218,cs),
(585,1336,o),
(650,1446,o),
(784,1446,cs),
(842,1446,o),
(928,1422,o),
(948,1393,c),
(993,1090,l),
(1193,1090,l),
(1217,1432,l),
(1153,1437,o),
(944,1504,o),
(799,1504,c),
(799,1738,l),
(694,1738,l),
(694,1504,l),
(387,1479,o),
(202,1332,o),
(202,1084,cs),
(202,810,o),
(435,694,o),
(589,616,cs),
(802,508,o),
(905,416,o),
(905,272,cs),
(905,145,o),
(824,37,o),
(679,37,cs),
(611,37,o),
(491,61,o),
(459,105,c),
(403,438,l),
(210,438,l),
(181,65,l),
(252,60,o),
(436,-18,o),
(690,-26,c),
(691,-260,l)
);
}
);
width = 1446;
},
{
layerId = "2103F1D3-C390-4F79-A87D-298F85EA6916";
shapes = (
{
closed = 1;
nodes = (
(670,-252,l),
(672,-20,l),
(963,-2,o),
(1144,150,o),
(1144,363,cs),
(1144,596,o),
(927,704,o),
(710,810,cs),
(506,910,o),
(334,991,o),
(334,1172,cs),
(334,1335,o),
(476,1451,o),
(663,1451,cs),
(759,1452,o),
(872,1426,o),
(924,1391,c),
(958,1110,l),
(1053,1110,l),
(1063,1426,l),
(1007,1448,o),
(883,1494,o),
(707,1502,c),
(707,1720,l),
(621,1719,l),
(621,1499,l),
(372,1471,o),
(191,1349,o),
(191,1142,cs),
(191,909,o),
(414,797,o),
(617,696,cs),
(791,609,o),
(995,537,o),
(995,332,cs),
(995,151,o),
(837,31,o),
(624,31,cs),
(510,31,o),
(369,65,o),
(312,111,c),
(284,404,l),
(185,404,l),
(172,68,l),
(228,41,o),
(407,-8,o),
(586,-20,c),
(584,-252,l)
);
}
);
width = 1294;
},
{
layerId = "779F1615-9D1A-4778-9767-9A030AA58B6C";
shapes = (
{
closed = 1;
nodes = (
(744,-252,l),
(747,-19,l),
(1036,2,o),
(1215,153,o),
(1215,370,cs),
(1215,622,o),
(1005,696,o),
(723,838,cs),
(552,924,o),
(378,990,o),
(378,1174,cs),
(378,1325,o),
(537,1407,o),
(710,1408,cs),
(856,1409,o),
(918,1384,o),
(977,1348,c),
(1021,1110,l),
(1117,1110,l),
(1128,1426,l),
(1073,1448,o),
(950,1495,o),
(778,1502,c),
(778,1720,l),
(651,1720,l),
(651,1501,l),
(392,1477,o),
(222,1337,o),
(222,1150,cs),
(222,924,o),
(365,824,o),
(629,699,cs),
(844,597,o),
(1053,523,o),
(1053,342,cs),
(1053,180,o),
(910,74,o),
(694,74,cs),
(554,74,o),
(418,106,o),
(351,154,c),
(312,404,l),
(213,404,l),
(198,68,l),
(253,41,o),
(435,-11,o),
(622,-21,c),
(621,-252,l)
);
}
);
userData = {
com.schriftgestaltung.Glyphs.lastChange = "2019-04-25 21:50:43 +0000";
};
width = 1392;
},
{
layerId = "97BB7961-D669-43AB-8BBF-11FFD0C46A4B";
shapes = (
{
closed = 1;
nodes = (
(802,-252,l),
(805,-16,l),
(1153,21,o),
(1289,227,o),
(1289,423,cs),
(1289,657,o),
(1095,770,o),
(866,886,cs),
(721,959,o),
(549,1036,o),
(549,1186,cs),
(549,1291,o),
(628,1373,o),
(755,1373,cs),
(821,1373,o),
(879,1347,o),
(902,1320,c),
(950,1100,l),
(1181,1100,l),
(1193,1432,l),
(1138,1447,o),
(988,1491,o),
(818,1502,c),
(818,1720,l),
(637,1720,l),
(637,1500,l),
(330,1460,o),
(182,1301,o),
(182,1088,cs),
(182,821,o),
(417,697,o),
(574,618,cs),
(768,520,o),
(908,464,o),
(908,310,cs),
(908,204,o),
(843,117,o),
(678,117,cs),
(576,117,o),
(508,150,o),
(476,185,c),
(423,428,l),
(188,428,l),
(171,65,l),
(231,51,o),
(414,-8,o),
(625,-20,c),
(623,-252,l)
);
}
);
width = 1432;
}
);
unicode = 36;
userData = {
KernOnSpecialSpacing = {
L = symbols;
R = symbols;
};
};
}
{
glyphname = percent;
kernLeft = percent;
kernRight = percent;
layers = (
{
layerId = UUID0;
shapes = (
{
closed = 1;
nodes = (
(764,0,l),
(1404,1502,l),
(1274,1502,l),
(632,0,l)
);
},
{
closed = 1;
nodes = (
(656,648,o),
(840,794,o),
(840,1060,cs),
(840,1286,o),
(734,1464,o),
(494,1464,cs),
(294,1464,o),
(114,1314,o),
(114,1048,cs),
(114,832,o),
(248,648,o),
(460,648,cs)
);
},
{
closed = 1;
nodes = (
(340,744,o),
(268,884,o),
(268,1056,cs),
(268,1248,o),
(350,1368,o),
(482,1368,cs),
(618,1368,o),
(688,1238,o),
(688,1052,cs),
(688,862,o),
(604,744,o),
(472,744,cs)
);
},
{
closed = 1;
nodes = (
(1736,48,o),
(1922,194,o),
(1922,460,cs),
(1922,684,o),
(1814,864,o),
(1576,864,cs),
(1376,864,o),
(1196,714,o),
(1196,448,cs),
(1196,232,o),
(1328,48,o),
(1542,48,cs)
);
},
{
closed = 1;
nodes = (
(1422,144,o),
(1348,284,o),
(1348,458,cs),
(1348,648,o),
(1430,768,o),
(1564,768,cs),
(1700,768,o),
(1770,636,o),
(1770,452,cs),
(1770,262,o),
(1684,144,o),
(1552,144,cs)
);
}
);
width = 2036;
},
{
layerId = "DEBB1CE4-A72D-4960-969E-E04A036D2FA1";
shapes = (
{
closed = 1;
nodes = (
(856,0,l),
(1497,1502,l),
(1292,1502,l),
(651,0,l)
);
},
{
closed = 1;
nodes = (
(705,624,o),
(895,779,o),
(895,1063,cs),
(895,1304,o),
(795,1495,o),
(509,1495,cs),
(273,1495,o),
(89,1335,o),
(89,1051,cs),
(89,819,o),
(220,624,o),
(473,624,cs)
);
},
{
closed = 1;
nodes = (
(384,753,o),
(354,924,o),
(354,1063,cs),
(354,1239,o),
(388,1364,o),
(497,1364,cs),
(605,1364,o),
(632,1210,o),
(632,1055,cs),
(632,878,o),
(601,753,o),
(491,753,cs)
);
},
{
closed = 1;
nodes = (
(1876,20,o),
(2067,176,o),
(2067,460,cs),
(2067,700,o),
(1965,892,o),
(1681,892,cs),
(1444,892,o),
(1260,732,o),
(1260,448,cs),
(1260,217,o),
(1392,20,o),
(1644,20,cs)
);
},
{
closed = 1;
nodes = (
(1555,151,o),
(1524,321,o),
(1524,461,cs),
(1524,636,o),
(1559,761,o),
(1669,761,cs),
(1775,761,o),
(1803,606,o),
(1803,452,cs),
(1804,277,o),
(1771,151,o),
(1661,151,cs)
);
}
);
width = 2156;
},
{
layerId = "184155C8-9F61-4F1C-9784-DDA8EA717636";
shapes = (
{
closed = 1;
nodes = (
(712,0,l),
(1366,1502,l),
(1280,1502,l),
(626,0,l)
);
},
{
closed = 1;
nodes = (
(704,624,o),
(895,780,o),
(895,1064,cs),
(895,1304,o),
(793,1496,o),
(510,1496,cs),
(273,1496,o),
(89,1336,o),
(89,1052,cs),
(89,811,o),
(221,624,o),
(473,624,cs)
);
},
{
closed = 1;
nodes = (
(394,682,o),
(353,796,o),
(353,1065,cs),
(353,1328,o),
(396,1440,o),
(498,1440,cs),
(592,1440,o),
(632,1325,o),
(632,1056,cs),
(632,794,o),
(590,682,o),
(490,682,cs)
);
},
{
closed = 1;
nodes = (
(1715,20,o),
(1906,176,o),
(1906,460,cs),
(1906,700,o),
(1804,892,o),
(1520,892,cs),
(1283,892,o),
(1099,732,o),
(1099,448,cs),
(1099,217,o),
(1231,20,o),
(1483,20,cs)
);
},
{
closed = 1;
nodes = (
(1404,78,o),
(1363,192,o),
(1363,461,cs),
(1363,724,o),
(1406,836,o),
(1508,836,cs),
(1602,836,o),
(1642,721,o),
(1642,452,cs),
(1642,190,o),
(1600,78,o),
(1500,78,cs)
);
}
);
width = 1995;
},
{
layerId = "EA2265BD-E890-48C4-9E90-A53076E780C5";
shapes = (
{
closed = 1;
nodes = (
(773,0,l),
(1337,1502,l),
(1140,1502,l),
(576,0,l)
);
},
{
closed = 1;
nodes = (
(629,624,o),
(798,779,o),
(798,1063,cs),
(798,1304,o),
(711,1495,o),
(450,1495,cs),
(233,1495,o),
(69,1335,o),
(69,1051,cs),
(69,819,o),
(185,624,o),
(418,624,cs)
);
},
{
closed = 1;
nodes = (
(347,753,o),
(330,923,o),
(330,1063,cs),
(330,1239,o),
(349,1364,o),
(439,1364,cs),
(528,1364,o),
(542,1209,o),
(542,1055,cs),
(542,880,o),
(527,753,o),
(435,753,cs)
);
},
{
closed = 1;
nodes = (
(1680,21,o),
(1849,176,o),
(1849,460,cs),
(1849,701,o),
(1762,892,o),
(1501,892,cs),
(1284,892,o),
(1120,732,o),
(1120,448,cs),
(1120,216,o),
(1236,21,o),
(1469,21,cs)
);
},
{
closed = 1;
nodes = (
(1398,150,o),
(1381,320,o),
(1381,460,cs),
(1381,636,o),
(1400,761,o),
(1490,761,cs),
(1579,761,o),
(1593,606,o),
(1593,452,cs),
(1593,277,o),
(1578,150,o),
(1486,150,cs)
);
}
);
width = 1918;
},
{
layerId = "0E4B6E2E-ECAB-4D06-9686-B0B40AA31834";
shapes = (
{
closed = 1;
nodes = (
(704,0,l),
(1283,1502,l),
(1159,1502,l),
(577,0,l)
);
},
{
closed = 1;
nodes = (
(601,648,o),
(770,794,o),
(770,1060,cs),
(770,1285,o),
(673,1464,o),
(452,1464,cs),
(269,1464,o),
(104,1314,o),
(104,1048,cs),
(104,833,o),
(226,648,o),
(422,648,cs)
);
},
{
closed = 1;
nodes = (
(315,744,o),
(253,885,o),
(253,1056,cs),
(253,1247,o),
(324,1368,o),
(441,1368,cs),
(562,1368,o),
(622,1236,o),
(622,1052,cs),
(622,864,o),
(550,744,o),
(433,744,cs)
);
},
{
closed = 1;
nodes = (
(1587,48,o),
(1758,194,o),
(1758,460,cs),
(1758,682,o),
(1661,864,o),
(1440,864,cs),
(1257,864,o),
(1092,714,o),
(1092,448,cs),
(1092,232,o),
(1214,48,o),
(1410,48,cs)
);
},
{
closed = 1;
nodes = (
(1304,144,o),
(1240,285,o),
(1240,458,cs),
(1240,646,o),
(1310,768,o),
(1430,768,cs),
(1551,768,o),
(1611,634,o),
(1611,452,cs),
(1611,263,o),
(1537,144,o),
(1419,144,cs)
);
}
);
width = 1862;
},
{
layerId = "F2B10EEF-9DDC-48CA-970D-6B8C79870881";
shapes = (
{
closed = 1;
nodes = (
(708,0,l),
(1285,1502,l),
(1199,1502,l),
(623,0,l)
);
},
{
closed = 1;
nodes = (
(641,624,o),
(816,776,o),
(816,1075,cs),
(816,1294,o),
(724,1496,o),
(466,1496,cs),
(236,1496,o),
(69,1336,o),
(69,1056,cs),
(69,821,o),
(186,624,o),
(428,624,cs)
);
},
{
closed = 1;
nodes = (
(349,682,o),
(316,797,o),
(316,1059,cs),
(316,1328,o),
(350,1440,o),
(443,1440,cs),
(537,1440,o),
(569,1325,o),
(569,1060,cs),
(569,795,o),
(537,682,o),
(443,682,cs)
);
},
{
closed = 1;
nodes = (
(1665,20,o),
(1840,172,o),
(1840,471,cs),
(1840,690,o),
(1748,892,o),
(1490,892,cs),
(1260,892,o),
(1093,732,o),
(1093,452,cs),
(1093,217,o),
(1210,20,o),
(1452,20,cs)
);
},
{
closed = 1;
nodes = (
(1373,78,o),
(1340,193,o),
(1340,455,cs),
(1340,724,o),
(1374,836,o),
(1467,836,cs),
(1561,836,o),
(1593,721,o),
(1593,456,cs),
(1593,191,o),
(1561,78,o),
(1467,78,cs)
);
}
);
width = 1909;
},
{
layerId = "E96AC896-F5DF-475B-BBD9-C7FEC6A86D0E";
shapes = (
{
closed = 1;
nodes = (
(625,0,l),
(1168,1502,l),
(1059,1501,l),
(516,0,l)
);
},
{
closed = 1;
nodes = (
(558,649,o),
(720,795,o),
(720,1060,cs),
(720,1284,o),
(627,1463,o),
(412,1463,cs),
(232,1463,o),
(74,1313,o),
(74,1048,cs),
(74,835,o),
(191,649,o),
(382,649,cs)
);
},
{
closed = 1;
nodes = (
(270,687,o),
(205,857,o),
(205,1056,cs),
(205,1279,o),
(278,1425,o),
(401,1425,cs),
(522,1425,o),
(590,1284,o),
(590,1052,cs),
(590,830,o),
(515,687,o),
(393,687,cs)
);
},
{
closed = 1;
nodes = (
(1456,50,o),
(1618,196,o),
(1618,461,cs),
(1618,686,o),
(1525,864,o),
(1310,864,cs),
(1130,864,o),
(972,714,o),
(972,449,cs),
(972,234,o),
(1090,50,o),
(1281,50,cs)
);
},
{
closed = 1;
nodes = (
(1168,88,o),
(1103,258,o),
(1103,457,cs),
(1103,680,o),
(1176,826,o),
(1299,826,cs),
(1420,826,o),
(1488,686,o),
(1488,453,cs),
(1488,231,o),
(1413,88,o),
(1291,88,cs)
);
}
);
width = 1692;
},
{
layerId = "C9B9556E-C2FD-4F62-BB40-44923C452C22";
shapes = (
{
closed = 1;
nodes = (
(681,0,l),
(1281,1502,l),
(1170,1501,l),
(571,0,l)
);
},
{
closed = 1;
nodes = (
(622,648,o),
(800,794,o),
(800,1060,cs),
(800,1285,o),
(698,1464,o),
(463,1464,cs),
(268,1464,o),
(94,1314,o),
(94,1048,cs),
(94,833,o),
(223,648,o),
(431,648,cs)
);
},
{
closed = 1;
nodes = (
(301,686,o),
(225,854,o),
(225,1056,cs),
(225,1282,o),
(311,1426,o),
(451,1426,cs),
(590,1426,o),
(670,1287,o),
(670,1052,cs),
(670,828,o),
(582,686,o),
(442,686,cs)
);
},
{
closed = 1;
nodes = (
(1589,49,o),
(1767,195,o),
(1767,461,cs),
(1767,686,o),
(1665,865,o),
(1430,865,cs),
(1235,865,o),
(1061,715,o),
(1061,449,cs),
(1061,234,o),
(1190,49,o),
(1398,49,cs)
);
},
{
closed = 1;
nodes = (
(1268,87,o),
(1192,255,o),
(1192,457,cs),
(1192,683,o),
(1278,827,o),
(1418,827,cs),
(1557,827,o),
(1637,688,o),
(1637,453,cs),
(1637,229,o),
(1549,87,o),
(1409,87,cs)
);
}
);
width = 1861;
},
{
layerId = "AFA1064D-EFC9-4C9F-B9B0-9118E41D87C4";
shapes = (
{
closed = 1;
nodes = (
(712,0,l),
(1366,1502,l),
(1280,1502,l),
(626,0,l)
);
},
{
closed = 1;
nodes = (
(713,624,o),
(911,780,o),
(911,1064,cs),
(911,1304,o),
(805,1496,o),
(511,1496,cs),
(264,1496,o),
(73,1336,o),
(73,1052,cs),
(73,811,o),
(210,624,o),
(472,624,cs)
);
},
{
closed = 1;
nodes = (
(390,682,o),
(347,796,o),
(347,1065,cs),
(347,1328,o),
(392,1440,o),
(498,1440,cs),
(596,1440,o),
(638,1325,o),
(638,1056,cs),
(638,794,o),
(594,682,o),
(490,682,cs)
);
},
{
closed = 1;
nodes = (
(1724,20,o),
(1922,176,o),
(1922,460,cs),
(1922,700,o),
(1816,892,o),
(1521,892,cs),
(1274,892,o),
(1083,732,o),
(1083,448,cs),
(1083,217,o),
(1220,20,o),
(1482,20,cs)
);
},
{
closed = 1;
nodes = (
(1400,78,o),
(1357,192,o),
(1357,461,cs),
(1357,724,o),
(1402,836,o),
(1508,836,cs),
(1606,836,o),
(1648,721,o),
(1648,452,cs),
(1648,190,o),
(1604,78,o),
(1500,78,cs)
);
}
);
width = 1995;
},
{
layerId = "2103F1D3-C390-4F79-A87D-298F85EA6916";
shapes = (
{
closed = 1;
nodes = (
(725,0,l),
(1363,1502,l),
(1250,1501,l),
(613,0,l)
);
},
{
closed = 1;
nodes = (
(662,648,o),
(852,794,o),
(852,1060,cs),
(852,1285,o),
(743,1464,o),
(495,1464,cs),
(290,1464,o),
(104,1314,o),
(104,1048,cs),
(104,833,o),
(242,648,o),
(461,648,cs)
);
},
{
closed = 1;
nodes = (
(319,686,o),
(235,854,o),
(235,1056,cs),
(235,1281,o),
(330,1426,o),
(482,1426,cs),
(634,1426,o),
(722,1286,o),
(722,1052,cs),
(722,829,o),
(625,686,o),
(473,686,cs)
);
},
{
closed = 1;
nodes = (
(1693,49,o),
(1883,195,o),
(1883,461,cs),
(1883,686,o),
(1774,865,o),
(1526,865,cs),
(1321,865,o),
(1135,715,o),
(1135,449,cs),
(1135,234,o),
(1273,49,o),
(1492,49,cs)
);
},
{
closed = 1;
nodes = (
(1350,87,o),
(1266,255,o),
(1266,457,cs),
(1266,682,o),
(1361,827,o),
(1513,827,cs),
(1665,827,o),
(1753,687,o),
(1753,453,cs),
(1753,230,o),
(1656,87,o),
(1504,87,cs)
);
}
);
width = 1987;
},
{
layerId = "779F1615-9D1A-4778-9767-9A030AA58B6C";
shapes = (
{
closed = 1;
nodes = (
(764,0,l),
(1404,1502,l),
(1274,1502,l),
(632,0,l)
);
},
{
closed = 1;
nodes = (
(663,648,o),
(855,794,o),
(855,1060,cs),
(855,1286,o),
(744,1464,o),
(495,1464,cs),
(287,1464,o),
(99,1314,o),
(99,1048,cs),
(99,832,o),
(239,648,o),
(459,648,cs)
);
},
{
closed = 1;
nodes = (
(334,744,o),
(260,884,o),
(260,1056,cs),
(260,1248,o),
(345,1368,o),
(482,1368,cs),
(624,1368,o),
(697,1238,o),
(697,1052,cs),
(697,862,o),
(609,744,o),
(472,744,cs)
);
},
{
closed = 1;
nodes = (
(1743,48,o),
(1937,194,o),
(1937,460,cs),
(1937,684,o),
(1824,864,o),
(1577,864,cs),
(1369,864,o),
(1181,714,o),
(1181,448,cs),
(1181,232,o),
(1319,48,o),
(1541,48,cs)
);
},
{
closed = 1;
nodes = (
(1416,144,o),
(1339,284,o),
(1339,458,cs),
(1339,648,o),
(1425,768,o),
(1564,768,cs),
(1706,768,o),
(1779,636,o),
(1779,452,cs),
(1779,262,o),
(1689,144,o),
(1552,144,cs)
);
}
);
userData = {
com.schriftgestaltung.Glyphs.lastChange = "2019-04-25 21:50:43 +0000";
};
width = 2036;
},
{
layerId = "97BB7961-D669-43AB-8BBF-11FFD0C46A4B";
shapes = (
{
closed = 1;
nodes = (
(894,0,l),
(1565,1502,l),
(1352,1502,l),
(682,0,l)
);
},
{
closed = 1;
nodes = (
(755,624,o),
(965,779,o),
(965,1063,cs),
(965,1304,o),
(852,1495,o),
(546,1495,cs),
(293,1495,o),
(89,1335,o),
(89,1051,cs),
(89,819,o),
(236,624,o),
(506,624,cs)
);
},
{
closed = 1;
nodes = (
(429,753,o),
(398,926,o),
(398,1063,cs),
(398,1237,o),
(434,1364,o),
(533,1364,cs),
(629,1364,o),
(658,1209,o),
(658,1055,cs),
(658,878,o),
(623,753,o),
(525,753,cs)
);
},
{
closed = 1;
nodes = (
(1953,21,o),
(2163,176,o),
(2163,460,cs),
(2163,701,o),
(2050,892,o),
(1744,892,cs),
(1488,892,o),
(1287,732,o),
(1287,448,cs),
(1287,216,o),
(1434,21,o),
(1704,21,cs)
);
},
{
closed = 1;
nodes = (
(1627,150,o),
(1596,323,o),
(1596,460,cs),
(1596,634,o),
(1632,761,o),
(1731,761,cs),
(1827,761,o),
(1856,605,o),
(1856,452,cs),
(1856,276,o),
(1821,150,o),
(1723,150,cs)
);
}
);
width = 2252;
}
);
metricRight = "=|";
unicode = 37;
}
{
glyphname = period;
layers = (
{
layerId = UUID0;
shapes = (
{
closed = 1;
nodes = (
(298,-22,o),
(360,32,o),
(360,110,cs),
(360,168,o),
(328,222,o),
(252,222,cs),
(186,222,o),
(122,166,o),
(122,90,cs),
(122,22,o),
(172,-22,o),
(232,-22,cs)
);
}
);
width = 482;
},
{
layerId = "DEBB1CE4-A72D-4960-969E-E04A036D2FA1";
shapes = (
{
closed = 1;
nodes = (
(391,-16,o),
(471,50,o),
(471,165,cs),
(471,251,o),
(406,333,o),
(301,333,cs),
(191,333,o),
(110,259,o),
(110,151,cs),
(110,53,o),
(189,-16,o),
(277,-16,cs)
);
}
);
width = 577;
},
{
layerId = "184155C8-9F61-4F1C-9784-DDA8EA717636";
shapes = (
{
closed = 1;
nodes = (
(324,-16,o),
(395,44,o),
(395,149,cs),
(395,227,o),
(342,301,o),
(246,301,cs),
(151,301,o),
(76,234,o),
(76,136,cs),
(76,47,o),
(144,-16,o),
(220,-16,cs)
);
}
);
width = 471;
},
{
layerId = "EA2265BD-E890-48C4-9E90-A53076E780C5";
shapes = (
{
closed = 1;
nodes = (
(393,-16,o),
(479,50,o),
(479,165,cs),
(479,251,o),
(414,333,o),
(323,333,cs),
(233,333,o),
(142,259,o),
(142,151,cs),
(142,53,o),
(225,-16,o),
(293,-16,cs)
);
}
);
width = 620;
},
{
layerId = "0E4B6E2E-ECAB-4D06-9686-B0B40AA31834";
shapes = (
{
closed = 1;
nodes = (
(300,-22,o),
(362,32,o),
(362,110,cs),
(362,168,o),
(330,222,o),
(256,222,cs),
(192,222,o),
(128,166,o),
(128,90,cs),
(128,22,o),
(178,-22,o),
(236,-22,cs)
);
}
);
width = 490;
},
{
layerId = "F2B10EEF-9DDC-48CA-970D-6B8C79870881";
shapes = (
{
closed = 1;
nodes = (
(294,-16,o),
(357,44,o),
(357,149,cs),
(357,227,o),
(309,301,o),
(223,301,cs),
(136,301,o),
(68,234,o),
(68,136,cs),
(68,47,o),
(130,-16,o),
(198,-16,cs)
);
}
);
width = 425;
},
{
layerId = "E96AC896-F5DF-475B-BBD9-C7FEC6A86D0E";
shapes = (
{
closed = 1;
nodes = (
(205,-22,o),
(248,22,o),
(248,85,cs),
(248,132,o),
(225,176,o),
(173,176,cs),
(126,176,o),
(82,130,o),
(82,69,cs),
(82,14,o),
(117,-22,o),
(159,-22,cs)
);
}
);
width = 330;
},
{
layerId = "C9B9556E-C2FD-4F62-BB40-44923C452C22";
shapes = (
{
closed = 1;
nodes = (
(226,-22,o),
(276,22,o),
(276,85,cs),
(276,132,o),
(250,176,o),
(191,176,cs),
(139,176,o),
(88,130,o),
(88,69,cs),
(88,14,o),
(128,-22,o),
(175,-22,cs)
);
}
);
width = 364;
},
{
layerId = "AFA1064D-EFC9-4C9F-B9B0-9118E41D87C4";
shapes = (
{
closed = 1;
nodes = (
(352,-16,o),
(431,44,o),
(431,149,cs),
(431,227,o),
(373,301,o),
(269,301,cs),
(166,301,o),
(82,234,o),
(82,136,cs),
(82,47,o),
(157,-16,o),
(238,-16,cs)
);
}
);
width = 513;
},
{
layerId = "2103F1D3-C390-4F79-A87D-298F85EA6916";
shapes = (
{
closed = 1;
nodes = (
(244,-22,o),
(286,22,o),
(286,85,cs),
(286,132,o),
(270,176,o),
(206,176,cs),
(150,176,o),
(106,130,o),
(106,69,cs),
(106,14,o),
(137,-22,o),
(188,-22,cs)
);
}
);
width = 392;
},
{
layerId = "779F1615-9D1A-4778-9767-9A030AA58B6C";
shapes = (
{
closed = 1;
nodes = (
(296,-22,o),
(358,32,o),
(358,110,cs),
(358,168,o),
(326,222,o),
(250,222,cs),
(184,222,o),
(120,166,o),
(120,90,cs),
(120,22,o),
(170,-22,o),
(230,-22,cs)
);
}
);
userData = {
com.schriftgestaltung.Glyphs.lastChange = "2019-04-25 21:50:43 +0000";
};
width = 478;
},
{
layerId = "97BB7961-D669-43AB-8BBF-11FFD0C46A4B";
shapes = (
{
closed = 1;
nodes = (
(413,-16,o),
(499,50,o),
(499,165,cs),
(499,251,o),
(434,333,o),
(323,333,cs),
(213,333,o),
(122,259,o),
(122,151,cs),
(122,53,o),
(205,-16,o),
(293,-16,cs)
);
}
);
width = 620;
}
);
unicode = 46;
userData = {
KernOnName = period;
KernOnSpecialSpacing = {
L = period;
R = period;
};
};
}
{
glyphname = one;
kernLeft = one;
kernRight = one;
layers = (
{
layerId = UUID0;
shapes = (
{
closed = 1;
nodes = (
(138,86,l),
(138,0,l),
(830,0,l),
(830,86,l),
(577,102,l),
(577,1484,l),
(476,1504,l),
(474,1504,l),
(380,1424,o),
(234,1350,o),
(98,1320,c),
(118,1226,l),
(204,1238,o),
(358,1280,o),
(412,1304,c),
(412,102,l)
);
}
);
width = 892;
},
{
layerId = "DEBB1CE4-A72D-4960-969E-E04A036D2FA1";
shapes = (
{
closed = 1;
nodes = (
(110,130,l),
(110,0,l),
(900,0,l),
(900,130,l),
(686,154,l),
(686,1486,l),
(517,1506,l),
(515,1506,l),
(421,1426,o),
(216,1342,o),
(60,1312,c),
(90,1144,l),
(150,1150,o),
(297,1182,o),
(343,1196,c),
(343,152,l)
);
}
);
width = 940;
},
{
layerId = "184155C8-9F61-4F1C-9784-DDA8EA717636";
shapes = (
{
closed = 1;
nodes = (
(62,38,l),
(62,0,l),
(873,0,l),
(873,38,l),
(661,72,l),
(661,1486,l),
(472,1506,l),
(456,1506,l),
(374,1412,o),
(233,1282,o),
(19,1242,c),
(30,1191,l),
(102,1189,o),
(236,1214,o),
(277,1230,c),
(276,72,l)
);
}
);
width = 894;
},
{
layerId = "EA2265BD-E890-48C4-9E90-A53076E780C5";
shapes = (
{
closed = 1;
nodes = (
(106,128,l),
(106,0,l),
(828,0,l),
(828,128,l),
(644,152,l),
(644,1486,l),
(488,1506,l),
(486,1506,l),
(402,1426,o),
(204,1342,o),
(60,1313,c),
(89,1148,l),
(139,1154,o),
(275,1186,o),
(316,1200,c),
(316,150,l)
);
}
);
width = 890;
},
{
layerId = "0E4B6E2E-ECAB-4D06-9686-B0B40AA31834";
shapes = (
{
closed = 1;
nodes = (
(136,86,l),
(136,0,l),
(744,0,l),
(744,86,l),
(527,102,l),
(527,1484,l),
(432,1504,l),
(430,1504,l),
(342,1424,o),
(221,1351,o),
(98,1321,c),
(118,1227,l),
(196,1239,o),
(317,1271,o),
(366,1304,c),
(366,102,l)
);
}
);
width = 806;
},
{
layerId = "F2B10EEF-9DDC-48CA-970D-6B8C79870881";
shapes = (
{
closed = 1;
nodes = (
(65,38,l),
(65,0,l),
(757,0,l),
(757,38,l),
(589,72,l),
(589,1485,l),
(416,1510,l),
(400,1510,l),
(333,1416,o),
(206,1282,o),
(29,1242,c),
(38,1191,l),
(99,1189,o),
(199,1213,o),
(237,1230,c),
(236,72,l)
);
}
);
width = 783;
},
{
layerId = "E96AC896-F5DF-475B-BBD9-C7FEC6A86D0E";
shapes = (
{
closed = 1;
nodes = (
(73,36,l),
(73,0,l),
(723,0,l),
(723,36,l),
(470,67,l),
(470,1484,l),
(372,1504,l),
(370,1504,l),
(308,1403,o),
(163,1314,o),
(39,1284,c),
(47,1242,l),
(183,1268,o),
(247,1295,o),
(313,1324,c),
(318,67,l)
);
}
);
width = 751;
},
{
layerId = "C9B9556E-C2FD-4F62-BB40-44923C452C22";
shapes = (
{
closed = 1;
nodes = (
(130,36,l),
(130,0,l),
(762,0,l),
(762,36,l),
(525,67,l),
(525,1484,l),
(428,1504,l),
(426,1504,l),
(360,1403,o),
(196,1314,o),
(64,1284,c),
(73,1242,l),
(217,1268,o),
(297,1295,o),
(368,1324,c),
(373,67,l)
);
}
);
width = 820;
},
{
layerId = "AFA1064D-EFC9-4C9F-B9B0-9118E41D87C4";
shapes = (
{
closed = 1;
nodes = (
(74,38,l),
(74,0,l),
(866,0,l),
(866,38,l),
(675,72,l),
(675,1486,l),
(458,1506,l),
(442,1506,l),
(360,1392,o),
(234,1282,o),
(19,1242,c),
(29,1191,l),
(101,1189,o),
(228,1214,o),
(268,1230,c),
(268,72,l)
);
}
);
width = 887;
},
{
layerId = "2103F1D3-C390-4F79-A87D-298F85EA6916";
shapes = (
{
closed = 1;
nodes = (
(151,36,l),
(151,0,l),
(784,0,l),
(784,36,l),
(552,67,l),
(552,1484,l),
(449,1504,l),
(447,1504,l),
(379,1403,o),
(200,1314,o),
(64,1284,c),
(73,1242,l),
(222,1268,o),
(313,1295,o),
(386,1324,c),
(391,67,l)
);
}
);
width = 842;
},
{
layerId = "779F1615-9D1A-4778-9767-9A030AA58B6C";
shapes = (
{
closed = 1;
nodes = (
(100,86,l),
(100,0,l),
(838,0,l),
(838,86,l),
(576,95,l),
(576,1477,l),
(473,1504,l),
(471,1504,l),
(369,1424,o),
(218,1350,o),
(70,1320,c),
(92,1226,l),
(185,1238,o),
(348,1280,o),
(407,1304,c),
(407,102,l)
);
}
);
userData = {
com.schriftgestaltung.Glyphs.lastChange = "2019-04-25 21:50:43 +0000";
};
width = 890;
},
{
layerId = "97BB7961-D669-43AB-8BBF-11FFD0C46A4B";
shapes = (
{
closed = 1;
nodes = (
(112,130,l),
(112,0,l),
(906,0,l),
(906,130,l),
(690,154,l),
(692,1486,l),
(523,1506,l),
(521,1506,l),
(427,1426,o),
(218,1342,o),
(62,1312,c),
(92,1144,l),
(152,1150,o),
(293,1182,o),
(339,1196,c),
(339,152,l)
);
}
);
width = 954;
}
);
unicode = 49;
}
{
glyphname = five;
layers = (
{
layerId = UUID0;
shapes = (
{
closed = 1;
nodes = (
(177,-12,l),
(223,-24,o),
(273,-26,o),
(317,-26,cs),
(749,-26,o),
(1015,242,o),
(1015,532,cs),
(1015,792,o),
(853,932,o),
(609,932,cs),
(497,932,o),
(365,896,o),
(299,858,c),
(395,1344,l),
(960,1344,l),
(992,1524,l),
(876,1524,l),
(856,1486,l),
(265,1486,l),
(165,776,l),
(219,742,l),
(299,780,o),
(431,810,o),
(521,810,cs),
(733,810,o),
(837,708,o),
(837,502,cs),
(837,268,o),
(599,68,o),
(297,68,cs),
(261,68,o),
(215,70,o),
(177,74,c)
);
}
);
width = 1170;
},
{
layerId = "DEBB1CE4-A72D-4960-969E-E04A036D2FA1";
shapes = (
{
closed = 1;
nodes = (
(115,-19,l),
(161,-30,o),
(211,-33,o),
(255,-33,cs),
(725,-33,o),
(1078,183,o),
(1078,556,cs),
(1078,791,o),
(944,944,o),
(648,944,cs),
(500,944,o),
(386,872,o),
(330,844,c),
(408,1246,l),
(977,1246,l),
(1023,1524,l),
(877,1524,l),
(857,1486,l),
(196,1486,l),
(100,736,l),
(176,684,l),
(240,714,o),
(356,741,o),
(449,741,cs),
(618,741,o),
(717,678,o),
(717,496,cs),
(717,284,o),
(506,124,o),
(231,124,cs),
(195,124,o),
(153,126,o),
(115,129,c)
);
}
);
width = 1168;
},
{
guides = (
{
angle = 145.6197;
pos = (83,710);
},
{
angle = 260.404;
pos = (962,1385);
}
);
layerId = "184155C8-9F61-4F1C-9784-DDA8EA717636";
shapes = (
{
closed = 1;
nodes = (
(60,7,l),
(141,-27,o),
(299,-37,o),
(378,-34,cs),
(726,-21,o),
(1051,192,o),
(1051,549,cs),
(1051,813,o),
(886,935,o),
(636,935,cs),
(453,935,o),
(249,843,o),
(146,729,c),
(284,1192,l),
(961,1192,l),
(1006,1524,l),
(923,1524,l),
(895,1486,l),
(168,1486,l),
(67,729,l),
(140,684,l),
(228,741,o),
(328,751,o),
(428,751,cs),
(591,751,o),
(673,611,o),
(673,463,cs),
(673,214,o),
(517,62,o),
(296,53,cs),
(202,49,o),
(118,56,o),
(59,69,c)
);
}
);
width = 1113;
},
{
layerId = "EA2265BD-E890-48C4-9E90-A53076E780C5";
shapes = (
{
closed = 1;
nodes = (
(105,-18,l),
(147,-30,o),
(191,-32,o),
(230,-32,cs),
(655,-32,o),
(985,186,o),
(985,555,cs),
(985,791,o),
(865,944,o),
(598,944,cs),
(459,944,o),
(360,883,o),
(312,854,c),
(378,1250,l),
(905,1250,l),
(948,1524,l),
(813,1524,l),
(795,1486,l),
(175,1486,l),
(90,737,l),
(162,687,l),
(210,714,o),
(313,744,o),
(401,744,cs),
(545,744,o),
(633,679,o),
(633,496,cs),
(633,282,o),
(447,121,o),
(206,121,cs),
(174,121,o),
(135,124,o),
(105,126,c)
);
}
);
width = 1080;
},
{
layerId = "0E4B6E2E-ECAB-4D06-9686-B0B40AA31834";
shapes = (
{
closed = 1;
nodes = (
(161,-12,l),
(202,-24,o),
(251,-26,o),
(290,-26,cs),
(694,-26,o),
(951,242,o),
(951,532,cs),
(951,786,o),
(790,929,o),
(544,929,cs),
(419,929,o),
(348,894,o),
(288,858,c),
(370,1344,l),
(881,1344,l),
(913,1524,l),
(801,1524,l),
(783,1486,l),
(242,1486,l),
(155,776,l),
(213,742,l),
(290,783,o),
(394,817,o),
(482,817,cs),
(677,817,o),
(779,710,o),
(779,529,cs),
(779,249,o),
(546,68,o),
(273,68,cs),
(241,68,o),
(195,70,o),
(161,74,c)
);
}
);
width = 1066;
},
{
layerId = "F2B10EEF-9DDC-48CA-970D-6B8C79870881";
shapes = (
{
closed = 1;
nodes = (
(61,7,l),
(135,-27,o),
(268,-37,o),
(339,-34,cs),
(654,-21,o),
(956,185,o),
(956,542,cs),
(956,806,o),
(787,935,o),
(573,935,cs),
(405,935,o),
(232,843,o),
(139,729,c),
(256,1192,l),
(874,1192,l),
(914,1524,l),
(839,1524,l),
(814,1486,l),
(159,1486,l),
(68,729,l),
(134,684,l),
(213,741,o),
(303,751,o),
(393,751,cs),
(541,751,o),
(614,604,o),
(614,456,cs),
(614,207,o),
(464,62,o),
(266,53,cs),
(181,49,o),
(114,56,o),
(60,69,c)
);
}
);
width = 1018;
},
{
layerId = "E96AC896-F5DF-475B-BBD9-C7FEC6A86D0E";
shapes = (
{
closed = 1;
nodes = (
(98,-13,l),
(140,-24,o),
(187,-26,o),
(224,-26,cs),
(673,-26,o),
(893,278,o),
(893,543,cs),
(893,748,o),
(790,930,o),
(518,930,cs),
(383,930,o),
(237,865,o),
(138,765,c),
(277,1351,l),
(845,1351,l),
(872,1519,l),
(793,1519,l),
(774,1486,l),
(180,1486,l),
(94,767,l),
(143,732,l),
(224,778,o),
(333,835,o),
(459,835,cs),
(635,835,o),
(741,706,o),
(741,513,cs),
(741,214,o),
(495,40,o),
(199,40,cs),
(161,40,o),
(125,43,o),
(96,48,c)
);
}
);
width = 955;
},
{
guides = (
{
angle = 261.9829;
pos = (165,776);
},
{
angle = 78.6085;
pos = (308,1050);
},
{
angle = 244.6538;
pos = (791,1505);
},
{
pos = (269,40);
},
{
angle = 90;
pos = (943,546);
},
{
angle = 90;
pos = (775,514);
}
);
layerId = "C9B9556E-C2FD-4F62-BB40-44923C452C22";
shapes = (
{
closed = 1;
nodes = (
(94,-13,l),
(139,-24,o),
(189,-26,o),
(228,-26,cs),
(706,-26,o),
(950,278,o),
(950,543,c),
(950,748,o),
(834,930,o),
(547,930,cs),
(403,930,o),
(242,865,o),
(137,765,c),
(285,1352,l),
(893,1352,l),
(922,1519,l),
(836,1519,l),
(816,1486,l),
(182,1486,l),
(90,767,l),
(142,732,l),
(228,778,o),
(334,834,o),
(470,834,cs),
(679,834,o),
(778,706,o),
(778,513,c),
(778,214,o),
(517,40,o),
(202,40,cs),
(162,40,o),
(123,43,o),
(92,48,c)
);
}
);
width = 1032;
},
{
layerId = "AFA1064D-EFC9-4C9F-B9B0-9118E41D87C4";
shapes = (
{
closed = 1;
nodes = (
(60,7,l),
(148,-27,o),
(320,-37,o),
(406,-34,cs),
(786,-21,o),
(1139,192,o),
(1139,539,cs),
(1139,813,o),
(970,935,o),
(675,935,cs),
(508,935,o),
(265,843,o),
(154,729,c),
(281,1192,l),
(1041,1192,l),
(1091,1524,l),
(1000,1524,l),
(970,1486,l),
(176,1486,l),
(66,729,l),
(147,684,l),
(242,741,o),
(351,751,o),
(460,751,cs),
(639,751,o),
(725,611,o),
(725,453,cs),
(725,214,o),
(557,62,o),
(317,53,cs),
(214,49,o),
(122,56,o),
(59,69,c)
);
}
);
width = 1201;
},
{
layerId = "2103F1D3-C390-4F79-A87D-298F85EA6916";
shapes = (
{
closed = 1;
nodes = (
(104,-13,l),
(152,-24,o),
(206,-26,o),
(248,-26,cs),
(759,-26,o),
(1000,278,o),
(1000,543,c),
(1000,748,o),
(882,930,o),
(589,930,cs),
(435,930,o),
(263,865,o),
(150,765,c),
(309,1350,l),
(958,1350,l),
(989,1519,l),
(908,1519,l),
(886,1486,l),
(198,1486,l),
(100,767,l),
(156,732,l),
(248,778,o),
(356,830,o),
(499,830,cs),
(723,830,o),
(836,706,o),
(836,513,c),
(836,214,o),
(557,40,o),
(220,40,cs),
(177,40,o),
(135,43,o),
(102,48,c)
);
}
);
width = 1072;
},
{
layerId = "779F1615-9D1A-4778-9767-9A030AA58B6C";
shapes = (
{
closed = 1;
nodes = (
(122,-12,l),
(171,-24,o),
(226,-26,o),
(273,-26,cs),
(741,-26,o),
(1024,242,o),
(1024,532,cs),
(1024,792,o),
(863,932,o),
(589,932,cs),
(468,932,o),
(325,896,o),
(254,858,c),
(358,1344,l),
(954,1344,l),
(986,1524,l),
(870,1524,l),
(850,1486,l),
(228,1486,l),
(120,776,l),
(177,742,l),
(264,780,o),
(416,825,o),
(513,825,cs),
(742,825,o),
(851,723,o),
(851,517,cs),
(851,283,o),
(608,68,o),
(251,68,cs),
(213,68,o),
(163,70,o),
(122,74,c)
);
}
);
userData = {
com.schriftgestaltung.Glyphs.lastChange = "2019-04-25 21:50:43 +0000";
};
width = 1134;
},
{
layerId = "97BB7961-D669-43AB-8BBF-11FFD0C46A4B";
shapes = (
{
closed = 1;
nodes = (
(127,-19,l),
(173,-30,o),
(258,-33,o),
(302,-33,cs),
(772,-33,o),
(1185,183,o),
(1185,556,cs),
(1185,791,o),
(1025,944,o),
(729,944,cs),
(571,944,o),
(414,892,o),
(358,864,c),
(436,1246,l),
(1086,1246,l),
(1132,1524,l),
(976,1524,l),
(956,1486,l),
(208,1486,l),
(112,736,l),
(196,684,l),
(268,718,o),
(410,751,o),
(516,751,cs),
(689,751,o),
(795,685,o),
(795,524,cs),
(795,279,o),
(547,124,o),
(278,124,cs),
(242,124,o),
(165,126,o),
(127,129,c)
);
}
);
width = 1268;
}
);
unicode = 53;
userData = {
KernOnSpecialSpacing = {
L = "spaced-off";
R = "spaced-off";
};
};
}
{
glyphname = semicolon;
layers = (
{
background = {
shapes = (
{
ref = colon;
}
);
};
layerId = UUID0;
shapes = (
{
closed = 1;
nodes = (
(297,800,o),
(359,854,o),
(359,932,cs),
(359,990,o),
(327,1044,o),
(251,1044,cs),
(185,1044,o),
(121,988,o),
(121,912,cs),
(121,844,o),
(171,800,o),
(231,800,cs)
);
},
{
closed = 1;
nodes = (
(127,-453,l),
(220,-399,o),
(360,-177,o),
(360,18,cs),
(360,154,o),
(312,222,o),
(237,222,cs),
(229,222,ls),
(169,222,o),
(115,162,o),
(115,90,cs),
(115,2,o),
(204,1,o),
(204,-100,cs),
(204,-220,o),
(133,-342,o),
(68,-397,c),
(68,-414,l),
(125,-453,l)
);
}
);
width = 482;
},
{
background = {
shapes = (
{
pos = (16,0);
ref = colon;
}
);
};
layerId = "DEBB1CE4-A72D-4960-969E-E04A036D2FA1";
shapes = (
{
closed = 1;
nodes = (
(404,763,o),
(484,829,o),
(484,944,cs),
(484,1030,o),
(419,1112,o),
(308,1112,cs),
(198,1112,o),
(107,1038,o),
(107,930,cs),
(107,832,o),
(186,763,o),
(284,763,cs)
);
},
{
closed = 1;
nodes = (
(193,-499,l),
(253,-469,o),
(487,-284,o),
(487,101,cs),
(487,257,o),
(378,333,o),
(292,333,cs),
(281,333,ls),
(188,333,o),
(111,262,o),
(111,168,cs),
(111,-4,o),
(249,48,o),
(249,-65,cs),
(249,-213,o),
(158,-360,o),
(94,-410,c),
(94,-434,l),
(191,-499,l)
);
}
);
width = 593;
},
{
background = {
shapes = (
{
ref = colon;
}
);
};
layerId = "184155C8-9F61-4F1C-9784-DDA8EA717636";
shapes = (
{
closed = 1;
nodes = (
(334,666,o),
(408,726,o),
(408,831,cs),
(408,909,o),
(353,983,o),
(252,983,cs),
(152,983,o),
(73,916,o),
(73,818,cs),
(73,729,o),
(144,666,o),
(224,666,cs)
);
},
{
closed = 1;
nodes = (
(123,-444,ls),
(270,-363,o),
(412,-173,o),
(412,50,cs),
(412,192,o),
(331,301,o),
(227,301,cs),
(216,301,ls),
(122,301,o),
(63,237,o),
(63,161,cs),
(63,-3,o),
(236,20,o),
(236,-101,cs),
(236,-214,o),
(178,-325,o),
(89,-416,c),
(89,-424,l),
(121,-445,l)
);
}
);
width = 488;
},
{
background = {
shapes = (
{
ref = colon;
}
);
};
layerId = "EA2265BD-E890-48C4-9E90-A53076E780C5";
shapes = (
{
closed = 1;
nodes = (
(372,763,o),
(458,829,o),
(458,944,cs),
(458,1030,o),
(393,1112,o),
(302,1112,cs),
(212,1112,o),
(121,1038,o),
(121,930,cs),
(121,832,o),
(204,763,o),
(272,763,cs)
);
},
{
closed = 1;
nodes = (
(202,-499,l),
(311,-444,o),
(479,-206,o),
(479,57,cs),
(479,213,o),
(387,333,o),
(283,333,cs),
(271,333,ls),
(173,333,o),
(103,273,o),
(103,179,cs),
(103,29,o),
(223,29,o),
(223,-74,cs),
(223,-195,o),
(168,-346,o),
(103,-401,c),
(103,-434,l),
(200,-499,l)
);
}
);
width = 620;
},
{
background = {
shapes = (
{
ref = colon;
}
);
};
layerId = "0E4B6E2E-ECAB-4D06-9686-B0B40AA31834";
shapes = (
{
closed = 1;
nodes = (
(300,800,o),
(362,854,o),
(362,932,cs),
(362,990,o),
(330,1044,o),
(256,1044,cs),
(192,1044,o),
(128,988,o),
(128,912,cs),
(128,844,o),
(178,800,o),
(236,800,cs)
);
},
{
closed = 1;
nodes = (
(125,-429,l),
(212,-373,o),
(344,-194,o),
(344,47,cs),
(344,168,o),
(305,222,o),
(231,222,cs),
(226,222,ls),
(165,222,o),
(106,173,o),
(106,90,cs),
(106,-15,o),
(185,-15,o),
(186,-90,cs),
(187,-271,o),
(117,-324,o),
(66,-373,c),
(66,-390,l),
(123,-429,l)
);
}
);
width = 490;
},
{
background = {
shapes = (
{
ref = colon;
}
);
};
layerId = "F2B10EEF-9DDC-48CA-970D-6B8C79870881";
shapes = (
{
closed = 1;
nodes = (
(298,666,o),
(363,726,o),
(363,831,cs),
(363,909,o),
(314,983,o),
(225,983,cs),
(136,983,o),
(66,916,o),
(66,818,cs),
(66,729,o),
(129,666,o),
(200,666,cs)
);
},
{
closed = 1;
nodes = (
(104,-426,ls),
(230,-343,o),
(365,-156,o),
(365,65,cs),
(365,212,o),
(295,319,o),
(199,319,cs),
(190,319,ls),
(113,319,o),
(65,262,o),
(65,181,cs),
(65,42,o),
(213,22,o),
(213,-89,cs),
(213,-195,o),
(144,-306,o),
(70,-397,c),
(70,-405,l),
(102,-427,l)
);
}
);
width = 433;
},
{
background = {
shapes = (
{
ref = colon;
}
);
};
layerId = "E96AC896-F5DF-475B-BBD9-C7FEC6A86D0E";
shapes = (
{
closed = 1;
nodes = (
(201,725,o),
(244,759,o),
(244,832,cs),
(244,879,o),
(221,923,o),
(169,923,cs),
(122,923,o),
(78,887,o),
(78,816,cs),
(78,761,o),
(113,725,o),
(155,725,cs)
);
},
{
closed = 1;
nodes = (
(70,-382,l),
(167,-323,o),
(248,-130,o),
(248,11,cs),
(248,132,o),
(205,176,o),
(152,176,cs),
(146,176,ls),
(107,176,o),
(65,141,o),
(65,89,cs),
(65,-6,o),
(142,-12,o),
(142,-111,cs),
(142,-209,o),
(102,-300,o),
(44,-355,c),
(44,-363,l),
(69,-382,l)
);
}
);
width = 330;
},
{
background = {
shapes = (
{
ref = colon;
}
);
};
layerId = "C9B9556E-C2FD-4F62-BB40-44923C452C22";
shapes = (
{
closed = 1;
nodes = (
(226,725,o),
(276,769,o),
(276,832,cs),
(276,879,o),
(250,923,o),
(189,923,cs),
(135,923,o),
(84,877,o),
(84,816,cs),
(84,761,o),
(124,725,o),
(173,725,cs)
);
},
{
closed = 1;
nodes = (
(81,-382,l),
(186,-323,o),
(274,-130,o),
(274,11,cs),
(274,132,o),
(227,176,o),
(169,176,cs),
(163,176,ls),
(121,176,o),
(75,141,o),
(75,89,cs),
(75,-6,o),
(159,-12,o),
(159,-111,cs),
(159,-209,o),
(115,-300,o),
(52,-355,c),
(52,-363,l),
(80,-382,l)
);
}
);
width = 364;
},
{
background = {
shapes = (
{
ref = colon;
}
);
};
layerId = "AFA1064D-EFC9-4C9F-B9B0-9118E41D87C4";
shapes = (
{
closed = 1;
nodes = (
(352,666,o),
(431,726,o),
(431,831,cs),
(431,909,o),
(373,983,o),
(269,983,cs),
(166,983,o),
(82,916,o),
(82,818,cs),
(82,729,o),
(157,666,o),
(238,666,cs)
);
},
{
closed = 1;
nodes = (
(119,-426,ls),
(271,-345,o),
(426,-183,o),
(426,53,cs),
(426,195,o),
(366,301,o),
(246,301,cs),
(234,301,ls),
(137,301,o),
(83,241,o),
(83,161,cs),
(83,22,o),
(224,32,o),
(224,-97,cs),
(224,-207,o),
(178,-306,o),
(85,-397,c),
(85,-405,l),
(117,-427,l)
);
}
);
width = 513;
},
{
background = {
shapes = (
{
ref = colon;
}
);
};
layerId = "2103F1D3-C390-4F79-A87D-298F85EA6916";
shapes = (
{
closed = 1;
nodes = (
(259,725,o),
(301,769,o),
(301,832,cs),
(301,879,o),
(285,923,o),
(213,923,cs),
(149,923,o),
(105,877,o),
(105,816,cs),
(105,761,o),
(136,725,o),
(195,725,cs)
);
},
{
closed = 1;
nodes = (
(96,-382,l),
(201,-323,o),
(302,-131,o),
(302,11,cs),
(302,132,o),
(268,176,o),
(200,176,cs),
(194,176,ls),
(152,176,o),
(90,146,o),
(90,74,cs),
(90,-21,o),
(174,-12,o),
(174,-93,cs),
(174,-209,o),
(130,-300,o),
(67,-355,c),
(67,-363,l),
(95,-382,l)
);
}
);
width = 408;
},
{
background = {
shapes = (
{
ref = colon;
}
);
};
layerId = "779F1615-9D1A-4778-9767-9A030AA58B6C";
shapes = (
{
closed = 1;
nodes = (
(296,800,o),
(358,854,o),
(358,932,cs),
(358,990,o),
(326,1044,o),
(250,1044,cs),
(184,1044,o),
(120,988,o),
(120,912,cs),
(120,844,o),
(170,800,o),
(230,800,cs)
);
},
{
closed = 1;
nodes = (
(125,-453,l),
(218,-399,o),
(358,-177,o),
(358,18,cs),
(358,154,o),
(310,222,o),
(235,222,cs),
(227,222,ls),
(167,222,o),
(113,162,o),
(113,90,cs),
(113,2,o),
(202,1,o),
(202,-100,cs),
(202,-220,o),
(131,-342,o),
(66,-397,c),
(66,-414,l),
(123,-453,l)
);
}
);
userData = {
com.schriftgestaltung.Glyphs.lastChange = "2019-04-25 21:50:43 +0000";
};
width = 478;
},
{
background = {
shapes = (
{
ref = colon;
}
);
};
layerId = "97BB7961-D669-43AB-8BBF-11FFD0C46A4B";
shapes = (
{
closed = 1;
nodes = (
(412,763,o),
(497,829,o),
(497,944,cs),
(497,1030,o),
(433,1112,o),
(321,1112,cs),
(211,1112,o),
(120,1038,o),
(120,929,cs),
(120,832,o),
(203,763,o),
(291,763,cs)
);
},
{
closed = 1;
nodes = (
(222,-499,l),
(331,-444,o),
(499,-206,o),
(499,57,cs),
(499,213,o),
(407,333,o),
(303,333,cs),
(291,333,ls),
(183,333,o),
(113,273,o),
(113,179,cs),
(113,29,o),
(243,29,o),
(243,-74,cs),
(243,-195,o),
(188,-346,o),
(123,-401,c),
(123,-434,l),
(220,-499,l)
);
}
);
width = 620;
}
);
metricRight = colon;
metricWidth = colon;
unicode = 59;
userData = {
KernOnName = semicolon;
KernOnSpecialSpacing = {
L = "spaced-off";
R = "spaced-off";
};
};
}
{
color = 4;
glyphname = H;
kernLeft = H;
kernRight = H;
lastChange = "2023-11-26 19:42:35 +0000";
layers = (
{
anchors = (
{
name = bottom;
pos = (791,0);
},
{
name = center;
pos = (791,743);
},
{
name = top;
pos = (791,1486);
},
{
name = topleft;
pos = (20,1486);
}
);
layerId = UUID0;
shapes = (
{
closed = 1;
nodes = (
(79,86,l),
(79,0,l),
(585,0,l),
(585,86,l),
(409,104,l),
(409,710,l),
(1173,710,l),
(1173,104,l),
(1000,86,l),
(1000,0,l),
(1503,0,l),
(1503,86,l),
(1337,104,l),
(1337,1378,l),
(1498,1400,l),
(1498,1486,l),
(1002,1486,l),
(1002,1400,l),
(1173,1378,l),
(1173,816,l),
(409,816,l),
(409,1378,l),
(583,1400,l),
(583,1486,l),
(84,1486,l),
(84,1400,l),
(245,1378,l),
(245,104,l)
);
}
);
width = 1582;
},
{
.lastUpdate = 722720501.777;
anchors = (
{
name = bottom;
pos = (839,0);
},
{
name = center;
pos = (839,743);
},
{
name = top;
pos = (839,1486);
},
{
name = topleft;
pos = (20,1486);
}
);
layerId = "DEBB1CE4-A72D-4960-969E-E04A036D2FA1";
shapes = (
{
closed = 1;
nodes = (
(79,132,l),
(79,0,l),
(737,0,l),
(737,132,l),
(565,153,l),
(565,672,l),
(1113,672,l),
(1113,154,l),
(959,132,l),
(959,0,l),
(1598,0,l),
(1598,132,l),
(1454,153,l),
(1454,1320,l),
(1596,1347,l),
(1596,1486,l),
(949,1486,l),
(949,1347,l),
(1113,1319,l),
(1113,841,l),
(565,841,l),
(565,1320,l),
(726,1347,l),
(726,1486,l),
(80,1486,l),
(80,1347,l),
(223,1320,l),
(223,153,l)
);
}
);
width = 1677;
},
{
anchors = (
{
name = bottom;
pos = (759,0);
},
{
name = center;
pos = (759,743);
},
{
name = top;
pos = (759,1486);
},
{
name = topleft;
pos = (20,1486);
}
);
layerId = "184155C8-9F61-4F1C-9784-DDA8EA717636";
shapes = (
{
closed = 1;
nodes = (
(18,38,l),
(18,0,l),
(679,0,l),
(679,38,l),
(535,72,l),
(535,732,l),
(983,732,l),
(983,72,l),
(841,38,l),
(841,0,l),
(1500,0,l),
(1500,38,l),
(1366,72,l),
(1366,1412,l),
(1498,1450,l),
(1498,1486,l),
(841,1486,l),
(841,1450,l),
(983,1412,l),
(983,798,l),
(535,798,l),
(535,1412,l),
(678,1450,l),
(678,1486,l),
(19,1486,l),
(19,1450,l),
(152,1412,l),
(152,72,l)
);
}
);
width = 1518;
},
{
.lastUpdate = 722720523.709;
anchors = (
{
name = bottom;
pos = (715,0);
},
{
name = center;
pos = (715,743);
},
{
name = top;
pos = (715,1486);
},
{
name = topleft;
pos = (20,1486);
}
);
layerId = "EA2265BD-E890-48C4-9E90-A53076E780C5";
shapes = (
{
closed = 1;
nodes = (
(50,131,l),
(50,0,l),
(636,0,l),
(636,131,l),
(496,152,l),
(496,673,l),
(933,673,l),
(933,153,l),
(806,131,l),
(806,0,l),
(1379,0,l),
(1379,131,l),
(1261,152,l),
(1261,1322,l),
(1379,1348,l),
(1379,1486,l),
(803,1486,l),
(803,1348,l),
(933,1321,l),
(933,840,l),
(496,840,l),
(496,1322,l),
(633,1348,l),
(633,1486,l),
(51,1486,l),
(51,1348,l),
(168,1322,l),
(168,152,l)
);
}
);
width = 1429;
},
{
.lastUpdate = 722720517.051;
anchors = (
{
name = bottom;
pos = (675,0);
},
{
name = center;
pos = (675,743);
},
{
name = top;
pos = (675,1486);
},
{
name = topleft;
pos = (20,1486);
}
);
layerId = "0E4B6E2E-ECAB-4D06-9686-B0B40AA31834";
shapes = (
{
closed = 1;
nodes = (
(58,85,l),
(58,0,l),
(521,0,l),
(521,85,l),
(359,103,l),
(359,711,l),
(991,711,l),
(991,103,l),
(844,85,l),
(844,0,l),
(1292,0,l),
(1292,85,l),
(1152,103,l),
(1152,1378,l),
(1286,1401,l),
(1286,1486,l),
(836,1486,l),
(836,1401,l),
(991,1378,l),
(991,815,l),
(359,815,l),
(359,1378,l),
(509,1401,l),
(509,1486,l),
(60,1486,l),
(60,1401,l),
(198,1378,l),
(198,103,l)
);
}
);
width = 1350;
},
{
.lastUpdate = 722720534.597;
anchors = (
{
name = bottom;
pos = (676,0);
},
{
name = center;
pos = (676,743);
},
{
name = top;
pos = (676,1486);
},
{
name = topleft;
pos = (20,1486);
}
);
layerId = "F2B10EEF-9DDC-48CA-970D-6B8C79870881";
shapes = (
{
closed = 1;
nodes = (
(40,37,l),
(40,0,l),
(626,0,l),
(626,37,l),
(503,72,l),
(503,734,l),
(848,734,l),
(848,72,l),
(726,37,l),
(726,0,l),
(1311,0,l),
(1311,37,l),
(1198,72,l),
(1198,1412,l),
(1310,1450,l),
(1310,1486,l),
(724,1486,l),
(724,1450,l),
(848,1412,l),
(848,800,l),
(503,800,l),
(503,1412,l),
(626,1450,l),
(626,1486,l),
(41,1486,l),
(41,1450,l),
(153,1412,l),
(153,72,l)
);
}
);
width = 1351;
},
{
.lastUpdate = 722720528.163;
anchors = (
{
name = bottom;
pos = (620,0);
},
{
name = center;
pos = (620,743);
},
{
name = top;
pos = (620,1486);
},
{
name = topleft;
pos = (20,1486);
}
);
layerId = "E96AC896-F5DF-475B-BBD9-C7FEC6A86D0E";
shapes = (
{
closed = 1;
nodes = (
(36,36,l),
(36,0,l),
(460,0,l),
(460,36,l),
(313,67,l),
(313,734,l),
(928,734,l),
(928,67,l),
(792,37,l),
(792,0,l),
(1204,0,l),
(1204,37,l),
(1080,67,l),
(1080,1420,l),
(1203,1450,l),
(1203,1486,l),
(782,1486,l),
(782,1450,l),
(928,1420,l),
(928,796,l),
(313,796,l),
(313,1420,l),
(450,1450,l),
(450,1486,l),
(37,1486,l),
(37,1450,l),
(161,1420,l),
(161,67,l)
);
}
);
width = 1240;
},
{
.lastUpdate = 722720506.487;
anchors = (
{
name = bottom;
pos = (690,0);
},
{
name = center;
pos = (690,743);
},
{
name = top;
pos = (690,1486);
},
{
name = topleft;
pos = (20,1486);
}
);
layerId = "C9B9556E-C2FD-4F62-BB40-44923C452C22";
shapes = (
{
closed = 1;
nodes = (
(24,36,l),
(24,0,l),
(476,0,l),
(476,36,l),
(321,67,l),
(321,732,l),
(1058,732,l),
(1058,67,l),
(913,36,l),
(913,0,l),
(1355,0,l),
(1355,36,l),
(1214,67,l),
(1214,1420,l),
(1354,1450,l),
(1354,1486,l),
(903,1486,l),
(903,1450,l),
(1058,1420,l),
(1058,794,l),
(321,794,l),
(321,1420,l),
(466,1450,l),
(466,1486,l),
(25,1486,l),
(25,1450,l),
(165,1420,l),
(165,67,l)
);
}
);
width = 1379;
},
{
.lastUpdate = 722720555.732;
anchors = (
{
name = bottom;
pos = (811,0);
},
{
name = center;
pos = (811,743);
},
{
name = top;
pos = (811,1486);
},
{
name = topleft;
pos = (20,1486);
}
);
layerId = "AFA1064D-EFC9-4C9F-B9B0-9118E41D87C4";
shapes = (
{
closed = 1;
nodes = (
(20,37,l),
(20,0,l),
(696,0,l),
(696,37,l),
(554,72,l),
(554,732,l),
(1068,732,l),
(1068,72,l),
(938,37,l),
(938,0,l),
(1602,0,l),
(1602,37,l),
(1472,72,l),
(1472,1412,l),
(1600,1450,l),
(1600,1486,l),
(935,1486,l),
(935,1450,l),
(1068,1411,l),
(1068,798,l),
(554,798,l),
(554,1412,l),
(685,1450,l),
(685,1486,l),
(21,1486,l),
(21,1450,l),
(150,1412,l),
(150,72,l)
);
}
);
width = 1622;
},
{
.lastUpdate = 722720550.993;
anchors = (
{
name = bottom;
pos = (742,0);
},
{
name = center;
pos = (742,743);
},
{
name = top;
pos = (742,1486);
},
{
name = topleft;
pos = (20,1486);
}
);
background = {
shapes = (
{
closed = 1;
nodes = (
(1319,1420,l),
(1459,1450,l),
(1459,1486,l),
(997,1486,l),
(997,1450,l),
(1159,1420,l),
(1159,794,l),
(325,794,l),
(325,1420,l),
(484,1450,l),
(484,1486,l),
(25,1486,l),
(25,1450,l),
(165,1420,l),
(165,67,l),
(25,36,l),
(25,0,l),
(484,0,l),
(484,36,l),
(325,67,l),
(325,732,l),
(1159,732,l),
(1159,67,l),
(997,36,l),
(997,0,l),
(1459,0,l),
(1459,36,l),
(1319,67,l)
);
}
);
};
layerId = "2103F1D3-C390-4F79-A87D-298F85EA6916";
shapes = (
{
closed = 1;
nodes = (
(25,36,l),
(25,0,l),
(497,0,l),
(497,36,l),
(325,67,l),
(325,732,l),
(1159,732,l),
(1159,67,l),
(997,36,l),
(997,0,l),
(1459,0,l),
(1459,36,l),
(1319,67,l),
(1319,1420,l),
(1459,1450,l),
(1459,1486,l),
(987,1486,l),
(987,1450,l),
(1159,1420,l),
(1159,794,l),
(325,794,l),
(325,1420,l),
(487,1450,l),
(487,1486,l),
(25,1486,l),
(25,1450,l),
(165,1420,l),
(165,67,l)
);
}
);
width = 1484;
},
{
.lastUpdate = 722720539.323;
anchors = (
{
name = bottom;
pos = (833,0);
},
{
name = center;
pos = (833,743);
},
{
name = top;
pos = (833,1486);
},
{
name = topleft;
pos = (20,1486);
}
);
layerId = "779F1615-9D1A-4778-9767-9A030AA58B6C";
shapes = (
{
closed = 1;
nodes = (
(69,86,l),
(69,0,l),
(587,0,l),
(587,86,l),
(398,104,l),
(398,710,l),
(1268,710,l),
(1268,104,l),
(1089,86,l),
(1089,0,l),
(1597,0,l),
(1597,86,l),
(1434,104,l),
(1434,1378,l),
(1589,1400,l),
(1589,1486,l),
(1079,1486,l),
(1079,1400,l),
(1268,1378,l),
(1268,816,l),
(398,816,l),
(398,1378,l),
(577,1400,l),
(577,1486,l),
(75,1486,l),
(75,1400,l),
(232,1378,l),
(232,104,l)
);
}
);
userData = {
com.schriftgestaltung.Glyphs.lastChange = "2019-04-25 21:50:43 +0000";
};
width = 1666;
},
{
.lastUpdate = 722720546.11;
anchors = (
{
name = bottom;
pos = (902,0);
},
{
name = center;
pos = (902,743);
},
{
name = top;
pos = (902,1486);
},
{
name = topleft;
pos = (20,1486);
}
);
layerId = "97BB7961-D669-43AB-8BBF-11FFD0C46A4B";
shapes = (
{
closed = 1;
nodes = (
(78,132,l),
(78,0,l),
(758,0,l),
(758,132,l),
(584,153,l),
(584,672,l),
(1220,672,l),
(1220,154,l),
(1062,132,l),
(1062,0,l),
(1726,0,l),
(1726,132,l),
(1579,153,l),
(1579,1320,l),
(1724,1347,l),
(1724,1486,l),
(1057,1486,l),
(1057,1347,l),
(1220,1319,l),
(1220,841,l),
(584,841,l),
(584,1320,l),
(754,1347,l),
(754,1486,l),
(79,1486,l),
(79,1347,l),
(225,1320,l),
(225,153,l)
);
}
);
width = 1804;
}
);
unicode = 72;
}
{
color = 4;
glyphname = M;
layers = (
{
anchors = (
{
name = bottom;
pos = (973,0);
},
{
name = bottomright;
pos = (1930,0);
},
{
name = top;
pos = (973,1486);
}
);
layerId = UUID0;
shapes = (
{
closed = 1;
nodes = (
(16,86,l),
(16,0,l),
(516,0,l),
(516,86,l),
(320,104,l),
(415,1016,l),
(458,1416,l),
(576,1028,l),
(910,72,l),
(994,72,l),
(1351,1140,l),
(1439,1416,l),
(1479,1016,l),
(1578,104,l),
(1392,86,l),
(1392,0,l),
(1930,0,l),
(1930,86,l),
(1748,106,l),
(1587,1378,l),
(1817,1400,l),
(1817,1486,l),
(1339,1486,l),
(1038,562,l),
(970,294,l),
(896,562,l),
(594,1486,l),
(112,1486,l),
(112,1400,l),
(346,1378,l),
(186,104,l)
);
}
);
width = 1946;
},
{
anchors = (
{
name = bottom;
pos = (1034,0);
},
{
name = bottomright;
pos = (2063,0);
},
{
name = top;
pos = (1034,1486);
}
);
layerId = "DEBB1CE4-A72D-4960-969E-E04A036D2FA1";
shapes = (
{
closed = 1;
nodes = (
(4,132,l),
(4,0,l),
(569,0,l),
(569,132,l),
(371,154,l),
(460,1016,l),
(496,1370,l),
(580,1021,l),
(845,57,l),
(1107,57,l),
(1375,1048,l),
(1445,1369,l),
(1480,1016,l),
(1559,154,l),
(1389,132,l),
(1389,0,l),
(2063,0,l),
(2063,132,l),
(1909,155,l),
(1750,1319,l),
(1971,1347,l),
(1971,1486,l),
(1296,1486,l),
(1083,649,l),
(1041,428,l),
(995,649,l),
(805,1486,l),
(108,1486,l),
(108,1347,l),
(325,1319,l),
(163,153,l)
);
}
);
width = 2067;
},
{
anchors = (
{
name = bottom;
pos = (970,0);
},
{
name = bottomright;
pos = (1976,0);
},
{
name = top;
pos = (980,1486);
}
);
layerId = "184155C8-9F61-4F1C-9784-DDA8EA717636";
shapes = (
{
closed = 1;
nodes = (
(-35,36,l),
(-35,0,l),
(418,0,l),
(418,36,l),
(230,71,l),
(335,1046,l),
(368,1360,l),
(445,1047,l),
(671,57,l),
(1014,57,l),
(1205,1046,l),
(1269,1360,l),
(1307,1044,l),
(1405,72,l),
(1259,38,l),
(1259,0,l),
(1956,0,l),
(1956,36,l),
(1812,72,l),
(1654,1413,l),
(1814,1451,l),
(1814,1486,l),
(1220,1486,l),
(1029,520,l),
(987,282,l),
(945,516,l),
(740,1486,l),
(150,1486,l),
(150,1451,l),
(305,1413,l),
(122,71,l)
);
}
);
width = 1921;
},
{
anchors = (
{
name = bottom;
pos = (909,0);
},
{
name = bottomright;
pos = (1805,0);
},
{
name = top;
pos = (909,1486);
}
);
layerId = "EA2265BD-E890-48C4-9E90-A53076E780C5";
shapes = (
{
closed = 1;
nodes = (
(12,132,l),
(12,0,l),
(503,0,l),
(503,132,l),
(336,154,l),
(393,1016,l),
(425,1370,l),
(479,1021,l),
(704,57,l),
(962,57,l),
(1196,1048,l),
(1256,1369,l),
(1277,1016,l),
(1330,154,l),
(1182,132,l),
(1182,0,l),
(1805,0,l),
(1805,132,l),
(1671,155,l),
(1548,1319,l),
(1740,1347,l),
(1740,1486,l),
(1125,1486,l),
(955,669,l),
(924,478,l),
(885,669,l),
(728,1486,l),
(88,1486,l),
(88,1347,l),
(276,1319,l),
(146,153,l)
);
}
);
width = 1817;
},
{
anchors = (
{
name = bottom;
pos = (890,0);
},
{
name = bottomright;
pos = (1744,0);
},
{
name = top;
pos = (890,1486);
}
);
layerId = "0E4B6E2E-ECAB-4D06-9686-B0B40AA31834";
shapes = (
{
closed = 1;
nodes = (
(16,86,l),
(16,0,l),
(506,0,l),
(506,86,l),
(314,104,l),
(413,1016,l),
(455,1416,l),
(566,1028,l),
(811,72,l),
(898,72,l),
(1207,1140,l),
(1280,1416,l),
(1320,1016,l),
(1398,104,l),
(1217,86,l),
(1217,0,l),
(1744,0,l),
(1744,86,l),
(1566,106,l),
(1425,1378,l),
(1646,1400,l),
(1646,1486,l),
(1182,1486,l),
(941,582,l),
(879,318,l),
(823,562,l),
(597,1486,l),
(110,1486,l),
(110,1400,l),
(345,1378,l),
(183,104,l)
);
}
);
width = 1760;
},
{
anchors = (
{
name = bottom;
pos = (843,0);
},
{
name = bottomright;
pos = (1682,0);
},
{
name = top;
pos = (843,1486);
}
);
layerId = "F2B10EEF-9DDC-48CA-970D-6B8C79870881";
shapes = (
{
closed = 1;
nodes = (
(-7,36,l),
(-7,0,l),
(384,0,l),
(384,36,l),
(235,71,l),
(300,1046,l),
(329,1360,l),
(397,1047,l),
(585,57,l),
(882,57,l),
(1053,1046,l),
(1103,1360,l),
(1129,1044,l),
(1182,72,l),
(1053,38,l),
(1053,0,l),
(1662,0,l),
(1662,36,l),
(1526,72,l),
(1433,1413,l),
(1593,1451,l),
(1593,1486,l),
(1049,1486,l),
(895,520,l),
(858,282,l),
(821,516,l),
(652,1486,l),
(108,1486,l),
(108,1451,l),
(275,1413,l),
(140,71,l)
);
}
);
width = 1655;
},
{
anchors = (
{
name = bottom;
pos = (754,0);
},
{
name = bottomright;
pos = (1590,0);
},
{
name = top;
pos = (784,1486);
}
);
layerId = "E96AC896-F5DF-475B-BBD9-C7FEC6A86D0E";
shapes = (
{
closed = 1;
nodes = (
(-20,36,l),
(-20,0,l),
(390,0,l),
(390,36,l),
(224,60,l),
(326,1016,l),
(358,1419,l),
(448,1016,l),
(678,72,l),
(804,72,l),
(1061,1040,l),
(1166,1419,l),
(1201,1016,l),
(1272,60,l),
(1110,36,l),
(1110,0,l),
(1587,0,l),
(1587,36,l),
(1437,62,l),
(1292,1416,l),
(1432,1451,l),
(1432,1486,l),
(1094,1486,l),
(866,562,l),
(784,196,l),
(695,562,l),
(494,1486,l),
(134,1486,l),
(134,1451,l),
(290,1416,l),
(124,60,l)
);
}
);
width = 1567;
},
{
anchors = (
{
name = bottom;
pos = (870,0);
},
{
name = bottomright;
pos = (1765,0);
},
{
name = top;
pos = (870,1486);
}
);
layerId = "C9B9556E-C2FD-4F62-BB40-44923C452C22";
shapes = (
{
closed = 1;
nodes = (
(-25,36,l),
(-25,0,l),
(410,0,l),
(410,36,l),
(234,60,l),
(335,1016,l),
(378,1419,l),
(484,1016,l),
(766,72,l),
(896,72,l),
(1167,1040,l),
(1281,1419,l),
(1318,1016,l),
(1439,60,l),
(1265,36,l),
(1265,0,l),
(1765,0,l),
(1765,36,l),
(1606,62,l),
(1415,1416,l),
(1605,1451,l),
(1605,1486,l),
(1205,1486,l),
(962,562,l),
(875,196,l),
(783,562,l),
(524,1486,l),
(140,1486,l),
(140,1451,l),
(305,1416,l),
(127,60,l)
);
}
);
width = 1740;
},
{
anchors = (
{
name = bottom;
pos = (986,0);
},
{
name = bottomright;
pos = (2026,0);
},
{
name = top;
pos = (986,1486);
}
);
layerId = "AFA1064D-EFC9-4C9F-B9B0-9118E41D87C4";
shapes = (
{
closed = 1;
nodes = (
(-65,36,l),
(-65,0,l),
(400,0,l),
(400,36,l),
(212,71,l),
(328,1046,l),
(363,1360,l),
(440,1047,l),
(675,57,l),
(1025,57,l),
(1257,1046,l),
(1324,1360,l),
(1364,1044,l),
(1456,72,l),
(1302,38,l),
(1302,0,l),
(2016,0,l),
(2016,36,l),
(1866,72,l),
(1716,1413,l),
(1885,1451,l),
(1885,1486,l),
(1273,1486,l),
(1041,520,l),
(997,282,l),
(953,516,l),
(741,1486,l),
(134,1486,l),
(134,1451,l),
(298,1413,l),
(99,71,l)
);
}
);
width = 1951;
},
{
anchors = (
{
name = bottom;
pos = (924,0);
},
{
name = bottomright;
pos = (1868,0);
},
{
name = top;
pos = (924,1486);
}
);
layerId = "2103F1D3-C390-4F79-A87D-298F85EA6916";
shapes = (
{
closed = 1;
nodes = (
(-20,36,l),
(-20,0,l),
(433,0,l),
(433,36,l),
(249,60,l),
(365,1016,l),
(413,1419,l),
(524,1016,l),
(819,72,l),
(951,72,l),
(1258,1040,l),
(1380,1419,l),
(1418,1016,l),
(1534,60,l),
(1353,36,l),
(1353,0,l),
(1868,0,l),
(1868,36,l),
(1703,62,l),
(1518,1416,l),
(1691,1451,l),
(1691,1486,l),
(1303,1486,l),
(1024,562,l),
(921,202,l),
(830,562,l),
(556,1486,l),
(155,1486,l),
(155,1451,l),
(337,1416,l),
(138,60,l)
);
}
);
width = 1848;
},
{
anchors = (
{
name = bottom;
pos = (1012,0);
},
{
name = bottomright;
pos = (2008,0);
},
{
name = top;
pos = (1012,1486);
}
);
layerId = "779F1615-9D1A-4778-9767-9A030AA58B6C";
shapes = (
{
closed = 1;
nodes = (
(16,86,l),
(16,0,l),
(547,0,l),
(547,86,l),
(339,104,l),
(451,1016,l),
(499,1416,l),
(624,1028,l),
(943,72,l),
(1032,72,l),
(1396,1140,l),
(1490,1416,l),
(1526,1016,l),
(1631,104,l),
(1434,86,l),
(1434,0,l),
(2008,0,l),
(2008,86,l),
(1813,106,l),
(1647,1378,l),
(1891,1400,l),
(1891,1486,l),
(1384,1486,l),
(1079,562,l),
(1007,294,l),
(928,562,l),
(649,1486,l),
(132,1486,l),
(132,1400,l),
(380,1378,l),
(196,104,l)
);
}
);
userData = {
com.schriftgestaltung.Glyphs.lastChange = "2019-04-25 21:50:43 +0000";
};
width = 2024;
},
{
anchors = (
{
name = bottom;
pos = (1055,0);
},
{
name = bottomright;
pos = (2126,0);
},
{
name = top;
pos = (1055,1486);
}
);
layerId = "97BB7961-D669-43AB-8BBF-11FFD0C46A4B";
shapes = (
{
closed = 1;
nodes = (
(-16,132,l),
(-16,0,l),
(566,0,l),
(566,132,l),
(357,154,l),
(451,1016,l),
(488,1370,l),
(575,1021,l),
(831,57,l),
(1128,57,l),
(1389,1048,l),
(1462,1369,l),
(1499,1016,l),
(1593,154,l),
(1418,132,l),
(1418,0,l),
(2126,0,l),
(2126,132,l),
(1968,155,l),
(1791,1319,l),
(2019,1347,l),
(2019,1486,l),
(1309,1486,l),
(1103,649,l),
(1059,428,l),
(1005,649,l),
(826,1486,l),
(88,1486,l),
(88,1347,l),
(312,1319,l),
(143,153,l)
);
}
);
width = 2110;
}
);
metricRight = "=|";
unicode = 77;
userData = {
KernOnName = M;
};
}
{
color = 4;
glyphname = W;
kernLeft = W;
kernRight = W;
layers = (
{
anchors = (
{
name = bottom;
pos = (984,0);
},
{
name = top;
pos = (984,1486);
}
);
layerId = UUID0;
shapes = (
{
closed = 1;
nodes = (
(100,1376,l),
(522,-10,l),
(668,-10,l),
(986,1036,l),
(1310,-10,l),
(1464,-10,l),
(1874,1378,l),
(2008,1400,l),
(2008,1486,l),
(1534,1486,l),
(1534,1400,l),
(1744,1378,l),
(1478,428,l),
(1412,88,l),
(1334,428,l),
(1052,1378,l),
(1250,1400,l),
(1250,1486,l),
(730,1486,l),
(730,1400,l),
(878,1378,l),
(932,1210,l),
(692,428,l),
(614,112,l),
(548,428,l),
(268,1378,l),
(464,1400,l),
(464,1486,l),
(-40,1486,l),
(-40,1400,l)
);
}
);
width = 1968;
},
{
anchors = (
{
name = bottom;
pos = (1028,0);
},
{
name = top;
pos = (1028,1486);
}
);
layerId = "DEBB1CE4-A72D-4960-969E-E04A036D2FA1";
shapes = (
{
closed = 1;
nodes = (
(81,1318,l),
(486,-10,l),
(789,-10,l),
(1031,881,l),
(1290,-10,l),
(1597,-10,l),
(1965,1319,l),
(2090,1347,l),
(2090,1486,l),
(1605,1486,l),
(1605,1347,l),
(1775,1319,l),
(1560,437,l),
(1527,234,l),
(1483,437,l),
(1244,1319,l),
(1434,1347,l),
(1434,1486,l),
(767,1486,l),
(767,1347,l),
(892,1319,l),
(949,1148,l),
(746,437,l),
(713,251,l),
(675,437,l),
(436,1319,l),
(603,1347,l),
(603,1486,l),
(-36,1486,l),
(-36,1347,l)
);
}
);
width = 2055;
},
{
anchors = (
{
name = bottom;
pos = (916,0);
},
{
name = top;
pos = (916,1486);
}
);
layerId = "184155C8-9F61-4F1C-9784-DDA8EA717636";
shapes = (
{
closed = 1;
nodes = (
(55,1417,l),
(427,0,l),
(695,0,l),
(938,861,l),
(1151,0,l),
(1423,0,l),
(1770,1418,l),
(1886,1452,l),
(1886,1486,l),
(1532,1486,l),
(1532,1452,l),
(1677,1418,l),
(1461,441,l),
(1420,250,l),
(1377,441,l),
(1170,1418,l),
(1284,1452,l),
(1284,1486,l),
(687,1486,l),
(687,1452,l),
(781,1418,l),
(893,998,l),
(746,441,l),
(694,250,l),
(655,441,l),
(439,1418,l),
(546,1452,l),
(546,1486,l),
(-55,1486,l),
(-55,1452,l)
);
}
);
width = 1831;
},
{
anchors = (
{
name = bottom;
pos = (953,0);
},
{
name = top;
pos = (953,1486);
}
);
layerId = "EA2265BD-E890-48C4-9E90-A53076E780C5";
shapes = (
{
closed = 1;
nodes = (
(73,1318,l),
(449,-10,l),
(731,-10,l),
(956,881,l),
(1197,-10,l),
(1483,-10,l),
(1825,1319,l),
(1941,1347,l),
(1941,1486,l),
(1490,1486,l),
(1490,1347,l),
(1648,1319,l),
(1448,437,l),
(1418,234,l),
(1377,437,l),
(1154,1319,l),
(1331,1347,l),
(1331,1486,l),
(711,1486,l),
(711,1347,l),
(827,1319,l),
(880,1148,l),
(691,437,l),
(661,251,l),
(625,437,l),
(403,1319,l),
(558,1347,l),
(558,1486,l),
(-36,1486,l),
(-36,1347,l)
);
}
);
width = 1906;
},
{
anchors = (
{
name = bottom;
pos = (912,0);
},
{
name = top;
pos = (912,1486);
}
);
layerId = "0E4B6E2E-ECAB-4D06-9686-B0B40AA31834";
shapes = (
{
closed = 1;
nodes = (
(90,1376,l),
(473,-10,l),
(618,-10,l),
(914,1036,l),
(1208,-10,l),
(1358,-10,l),
(1739,1378,l),
(1864,1400,l),
(1864,1486,l),
(1423,1486,l),
(1423,1400,l),
(1618,1378,l),
(1371,428,l),
(1310,88,l),
(1237,428,l),
(975,1378,l),
(1159,1400,l),
(1159,1486,l),
(675,1486,l),
(675,1400,l),
(813,1378,l),
(863,1210,l),
(640,428,l),
(568,112,l),
(506,428,l),
(246,1378,l),
(429,1400,l),
(429,1486,l),
(-40,1486,l),
(-40,1400,l)
);
}
);
width = 1824;
},
{
anchors = (
{
name = bottom;
pos = (819,0);
},
{
name = top;
pos = (819,1486);
}
);
layerId = "F2B10EEF-9DDC-48CA-970D-6B8C79870881";
shapes = (
{
closed = 1;
nodes = (
(61,1417,l),
(380,0,l),
(623,0,l),
(841,861,l),
(1016,0,l),
(1279,0,l),
(1572,1418,l),
(1672,1452,l),
(1672,1486,l),
(1365,1486,l),
(1365,1452,l),
(1491,1418,l),
(1303,441,l),
(1274,250,l),
(1246,441,l),
(1058,1418,l),
(1157,1452,l),
(1157,1486,l),
(632,1486,l),
(632,1452,l),
(713,1418,l),
(801,998,l),
(667,441,l),
(629,250,l),
(605,441,l),
(408,1418,l),
(501,1452,l),
(501,1486,l),
(-35,1486,l),
(-35,1452,l)
);
}
);
width = 1637;
},
{
anchors = (
{
name = bottom;
pos = (816,0);
},
{
name = top;
pos = (816,1486);
}
);
layerId = "E96AC896-F5DF-475B-BBD9-C7FEC6A86D0E";
shapes = (
{
closed = 1;
nodes = (
(87,1418,l),
(441,-16,l),
(566,-16,l),
(824,1037,l),
(1066,-16,l),
(1189,-16,l),
(1546,1417,l),
(1672,1451,l),
(1672,1486,l),
(1293,1486,l),
(1293,1451,l),
(1452,1417,l),
(1184,235,l),
(1159,85,l),
(1137,228,l),
(879,1429,l),
(1017,1451,l),
(1017,1486,l),
(618,1486,l),
(618,1451,l),
(732,1429,l),
(788,1202,l),
(554,235,l),
(534,85,l),
(512,229,l),
(236,1418,l),
(388,1452,l),
(388,1486,l),
(-31,1487,l),
(-31,1453,l)
);
}
);
width = 1632;
},
{
anchors = (
{
name = bottom;
pos = (924,0);
},
{
name = top;
pos = (924,1486);
}
);
layerId = "C9B9556E-C2FD-4F62-BB40-44923C452C22";
shapes = (
{
closed = 1;
nodes = (
(112,1418,l),
(522,-16,l),
(655,-16,l),
(949,1018,l),
(1217,-16,l),
(1348,-16,l),
(1758,1417,l),
(1877,1451,l),
(1877,1486,l),
(1476,1486,l),
(1476,1451,l),
(1658,1417,l),
(1342,209,l),
(1314,53,l),
(1293,202,l),
(999,1429,l),
(1167,1451,l),
(1167,1486,l),
(697,1486,l),
(697,1451,l),
(841,1429,l),
(908,1183,l),
(643,209,l),
(619,53,l),
(598,203,l),
(275,1418,l),
(437,1452,l),
(437,1486,l),
(-30,1487,l),
(-30,1453,l)
);
}
);
width = 1847;
},
{
anchors = (
{
name = bottom;
pos = (1030,0);
},
{
name = top;
pos = (1030,1486);
}
);
layerId = "AFA1064D-EFC9-4C9F-B9B0-9118E41D87C4";
shapes = (
{
closed = 1;
nodes = (
(81,1417,l),
(502,0,l),
(800,0,l),
(1030,861,l),
(1256,0,l),
(1559,0,l),
(1972,1418,l),
(2100,1452,l),
(2100,1486,l),
(1719,1486,l),
(1719,1452,l),
(1879,1418,l),
(1609,441,l),
(1564,250,l),
(1516,441,l),
(1289,1418,l),
(1414,1452,l),
(1414,1486,l),
(782,1486,l),
(782,1452,l),
(885,1418,l),
(988,998,l),
(847,441,l),
(800,250,l),
(751,441,l),
(490,1418,l),
(608,1452,l),
(608,1486,l),
(-40,1486,l),
(-40,1452,l)
);
}
);
width = 2060;
},
{
anchors = (
{
name = bottom;
pos = (967,0);
},
{
name = top;
pos = (967,1486);
}
);
layerId = "2103F1D3-C390-4F79-A87D-298F85EA6916";
shapes = (
{
closed = 1;
nodes = (
(105,1418,l),
(534,-16,l),
(673,-16,l),
(990,1018,l),
(1280,-16,l),
(1416,-16,l),
(1853,1417,l),
(1976,1451,l),
(1976,1486,l),
(1559,1486,l),
(1559,1451,l),
(1749,1417,l),
(1410,209,l),
(1381,53,l),
(1359,202,l),
(1042,1429,l),
(1217,1451,l),
(1217,1486,l),
(735,1486,l),
(735,1451,l),
(877,1429,l),
(947,1183,l),
(660,209,l),
(635,53,l),
(613,203,l),
(274,1418,l),
(443,1452,l),
(443,1486,l),
(-43,1487,l),
(-43,1453,l)
);
}
);
width = 1933;
},
{
anchors = (
{
name = bottom;
pos = (1046,0);
},
{
name = top;
pos = (1046,1486);
}
);
layerId = "779F1615-9D1A-4778-9767-9A030AA58B6C";
shapes = (
{
closed = 1;
nodes = (
(100,1378,l),
(552,-10,l),
(708,-10,l),
(1048,1036,l),
(1395,-10,l),
(1560,-10,l),
(1998,1378,l),
(2142,1400,l),
(2142,1486,l),
(1635,1486,l),
(1635,1400,l),
(1859,1378,l),
(1575,428,l),
(1504,88,l),
(1406,428,l),
(1104,1378,l),
(1316,1400,l),
(1316,1486,l),
(774,1486,l),
(774,1400,l),
(933,1378,l),
(990,1210,l),
(734,428,l),
(650,112,l),
(565,428,l),
(269,1378,l),
(476,1400,l),
(476,1486,l),
(-50,1486,l),
(-50,1400,l)
);
}
);
userData = {
com.schriftgestaltung.Glyphs.lastChange = "2019-04-25 21:50:43 +0000";
};
width = 2092;
},
{
anchors = (
{
name = bottom;
pos = (1102,0);
},
{
name = top;
pos = (1102,1486);
}
);
layerId = "97BB7961-D669-43AB-8BBF-11FFD0C46A4B";
shapes = (
{
closed = 1;
nodes = (
(89,1318,l),
(523,-10,l),
(847,-10,l),
(1106,881,l),
(1383,-10,l),
(1711,-10,l),
(2105,1319,l),
(2239,1347,l),
(2239,1486,l),
(1720,1486,l),
(1720,1347,l),
(1902,1319,l),
(1672,437,l),
(1636,234,l),
(1589,437,l),
(1334,1319,l),
(1537,1347,l),
(1537,1486,l),
(823,1486,l),
(823,1347,l),
(957,1319,l),
(1018,1148,l),
(801,437,l),
(765,251,l),
(725,437,l),
(469,1319,l),
(648,1347,l),
(648,1486,l),
(-36,1486,l),
(-36,1347,l)
);
}
);
width = 2204;
}
);
unicode = 87;
}
{
glyphname = backslash;
layers = (
{
layerId = UUID0;
shapes = (
{
closed = 1;
nodes = (
(220,1562,l),
(70,1562,l),
(630,-354,l),
(780,-354,l)
);
}
);
width = 862;
},
{
layerId = "DEBB1CE4-A72D-4960-969E-E04A036D2FA1";
shapes = (
{
closed = 1;
nodes = (
(254,1562,l),
(32,1562,l),
(540,-354,l),
(764,-354,l)
);
}
);
width = 862;
},
{
layerId = "184155C8-9F61-4F1C-9784-DDA8EA717636";
shapes = (
{
closed = 1;
nodes = (
(129,1562,l),
(34,1562,l),
(536,-354,l),
(633,-354,l)
);
}
);
width = 683;
},
{
layerId = "EA2265BD-E890-48C4-9E90-A53076E780C5";
shapes = (
{
closed = 1;
nodes = (
(254,1562,l),
(32,1562,l),
(540,-354,l),
(764,-354,l)
);
}
);
width = 862;
},
{
layerId = "0E4B6E2E-ECAB-4D06-9686-B0B40AA31834";
shapes = (
{
closed = 1;
nodes = (
(220,1562,l),
(70,1562,l),
(630,-354,l),
(780,-354,l)
);
}
);
width = 862;
},
{
layerId = "F2B10EEF-9DDC-48CA-970D-6B8C79870881";
shapes = (
{
closed = 1;
nodes = (
(120,1562,l),
(27,1562,l),
(467,-354,l),
(562,-354,l)
);
}
);
width = 561;
},
{
layerId = "E96AC896-F5DF-475B-BBD9-C7FEC6A86D0E";
shapes = (
{
closed = 1;
nodes = (
(108,1562,l),
(26,1562,l),
(508,-354,l),
(590,-354,l)
);
}
);
width = 632;
},
{
layerId = "C9B9556E-C2FD-4F62-BB40-44923C452C22";
shapes = (
{
closed = 1;
nodes = (
(123,1562,l),
(37,1562,l),
(597,-354,l),
(683,-354,l)
);
}
);
width = 738;
},
{
layerId = "AFA1064D-EFC9-4C9F-B9B0-9118E41D87C4";
shapes = (
{
closed = 1;
nodes = (
(124,1562,l),
(30,1562,l),
(582,-354,l),
(678,-354,l)
);
}
);
width = 724;
},
{
layerId = "2103F1D3-C390-4F79-A87D-298F85EA6916";
shapes = (
{
closed = 1;
nodes = (
(140,1562,l),
(46,1562,l),
(488,-354,l),
(582,-354,l)
);
}
);
width = 647;
},
{
layerId = "779F1615-9D1A-4778-9767-9A030AA58B6C";
shapes = (
{
closed = 1;
nodes = (
(220,1562,l),
(70,1562,l),
(630,-354,l),
(780,-354,l)
);
}
);
userData = {
com.schriftgestaltung.Glyphs.lastChange = "2019-04-25 21:50:43 +0000";
};
width = 862;
},
{
layerId = "97BB7961-D669-43AB-8BBF-11FFD0C46A4B";
shapes = (
{
closed = 1;
nodes = (
(254,1562,l),
(32,1562,l),
(540,-354,l),
(764,-354,l)
);
}
);
width = 862;
}
);
unicode = 92;
userData = {
KernOnSpecialSpacing = {
L = "spaced-off";
R = "spaced-off";
};
};
}
{
glyphname = asciicircum;
layers = (
{
layerId = UUID0;
shapes = (
{
closed = 1;
nodes = (
(582,1496,l),
(180,266,l),
(330,266,l),
(664,1320,l),
(1000,266,l),
(1150,266,l),
(746,1496,l)
);
}
);
width = 1330;
},
{
layerId = "DEBB1CE4-A72D-4960-969E-E04A036D2FA1";
shapes = (
{
closed = 1;
nodes = (
(552,1496,l),
(155,267,l),
(381,267,l),
(664,1163,l),
(934,267,l),
(1177,267,l),
(774,1496,l)
);
}
);
width = 1332;
},
{
layerId = "184155C8-9F61-4F1C-9784-DDA8EA717636";
shapes = (
{
closed = 1;
nodes = (
(557,1496,l),
(155,267,l),
(246,267,l),
(602,1362,l),
(948,267,l),
(1047,267,l),
(641,1496,l)
);
}
);
width = 1202;
},
{
background = {
shapes = (
{
closed = 1;
nodes = (
(479,1496,l),
(131,267,l),
(349,267,l),
(585,1133,l),
(807,267,l),
(1042,267,l),
(688,1496,l)
);
}
);
};
layerId = "EA2265BD-E890-48C4-9E90-A53076E780C5";
shapes = (
{
closed = 1;
nodes = (
(505,1496,l),
(135,267,l),
(346,267,l),
(609,1163,l),
(861,267,l),
(1088,267,l),
(712,1496,l)
);
}
);
width = 1223;
},
{
background = {
shapes = (
{
closed = 1;
nodes = (
(504,1496,l),
(154,266,l),
(281,266,l),
(579,1284,l),
(877,266,l),
(1006,266,l),
(654,1496,l)
);
}
);
};
layerId = "0E4B6E2E-ECAB-4D06-9686-B0B40AA31834";
shapes = (
{
closed = 1;
nodes = (
(560,1496,l),
(180,266,l),
(326,266,l),
(640,1320,l),
(955,266,l),
(1101,266,l),
(719,1496,l)
);
}
);
width = 1281;
},
{
layerId = "F2B10EEF-9DDC-48CA-970D-6B8C79870881";
shapes = (
{
closed = 1;
nodes = (
(513,1496,l),
(152,267,l),
(246,267,l),
(554,1352,l),
(853,267,l),
(955,267,l),
(597,1496,l)
);
}
);
width = 1107;
},
{
layerId = "E96AC896-F5DF-475B-BBD9-C7FEC6A86D0E";
shapes = (
{
closed = 1;
nodes = (
(513,1496,l),
(152,267,l),
(246,267,l),
(554,1352,l),
(853,267,l),
(955,267,l),
(597,1496,l)
);
}
);
width = 1107;
},
{
layerId = "C9B9556E-C2FD-4F62-BB40-44923C452C22";
shapes = (
{
closed = 1;
nodes = (
(557,1496,l),
(155,267,l),
(246,267,l),
(602,1362,l),
(948,267,l),
(1047,267,l),
(641,1496,l)
);
}
);
width = 1202;
},
{
layerId = "AFA1064D-EFC9-4C9F-B9B0-9118E41D87C4";
shapes = (
{
closed = 1;
nodes = (
(624,1496,l),
(190,267,l),
(281,267,l),
(668,1365,l),
(1045,267,l),
(1144,267,l),
(714,1496,l)
);
}
);
width = 1334;
},
{
layerId = "2103F1D3-C390-4F79-A87D-298F85EA6916";
shapes = (
{
closed = 1;
nodes = (
(624,1496,l),
(190,267,l),
(281,267,l),
(668,1365,l),
(1045,267,l),
(1144,267,l),
(714,1496,l)
);
}
);
width = 1334;
},
{
background = {
shapes = (
{
closed = 1;
nodes = (
(652,1496,l),
(200,266,l),
(330,266,l),
(738,1314,l),
(1151,266,l),
(1281,266,l),
(825,1496,l)
);
}
);
};
layerId = "779F1615-9D1A-4778-9767-9A030AA58B6C";
shapes = (
{
closed = 1;
nodes = (
(603,1496,l),
(180,266,l),
(337,266,l),
(689,1320,l),
(1043,266,l),
(1199,266,l),
(775,1496,l)
);
}
);
userData = {
com.schriftgestaltung.Glyphs.lastChange = "2019-04-25 21:50:43 +0000";
};
width = 1379;
},
{
background = {
shapes = (
{
closed = 1;
nodes = (
(621,1496,l),
(175,267,l),
(409,267,l),
(739,1149,l),
(1057,267,l),
(1308,267,l),
(856,1496,l)
);
}
);
};
layerId = "97BB7961-D669-43AB-8BBF-11FFD0C46A4B";
shapes = (
{
closed = 1;
nodes = (
(572,1496,l),
(155,267,l),
(383,267,l),
(690,1193,l),
(984,267,l),
(1229,267,l),
(806,1496,l)
);
}
);
width = 1384;
}
);
metricRight = "=|";
unicode = 94;
userData = {
KernOnSpecialSpacing = {
L = math;
R = math;
};
};
}
{
category = Letter;
glyphname = m;
kernLeft = n;
kernRight = n;
layers = (
{
anchors = (
{
name = bottom;
pos = (981,0);
},
{
name = top;
pos = (981,1110);
}
);
layerId = UUID0;
shapes = (
{
closed = 1;
nodes = (
(520,0,l),
(520,86,l),
(378,102,l),
(378,880,l),
(460,944,o),
(594,1012,o),
(706,1012,cs),
(900,1012,o),
(926,900,o),
(926,668,cs),
(926,102,l),
(782,86,l),
(782,0,l),
(1240,0,l),
(1240,86,l),
(1088,102,l),
(1088,666,ls),
(1088,762,o),
(1082,842,o),
(1068,906,c),
(1136,956,o),
(1256,1014,o),
(1362,1014,cs),
(1566,1014,o),
(1602,894,o),
(1602,664,cs),
(1602,102,l),
(1466,86,l),
(1466,0,l),
(1914,0,l),
(1914,86,l),
(1762,102,l),
(1762,670,ls),
(1762,994,o),
(1696,1136,o),
(1442,1136,cs),
(1298,1136,o),
(1114,1048,o),
(1042,988,c),
(996,1090,o),
(914,1136,o),
(770,1136,cs),
(628,1136,o),
(446,1040,o),
(358,964,c),
(360,1014,l),
(360,1102,l),
(316,1134,l),
(62,1102,l),
(62,1012,l),
(216,978,l),
(216,102,l),
(88,86,l),
(88,0,l)
);
}
);
width = 1961;
},
{
anchors = (
{
name = bottom;
pos = (1013,0);
},
{
name = top;
pos = (1013,1112);
}
);
layerId = "DEBB1CE4-A72D-4960-969E-E04A036D2FA1";
shapes = (
{
closed = 1;
nodes = (
(635,0,l),
(635,132,l),
(527,151,l),
(527,861,l),
(573,900,o),
(650,946,o),
(732,946,cs),
(851,946,o),
(880,881,o),
(880,696,cs),
(880,151,l),
(782,132,l),
(782,0,l),
(1327,0,l),
(1327,132,l),
(1215,151,l),
(1215,697,ls),
(1215,761,o),
(1212,818,o),
(1202,868,c),
(1248,904,o),
(1321,946,o),
(1394,946,cs),
(1514,946,o),
(1548,879,o),
(1548,689,cs),
(1548,151,l),
(1458,132,l),
(1458,0,l),
(2001,0,l),
(2001,132,l),
(1881,151,l),
(1881,698,ls),
(1881,1006,o),
(1787,1135,o),
(1551,1135,cs),
(1406,1135,o),
(1257,1069,o),
(1170,985,c),
(1124,1086,o),
(1039,1135,o),
(894,1135,cs),
(783,1135,o),
(585,1065,o),
(495,974,c),
(496,1073,l),
(449,1138,l),
(438,1138,l),
(75,1095,l),
(75,938,l),
(193,901,l),
(193,151,l),
(88,132,l),
(88,0,l)
);
}
);
width = 2026;
},
{
anchors = (
{
name = bottom;
pos = (907,0);
},
{
name = top;
pos = (907,1005);
}
);
layerId = "184155C8-9F61-4F1C-9784-DDA8EA717636";
shapes = (
{
closed = 1;
nodes = (
(572,0,l),
(572,38,l),
(463,72,l),
(463,812,l),
(497,836,o),
(560,863,o),
(634,863,cs),
(715,863,o),
(746,796,o),
(746,662,cs),
(746,72,l),
(667,38,l),
(667,0,l),
(1189,0,l),
(1189,38,l),
(1085,72,l),
(1085,697,ls),
(1085,734,o),
(1078,785,o),
(1074,810,c),
(1108,840,o),
(1176,863,o),
(1250,863,cs),
(1331,863,o),
(1362,796,o),
(1362,662,cs),
(1362,71,l),
(1283,38,l),
(1283,0,l),
(1805,0,l),
(1805,38,l),
(1701,71,l),
(1701,662,ls),
(1701,941,o),
(1609,1039,o),
(1414,1039,cs),
(1256,1039,o),
(1141,946,o),
(1067,845,c),
(1032,974,o),
(954,1039,o),
(798,1039,cs),
(640,1039,o),
(532,943,o),
(457,849,c),
(457,991,l),
(406,1035,l),
(366,1035,l),
(14,920,l),
(14,881,l),
(125,834,l),
(125,72,l),
(12,38,l),
(12,0,l)
);
}
);
width = 1813;
},
{
anchors = (
{
name = bottom;
pos = (863,0);
},
{
name = top;
pos = (863,1112);
}
);
layerId = "EA2265BD-E890-48C4-9E90-A53076E780C5";
shapes = (
{
closed = 1;
nodes = (
(549,0,l),
(549,131,l),
(460,150,l),
(460,861,l),
(495,898,o),
(540,948,o),
(615,948,cs),
(712,948,o),
(726,880,o),
(726,695,cs),
(726,150,l),
(644,131,l),
(644,0,l),
(1118,0,l),
(1118,131,l),
(1040,151,l),
(1040,697,ls),
(1040,761,o),
(1038,821,o),
(1032,871,c),
(1057,896,o),
(1111,948,o),
(1181,948,cs),
(1278,948,o),
(1294,879,o),
(1294,689,cs),
(1294,151,l),
(1213,132,l),
(1213,0,l),
(1695,0,l),
(1695,132,l),
(1608,151,l),
(1608,698,ls),
(1608,1008,o),
(1529,1135,o),
(1329,1135,cs),
(1174,1135,o),
(1074,1053,o),
(1010,976,c),
(966,1079,o),
(915,1135,o),
(772,1135,cs),
(625,1135,o),
(515,1053,o),
(446,976,c),
(447,1096,l),
(408,1138,l),
(393,1138,l),
(54,1095,l),
(54,938,l),
(147,901,l),
(147,150,l),
(58,131,l),
(58,0,l)
);
}
);
width = 1726;
},
{
anchors = (
{
name = bottom;
pos = (856,0);
},
{
name = top;
pos = (856,1110);
}
);
layerId = "0E4B6E2E-ECAB-4D06-9686-B0B40AA31834";
shapes = (
{
closed = 1;
nodes = (
(436,0,l),
(436,86,l),
(314,102,l),
(314,880,l),
(379,942,o),
(493,1014,o),
(589,1014,cs),
(768,1014,o),
(774,857,o),
(774,668,cs),
(774,102,l),
(663,86,l),
(663,0,l),
(1054,0,l),
(1054,86,l),
(932,102,l),
(932,666,ls),
(932,762,o),
(931,820,o),
(923,870,c),
(997,942,o),
(1110,1013,o),
(1208,1013,cs),
(1385,1013,o),
(1392,857,o),
(1392,664,cs),
(1392,102,l),
(1281,86,l),
(1281,0,l),
(1675,0,l),
(1675,86,l),
(1550,102,l),
(1550,670,ls),
(1550,930,o),
(1522,1135,o),
(1265,1135,cs),
(1144,1135,o),
(988,1041,o),
(906,957,c),
(861,1073,o),
(791,1136,o),
(650,1136,cs),
(525,1136,o),
(370,1041,o),
(294,961,c),
(297,1102,l),
(260,1134,l),
(252,1134,l),
(28,1102,l),
(28,1014,l),
(157,980,l),
(157,102,l),
(44,86,l),
(44,0,l)
);
}
);
width = 1711;
},
{
anchors = (
{
name = bottom;
pos = (785,0);
},
{
name = top;
pos = (785,1005);
}
);
layerId = "F2B10EEF-9DDC-48CA-970D-6B8C79870881";
shapes = (
{
closed = 1;
nodes = (
(511,0,l),
(511,38,l),
(424,72,l),
(424,809,l),
(452,844,o),
(498,870,o),
(545,870,cs),
(615,870,o),
(632,791,o),
(632,628,cs),
(632,72,l),
(570,38,l),
(570,0,l),
(1033,0,l),
(1033,38,l),
(950,72,l),
(950,641,ls),
(950,733,o),
(944,781,o),
(940,806,c),
(984,836,o),
(972,863,o),
(1046,863,cs),
(1127,863,o),
(1158,796,o),
(1158,662,cs),
(1158,71,l),
(1096,38,l),
(1096,0,l),
(1559,0,l),
(1559,38,l),
(1476,71,l),
(1476,640,ls),
(1476,913,o),
(1405,1039,o),
(1210,1039,cs),
(1052,1039,o),
(1016,946,o),
(932,845,c),
(902,954,o),
(855,1039,o),
(699,1039,cs),
(573,1039,o),
(462,950,o),
(423,868,c),
(424,1002,l),
(390,1035,l),
(317,1035,l),
(2,920,l),
(2,881,l),
(108,834,l),
(108,72,l),
(32,38,l),
(32,0,l)
);
}
);
width = 1569;
},
{
anchors = (
{
name = bottom;
pos = (747,0);
},
{
name = top;
pos = (747,1005);
}
);
layerId = "E96AC896-F5DF-475B-BBD9-C7FEC6A86D0E";
shapes = (
{
closed = 1;
nodes = (
(393,0,l),
(393,36,l),
(275,67,l),
(275,806,l),
(363,907,o),
(454,941,o),
(529,941,cs),
(654,941,o),
(697,845,o),
(697,648,cs),
(697,67,l),
(584,36,l),
(584,0,l),
(937,0,l),
(937,36,l),
(833,67,l),
(833,644,ls),
(833,689,o),
(824,791,o),
(813,829,c),
(908,930,o),
(1001,941,o),
(1075,941,cs),
(1200,941,o),
(1243,842,o),
(1243,645,cs),
(1243,67,l),
(1131,36,l),
(1131,0,l),
(1484,0,l),
(1484,36,l),
(1379,67,l),
(1379,644,ls),
(1379,869,o),
(1331,1027,o),
(1118,1027,cs),
(1010,1027,o),
(865,953,o),
(810,852,c),
(776,977,o),
(694,1027,o),
(578,1027,cs),
(445,1027,o),
(320,930,o),
(275,835,c),
(275,998,l),
(258,1010,l),
(207,1010,l),
(14,958,l),
(14,931,l),
(140,896,l),
(140,67,l),
(29,36,l),
(29,0,l)
);
}
);
width = 1494;
},
{
anchors = (
{
name = bottom;
pos = (834,0);
},
{
name = top;
pos = (834,1005);
}
);
layerId = "C9B9556E-C2FD-4F62-BB40-44923C452C22";
shapes = (
{
closed = 1;
nodes = (
(404,0,l),
(404,36,l),
(288,67,l),
(288,806,l),
(387,888,o),
(465,927,o),
(597,927,cs),
(761,927,o),
(776,797,o),
(776,616,cs),
(776,67,l),
(653,36,l),
(653,0,l),
(1033,0,l),
(1033,36,l),
(917,67,l),
(918,623,ls),
(918,689,o),
(919,773,o),
(908,811,c),
(999,888,o),
(1076,927,o),
(1208,927,cs),
(1374,927,o),
(1393,797,o),
(1393,616,cs),
(1393,67,l),
(1270,36,l),
(1270,0,l),
(1651,0,l),
(1651,36,l),
(1535,67,l),
(1535,623,ls),
(1535,850,o),
(1487,1023,o),
(1249,1023,cs),
(1098,1023,o),
(967,921,o),
(900,835,c),
(861,960,o),
(781,1023,o),
(640,1023,cs),
(484,1023,o),
(355,921,o),
(288,835,c),
(288,998,l),
(273,1010,l),
(217,1010,l),
(20,958,l),
(20,931,l),
(146,896,l),
(146,67,l),
(28,36,l),
(28,0,l)
);
}
);
width = 1668;
},
{
anchors = (
{
name = bottom;
pos = (979,0);
},
{
name = top;
pos = (979,1005);
}
);
layerId = "AFA1064D-EFC9-4C9F-B9B0-9118E41D87C4";
shapes = (
{
closed = 1;
nodes = (
(590,0,l),
(590,38,l),
(477,72,l),
(478,812,l),
(517,836,o),
(592,863,o),
(679,863,cs),
(774,863,o),
(810,796,o),
(810,662,cs),
(810,72,l),
(718,38,l),
(718,0,l),
(1271,0,l),
(1271,38,l),
(1162,72,l),
(1162,697,ls),
(1162,734,o),
(1154,781,o),
(1150,806,c),
(1201,836,o),
(1274,863,o),
(1360,863,cs),
(1455,863,o),
(1492,796,o),
(1492,662,cs),
(1492,71,l),
(1399,38,l),
(1399,0,l),
(1947,0,l),
(1947,38,l),
(1844,71,l),
(1844,662,ls),
(1844,941,o),
(1736,1039,o),
(1553,1039,cs),
(1367,1039,o),
(1239,946,o),
(1140,845,c),
(1099,974,o),
(1009,1039,o),
(871,1039,cs),
(686,1039,o),
(548,937,o),
(460,846,c),
(466,996,l),
(416,1035,l),
(364,1035,l),
(14,920,l),
(14,881,l),
(125,834,l),
(125,72,l),
(12,38,l),
(12,0,l)
);
}
);
width = 1957;
},
{
anchors = (
{
name = bottom;
pos = (861,0);
},
{
name = top;
pos = (861,1005);
}
);
layerId = "2103F1D3-C390-4F79-A87D-298F85EA6916";
shapes = (
{
closed = 1;
nodes = (
(392,0,l),
(392,36,l),
(287,67,l),
(287,806,l),
(386,888,o),
(493,935,o),
(598,935,cs),
(759,935,o),
(804,822,o),
(804,655,cs),
(804,67,l),
(686,36,l),
(686,0,l),
(1063,0,l),
(1063,36,l),
(947,67,l),
(948,662,ls),
(948,689,o),
(945,773,o),
(934,811,c),
(1025,888,o),
(1138,935,o),
(1240,935,cs),
(1408,935,o),
(1453,822,o),
(1453,664,cs),
(1453,67,l),
(1335,36,l),
(1335,0,l),
(1713,0,l),
(1713,36,l),
(1597,67,l),
(1597,664,ls),
(1597,868,o),
(1524,1031,o),
(1288,1031,cs),
(1135,1031,o),
(993,921,o),
(926,835,c),
(887,960,o),
(799,1031,o),
(645,1031,cs),
(502,1031,o),
(354,921,o),
(287,835,c),
(287,998,l),
(272,1010,l),
(206,1010,l),
(16,958,l),
(16,931,l),
(142,896,l),
(142,67,l),
(24,36,l),
(24,0,l)
);
}
);
width = 1721;
},
{
anchors = (
{
name = bottom;
pos = (1058,0);
},
{
name = top;
pos = (1058,1110);
}
);
layerId = "779F1615-9D1A-4778-9767-9A030AA58B6C";
shapes = (
{
closed = 1;
nodes = (
(518,0,l),
(518,86,l),
(364,102,l),
(364,880,l),
(459,942,o),
(596,1012,o),
(754,1012,cs),
(941,1012,o),
(984,901,o),
(984,668,cs),
(984,102,l),
(843,86,l),
(843,0,l),
(1298,0,l),
(1298,86,l),
(1153,102,l),
(1153,666,ls),
(1153,762,o),
(1148,828,o),
(1134,892,c),
(1202,942,o),
(1364,1012,o),
(1530,1012,cs),
(1713,1012,o),
(1761,901,o),
(1761,664,cs),
(1761,102,l),
(1623,86,l),
(1623,0,l),
(2075,0,l),
(2075,86,l),
(1930,102,l),
(1930,670,ls),
(1930,989,o),
(1844,1136,o),
(1555,1136,cs),
(1380,1136,o),
(1180,1034,o),
(1108,974,c),
(1058,1078,o),
(962,1136,o),
(790,1136,cs),
(616,1136,o),
(439,1040,o),
(346,964,c),
(346,1102,l),
(305,1134,l),
(288,1134,l),
(28,1102,l),
(28,1012,l),
(195,978,l),
(195,102,l),
(49,86,l),
(49,0,l)
);
}
);
userData = {
com.schriftgestaltung.Glyphs.lastChange = "2019-04-25 21:50:43 +0000";
};
width = 2115;
},
{
anchors = (
{
name = bottom;
pos = (1077,0);
},
{
name = top;
pos = (1077,1112);
}
);
layerId = "97BB7961-D669-43AB-8BBF-11FFD0C46A4B";
shapes = (
{
closed = 1;
nodes = (
(660,0,l),
(660,132,l),
(542,151,l),
(542,861,l),
(588,900,o),
(677,946,o),
(783,946,cs),
(898,946,o),
(937,881,o),
(937,666,cs),
(937,151,l),
(827,132,l),
(827,0,l),
(1414,0,l),
(1414,132,l),
(1299,151,l),
(1299,667,ls),
(1299,761,o),
(1295,827,o),
(1285,868,c),
(1331,904,o),
(1403,946,o),
(1513,946,cs),
(1627,946,o),
(1667,879,o),
(1667,659,cs),
(1667,151,l),
(1557,132,l),
(1557,0,l),
(2145,0,l),
(2145,132,l),
(2030,151,l),
(2030,668,ls),
(2030,1016,o),
(1918,1135,o),
(1658,1135,cs),
(1492,1135,o),
(1331,1055,o),
(1249,981,c),
(1196,1082,o),
(1095,1135,o),
(930,1135,cs),
(763,1135,o),
(604,1055,o),
(516,976,c),
(518,1096,l),
(463,1138,l),
(453,1138,l),
(52,1095,l),
(52,938,l),
(179,901,l),
(179,151,l),
(60,132,l),
(60,0,l)
);
}
);
width = 2154;
}
);
metricLeft = n;
metricRight = n;
subCategory = Lowercase;
unicode = 109;
}
{
category = Letter;
glyphname = r;
kernLeft = n;
kernRight = r;
layers = (
{
anchors = (
{
name = bottom;
pos = (321,0);
},
{
name = center;
pos = (348,557);
},
{
name = top;
pos = (441,1110);
}
);
layerId = UUID0;
shapes = (
{
closed = 1;
nodes = (
(663,0,l),
(663,82,l),
(397,98,l),
(397,830,l),
(459,876,o),
(542,966,o),
(729,966,cs),
(783,966,o),
(823,954,o),
(831,948,c),
(831,1116,l),
(817,1120,o),
(799,1124,o),
(761,1124,cs),
(523,1124,o),
(401,918,o),
(377,892,c),
(373,892,l),
(377,1070,l),
(377,1102,l),
(339,1134,l),
(335,1134,l),
(81,1102,l),
(81,1012,l),
(235,978,l),
(235,96,l),
(75,84,l),
(75,0,l)
);
}
);
width = 881;
},
{
anchors = (
{
name = bottom;
pos = (356,0);
},
{
name = center;
pos = (388,537);
},
{
name = top;
pos = (474,1112);
}
);
layerId = "DEBB1CE4-A72D-4960-969E-E04A036D2FA1";
shapes = (
{
closed = 1;
nodes = (
(739,0,l),
(739,131,l),
(519,150,l),
(519,762,l),
(556,787,o),
(634,824,o),
(741,824,cs),
(828,824,o),
(874,811,o),
(906,787,c),
(906,1119,l),
(890,1126,o),
(862,1133,o),
(825,1133,cs),
(632,1133,o),
(492,956,o),
(468,874,c),
(461,874,l),
(468,1048,l),
(468,1096,l),
(411,1138,l),
(405,1138,l),
(73,1095,l),
(73,938,l),
(192,901,l),
(192,149,l),
(70,131,l),
(70,0,l)
);
}
);
width = 947;
},
{
anchors = (
{
name = bottom;
pos = (306,0);
},
{
name = center;
pos = (318,497);
},
{
name = top;
pos = (420,1005);
}
);
layerId = "184155C8-9F61-4F1C-9784-DDA8EA717636";
shapes = (
{
closed = 1;
nodes = (
(611,0,l),
(611,38,l),
(463,73,l),
(462,699,l),
(507,746,o),
(568,759,o),
(642,759,cs),
(705,759,o),
(752,730,o),
(769,714,c),
(769,1020,l),
(757,1027,o),
(740,1032,o),
(711,1032,cs),
(566,1032,o),
(467,809,o),
(458,757,c),
(451,757,l),
(456,945,l),
(456,993,l),
(399,1035,l),
(359,1035,l),
(15,920,l),
(15,880,l),
(125,834,l),
(125,72,l),
(12,38,l),
(12,0,l)
);
}
);
width = 839;
},
{
anchors = (
{
name = bottom;
pos = (312,0);
},
{
name = center;
pos = (338,537);
},
{
name = top;
pos = (397,1112);
}
);
layerId = "EA2265BD-E890-48C4-9E90-A53076E780C5";
shapes = (
{
closed = 1;
nodes = (
(629,0,l),
(629,131,l),
(455,150,l),
(449,762,l),
(481,787,o),
(535,826,o),
(642,826,cs),
(717,826,o),
(756,813,o),
(784,789,c),
(784,1119,l),
(770,1126,o),
(746,1133,o),
(714,1133,cs),
(521,1133,o),
(441,956,o),
(417,874,c),
(411,874,l),
(418,1048,l),
(418,1096,l),
(361,1138,l),
(355,1138,l),
(50,1095,l),
(50,938,l),
(142,901,l),
(142,149,l),
(53,131,l),
(53,0,l)
);
}
);
width = 794;
},
{
anchors = (
{
name = bottom;
pos = (272,0);
},
{
name = center;
pos = (288,557);
},
{
name = top;
pos = (399,1110);
}
);
layerId = "0E4B6E2E-ECAB-4D06-9686-B0B40AA31834";
shapes = (
{
closed = 1;
nodes = (
(590,0,l),
(590,82,l),
(354,98,l),
(354,830,l),
(416,876,o),
(484,966,o),
(656,966,cs),
(700,966,o),
(740,954,o),
(748,948,c),
(748,1116,l),
(734,1120,o),
(716,1124,o),
(688,1124,cs),
(472,1124,o),
(358,918,o),
(334,892,c),
(330,892,l),
(334,1070,l),
(334,1102,l),
(296,1134,l),
(292,1134,l),
(38,1102,l),
(38,1012,l),
(192,978,l),
(192,96,l),
(32,84,l),
(32,0,l)
);
}
);
width = 798;
},
{
anchors = (
{
name = bottom;
pos = (270,0);
},
{
name = center;
pos = (288,497);
},
{
name = top;
pos = (370,1005);
}
);
background = {
shapes = (
{
closed = 1;
nodes = (
(571,0,l),
(571,38,l),
(423,73,l),
(422,699,l),
(467,746,o),
(528,759,o),
(602,759,cs),
(665,759,o),
(712,730,o),
(729,714,c),
(729,1020,l),
(717,1027,o),
(700,1032,o),
(671,1032,cs),
(526,1032,o),
(427,809,o),
(418,757,c),
(411,757,l),
(416,945,l),
(416,993,l),
(359,1035,l),
(319,1035,l),
(-25,920,l),
(-25,880,l),
(85,834,l),
(85,72,l),
(-28,38,l),
(-28,0,l)
);
}
);
};
layerId = "F2B10EEF-9DDC-48CA-970D-6B8C79870881";
shapes = (
{
closed = 1;
nodes = (
(572,0,l),
(572,38,l),
(424,73,l),
(423,699,l),
(468,746,o),
(533,758,o),
(607,758,cs),
(670,758,o),
(713,733,o),
(730,717,c),
(730,1020,l),
(718,1027,o),
(701,1032,o),
(672,1032,cs),
(519,1032,o),
(430,844,o),
(419,760,c),
(410,760,l),
(417,945,l),
(417,993,l),
(360,1035,l),
(320,1035,l),
(2,920,l),
(2,880,l),
(107,834,l),
(107,72,l),
(32,38,l),
(32,0,l)
);
}
);
width = 740;
},
{
anchors = (
{
name = bottom;
pos = (207,0);
},
{
name = center;
pos = (238,497);
},
{
name = top;
pos = (292,1005);
}
);
layerId = "E96AC896-F5DF-475B-BBD9-C7FEC6A86D0E";
shapes = (
{
closed = 1;
nodes = (
(413,0,l),
(413,36,l),
(273,67,l),
(273,731,l),
(365,866,o),
(441,896,o),
(512,896,cs),
(536,896,o),
(552,893,o),
(563,888,c),
(563,1019,l),
(552,1023,o),
(540,1025,o),
(519,1025,cs),
(391,1025,o),
(286,874,o),
(271,760,c),
(268,766,l),
(273,916,l),
(274,998,l),
(259,1010,l),
(209,1010,l),
(14,958,l),
(14,931,l),
(140,896,l),
(140,67,l),
(22,36,l),
(22,0,l)
);
}
);
width = 583;
},
{
anchors = (
{
name = bottom;
pos = (207,0);
},
{
name = center;
pos = (238,497);
},
{
name = top;
pos = (311,1005);
}
);
layerId = "C9B9556E-C2FD-4F62-BB40-44923C452C22";
shapes = (
{
closed = 1;
nodes = (
(416,0,l),
(416,36,l),
(278,67,l),
(278,731,l),
(340,856,o),
(445,888,o),
(551,888,cs),
(568,888,o),
(580,885,o),
(591,880,c),
(591,1018,l),
(580,1022,o),
(565,1025,o),
(541,1025,cs),
(407,1025,o),
(294,888,o),
(276,774,c),
(273,754,l),
(278,916,l),
(279,998,l),
(264,1010,l),
(205,1010,l),
(10,958,l),
(10,931,l),
(136,896,l),
(136,67,l),
(18,36,l),
(18,0,l)
);
}
);
width = 621;
},
{
anchors = (
{
name = bottom;
pos = (309,0);
},
{
name = center;
pos = (317,497);
},
{
name = top;
pos = (415,1005);
}
);
background = {
shapes = (
{
closed = 1;
nodes = (
(611,0,l),
(611,38,l),
(463,73,l),
(462,699,l),
(507,746,o),
(568,759,o),
(642,759,cs),
(705,759,o),
(752,730,o),
(769,714,c),
(769,1020,l),
(757,1027,o),
(740,1032,o),
(711,1032,cs),
(566,1032,o),
(467,809,o),
(458,757,c),
(451,757,l),
(456,945,l),
(456,993,l),
(399,1035,l),
(359,1035,l),
(15,920,l),
(15,880,l),
(125,834,l),
(125,72,l),
(12,38,l),
(12,0,l)
);
}
);
};
layerId = "AFA1064D-EFC9-4C9F-B9B0-9118E41D87C4";
shapes = (
{
closed = 1;
nodes = (
(627,0,l),
(627,38,l),
(479,73,l),
(478,672,l),
(523,719,o),
(584,745,o),
(658,745,cs),
(721,745,o),
(778,730,o),
(795,714,c),
(795,1022,l),
(783,1029,o),
(759,1032,o),
(730,1032,cs),
(582,1032,o),
(476,859,o),
(467,757,c),
(458,757,l),
(472,945,l),
(472,993,l),
(415,1035,l),
(359,1035,l),
(15,920,l),
(15,880,l),
(125,834,l),
(125,72,l),
(12,38,l),
(12,0,l)
);
}
);
width = 830;
},
{
anchors = (
{
name = bottom;
pos = (217,0);
},
{
name = center;
pos = (228,497);
},
{
name = top;
pos = (311,1005);
}
);
layerId = "2103F1D3-C390-4F79-A87D-298F85EA6916";
shapes = (
{
closed = 1;
nodes = (
(436,0,l),
(436,36,l),
(280,67,l),
(280,731,l),
(342,856,o),
(456,893,o),
(562,893,cs),
(579,893,o),
(591,890,o),
(602,885,c),
(602,1018,l),
(591,1022,o),
(576,1025,o),
(552,1025,cs),
(418,1025,o),
(296,888,o),
(278,774,c),
(275,754,l),
(280,916,l),
(281,998,l),
(266,1010,l),
(205,1010,l),
(10,958,l),
(10,931,l),
(136,896,l),
(136,67,l),
(18,36,l),
(18,0,l)
);
}
);
width = 622;
},
{
anchors = (
{
name = bottom;
pos = (263,0);
},
{
name = center;
pos = (318,557);
},
{
name = top;
pos = (424,1110);
}
);
layerId = "779F1615-9D1A-4778-9767-9A030AA58B6C";
shapes = (
{
closed = 1;
nodes = (
(610,0,l),
(610,82,l),
(346,98,l),
(346,830,l),
(397,880,o),
(509,966,o),
(663,966,cs),
(727,966,o),
(767,954,o),
(775,948,c),
(775,1116,l),
(761,1120,o),
(750,1124,o),
(692,1124,cs),
(497,1124,o),
(372,950,o),
(324,892,c),
(320,892,l),
(324,1070,l),
(324,1102,l),
(286,1134,l),
(282,1134,l),
(28,1102,l),
(28,1012,l),
(182,978,l),
(182,96,l),
(22,84,l),
(22,0,l)
);
}
);
userData = {
com.schriftgestaltung.Glyphs.lastChange = "2019-04-25 21:50:43 +0000";
};
width = 848;
},
{
anchors = (
{
name = bottom;
pos = (339,0);
},
{
name = center;
pos = (378,537);
},
{
name = top;
pos = (462,1112);
}
);
layerId = "97BB7961-D669-43AB-8BBF-11FFD0C46A4B";
shapes = (
{
closed = 1;
nodes = (
(725,0,l),
(725,131,l),
(501,150,l),
(501,762,l),
(538,787,o),
(614,824,o),
(721,824,cs),
(822,824,o),
(868,811,o),
(900,787,c),
(900,1119,l),
(884,1126,o),
(856,1133,o),
(805,1133,cs),
(612,1133,o),
(474,956,o),
(450,874,c),
(443,874,l),
(450,1048,l),
(450,1096,l),
(393,1138,l),
(387,1138,l),
(53,1095,l),
(53,938,l),
(172,901,l),
(172,149,l),
(50,131,l),
(50,0,l)
);
}
);
width = 923;
}
);
subCategory = Lowercase;
unicode = 114;
}
{
category = Letter;
color = 4;
glyphname = t;
kernLeft = t;
kernRight = t;
layers = (
{
anchors = (
{
name = bottom;
pos = (385,0);
},
{
name = center;
pos = (385,555);
},
{
name = top;
pos = (316,1271);
},
{
name = topright;
pos = (750,1966);
}
);
layerId = UUID0;
shapes = (
{
closed = 1;
nodes = (
(526,-22,o),
(694,36,o),
(752,80,c),
(726,156,l),
(682,134,o),
(570,106,o),
(488,106,cs),
(378,106,o),
(362,122,o),
(362,344,cs),
(362,990,l),
(718,990,l),
(718,1110,l),
(362,1110,l),
(362,1394,l),
(272,1394,l),
(264,1358,o),
(228,1213,o),
(211,1165,cs),
(198,1130,o),
(188,1116,o),
(166,1102,cs),
(150,1092,o),
(86,1078,o),
(50,1070,c),
(50,990,l),
(202,990,l),
(202,202,ls),
(202,26,o),
(284,-22,o),
(416,-22,cs)
);
}
);
width = 770;
},
{
anchors = (
{
name = bottom;
pos = (411,0);
},
{
name = center;
pos = (411,556);
},
{
name = top;
pos = (396,1271);
},
{
name = topright;
pos = (801,1966);
}
);
layerId = "DEBB1CE4-A72D-4960-969E-E04A036D2FA1";
shapes = (
{
closed = 1;
nodes = (
(574,-18,o),
(731,40,o),
(803,96,c),
(760,221,l),
(718,206,o),
(652,190,o),
(592,190,cs),
(507,190,o),
(491,206,o),
(491,415,cs),
(491,944,l),
(763,944,l),
(763,1112,l),
(488,1112,l),
(476,1412,l),
(287,1412,l),
(269,1346,o),
(246,1276,o),
(225,1225,cs),
(206,1177,o),
(193,1150,o),
(165,1123,cs),
(137,1097,o),
(86,1089,o),
(36,1069,c),
(36,944,l),
(158,944,l),
(158,232,ls),
(158,63,o),
(240,-18,o),
(416,-18,cs)
);
}
);
width = 821;
},
{
anchors = (
{
name = bottom;
pos = (336,0);
},
{
name = center;
pos = (336,503);
},
{
name = top;
pos = (375,1249);
},
{
name = topright;
pos = (652,1966);
}
);
layerId = "184155C8-9F61-4F1C-9784-DDA8EA717636";
shapes = (
{
closed = 1;
nodes = (
(530,-26,o),
(621,33,o),
(681,89,c),
(650,151,l),
(615,131,o),
(575,110,o),
(537,110,cs),
(476,110,o),
(454,126,o),
(454,270,cs),
(454,917,l),
(622,917,l),
(622,1005,l),
(451,1005,l),
(452,1334,l),
(306,1334,l),
(280,1281,o),
(244,1185,o),
(220,1148,cs),
(192,1104,o),
(162,1033,o),
(122,1010,c),
(87,990,o),
(30,972,o),
(-15,956,c),
(-15,917,l),
(108,917,l),
(108,211,ls),
(108,42,o),
(177,-26,o),
(353,-26,cs)
);
}
);
width = 672;
},
{
anchors = (
{
name = bottom;
pos = (346,0);
},
{
name = center;
pos = (346,556);
},
{
name = top;
pos = (326,1271);
},
{
name = topright;
pos = (672,1966);
}
);
layerId = "EA2265BD-E890-48C4-9E90-A53076E780C5";
shapes = (
{
closed = 1;
nodes = (
(490,-18,o),
(622,40,o),
(687,96,c),
(646,219,l),
(611,204,o),
(564,188,o),
(519,188,cs),
(443,188,o),
(435,229,o),
(435,413,cs),
(435,945,l),
(639,945,l),
(639,1112,l),
(432,1112,l),
(419,1412,l),
(235,1412,l),
(217,1346,o),
(200,1273,o),
(181,1222,cs),
(165,1180,o),
(152,1147,o),
(127,1123,cs),
(99,1096,o),
(56,1089,o),
(12,1069,c),
(12,945,l),
(110,945,l),
(110,231,ls),
(110,79,o),
(166,-18,o),
(342,-18,cs)
);
}
);
width = 692;
},
{
anchors = (
{
name = bottom;
pos = (320,0);
},
{
name = center;
pos = (320,555);
},
{
name = top;
pos = (256,1271);
},
{
name = topright;
pos = (620,1966);
}
);
layerId = "0E4B6E2E-ECAB-4D06-9686-B0B40AA31834";
shapes = (
{
closed = 1;
nodes = (
(441,-18,o),
(584,40,o),
(635,84,c),
(611,158,l),
(574,136,o),
(482,106,o),
(414,106,cs),
(310,106,o),
(310,150,o),
(310,344,cs),
(310,991,l),
(584,991,l),
(584,1110,l),
(310,1110,l),
(309,1394,l),
(219,1394,l),
(211,1358,o),
(182,1212,o),
(166,1163,cs),
(155,1131,o),
(144,1114,o),
(127,1102,cs),
(111,1092,o),
(60,1079,o),
(25,1070,c),
(25,991,l),
(153,991,l),
(153,205,ls),
(153,46,o),
(208,-18,o),
(341,-18,cs)
);
}
);
width = 640;
},
{
anchors = (
{
name = bottom;
pos = (297,0);
},
{
name = center;
pos = (297,503);
},
{
name = top;
pos = (365,1249);
},
{
name = topright;
pos = (573,1966);
}
);
layerId = "F2B10EEF-9DDC-48CA-970D-6B8C79870881";
shapes = (
{
closed = 1;
nodes = (
(453,-26,o),
(585,44,o),
(618,84,c),
(588,145,l),
(570,128,o),
(526,112,o),
(486,112,cs),
(423,112,o),
(419,152,o),
(419,339,cs),
(419,917,l),
(558,917,l),
(558,1005,l),
(416,1005,l),
(417,1342,l),
(285,1342,l),
(270,1292,o),
(243,1215,o),
(223,1176,cs),
(201,1133,o),
(153,1029,o),
(118,1009,c),
(77,986,o),
(42,979,o),
(-5,961,c),
(-5,917,l),
(99,917,l),
(99,211,ls),
(99,41,o),
(158,-26,o),
(296,-26,cs)
);
}
);
width = 593;
},
{
anchors = (
{
name = bottom;
pos = (265,0);
},
{
name = center;
pos = (265,503);
},
{
name = top;
pos = (255,1249);
},
{
name = topright;
pos = (509,1966);
}
);
layerId = "E96AC896-F5DF-475B-BBD9-C7FEC6A86D0E";
shapes = (
{
closed = 1;
nodes = (
(389,-14,o),
(454,26,o),
(501,67,c),
(484,106,l),
(438,80,o),
(388,64,o),
(357,64,cs),
(321,64,o),
(291,86,o),
(291,169,cs),
(291,943,l),
(481,943,l),
(481,1005,l),
(292,1005,l),
(292,1309,l),
(233,1309,l),
(215,1216,o),
(182,1112,o),
(166,1067,cs),
(154,1034,o),
(143,1017,o),
(115,1005,cs),
(96,997,o),
(36,985,o),
(20,980,c),
(20,943,l),
(155,943,l),
(155,158,ls),
(155,22,o),
(218,-14,o),
(301,-14,cs)
);
}
);
width = 529;
},
{
anchors = (
{
name = bottom;
pos = (279,0);
},
{
name = center;
pos = (279,503);
},
{
name = top;
pos = (274,1249);
},
{
name = topright;
pos = (538,1966);
}
);
layerId = "C9B9556E-C2FD-4F62-BB40-44923C452C22";
shapes = (
{
closed = 1;
nodes = (
(402,-14,o),
(500,26,o),
(547,67,c),
(530,106,l),
(496,84,o),
(413,64,o),
(375,64,cs),
(338,64,o),
(310,86,o),
(310,169,cs),
(310,943,l),
(528,943,l),
(528,1005,l),
(311,1005,l),
(311,1309,l),
(246,1309,l),
(228,1216,o),
(195,1112,o),
(179,1067,cs),
(167,1034,o),
(156,1017,o),
(128,1005,cs),
(109,997,o),
(49,985,o),
(33,980,c),
(33,943,l),
(168,943,l),
(168,158,ls),
(168,22,o),
(234,-14,o),
(317,-14,cs)
);
}
);
width = 558;
},
{
anchors = (
{
name = bottom;
pos = (356,0);
},
{
name = center;
pos = (356,503);
},
{
name = top;
pos = (405,1249);
},
{
name = topright;
pos = (692,1966);
}
);
layerId = "AFA1064D-EFC9-4C9F-B9B0-9118E41D87C4";
shapes = (
{
closed = 1;
nodes = (
(565,-26,o),
(657,33,o),
(717,89,c),
(686,151,l),
(651,131,o),
(606,110,o),
(565,110,cs),
(504,110,o),
(482,126,o),
(482,270,cs),
(482,917,l),
(668,917,l),
(668,1005,l),
(479,1005,l),
(480,1334,l),
(316,1334,l),
(290,1281,o),
(254,1185,o),
(230,1148,cs),
(202,1104,o),
(172,1033,o),
(132,1010,c),
(97,990,o),
(40,977,o),
(-5,956,c),
(-5,917,l),
(118,917,l),
(118,211,ls),
(118,42,o),
(187,-26,o),
(363,-26,cs)
);
}
);
width = 712;
},
{
anchors = (
{
name = bottom;
pos = (300,0);
},
{
name = center;
pos = (300,503);
},
{
name = top;
pos = (275,1249);
},
{
name = topright;
pos = (580,1966);
}
);
layerId = "2103F1D3-C390-4F79-A87D-298F85EA6916";
shapes = (
{
closed = 1;
nodes = (
(450,-14,o),
(550,36,o),
(597,77,c),
(580,116,l),
(546,94,o),
(452,64,o),
(387,64,cs),
(350,64,o),
(305,86,o),
(305,169,cs),
(305,937,l),
(557,937,l),
(557,1005,l),
(306,1005,l),
(306,1309,l),
(245,1309,l),
(227,1216,o),
(203,1112,o),
(187,1067,cs),
(175,1034,o),
(164,1017,o),
(136,1005,cs),
(117,997,o),
(28,985,o),
(12,980,c),
(12,937,l),
(166,937,l),
(166,158,ls),
(166,22,o),
(245,-14,o),
(328,-14,cs)
);
}
);
width = 600;
},
{
anchors = (
{
name = bottom;
pos = (390,0);
},
{
name = center;
pos = (390,555);
},
{
name = top;
pos = (306,1271);
},
{
name = topright;
pos = (760,1966);
}
);
layerId = "779F1615-9D1A-4778-9767-9A030AA58B6C";
shapes = (
{
closed = 1;
nodes = (
(532,-22,o),
(700,36,o),
(758,80,c),
(732,156,l),
(688,134,o),
(576,106,o),
(494,106,cs),
(384,106,o),
(358,122,o),
(358,344,cs),
(358,990,l),
(724,990,l),
(724,1110,l),
(358,1110,l),
(358,1394,l),
(268,1394,l),
(260,1358,o),
(224,1213,o),
(207,1165,cs),
(194,1130,o),
(184,1116,o),
(162,1102,cs),
(146,1092,o),
(82,1078,o),
(46,1070,c),
(46,990,l),
(198,990,l),
(198,202,ls),
(198,26,o),
(290,-22,o),
(422,-22,cs)
);
}
);
userData = {
com.schriftgestaltung.Glyphs.lastChange = "2019-04-25 21:50:43 +0000";
};
width = 780;
},
{
anchors = (
{
name = bottom;
pos = (402,0);
},
{
name = center;
pos = (402,556);
},
{
name = top;
pos = (396,1271);
},
{
name = topright;
pos = (784,1966);
}
);
layerId = "97BB7961-D669-43AB-8BBF-11FFD0C46A4B";
shapes = (
{
closed = 1;
nodes = (
(563,-18,o),
(728,40,o),
(800,96,c),
(757,221,l),
(715,206,o),
(666,190,o),
(606,190,cs),
(521,190,o),
(497,206,o),
(497,415,cs),
(497,944,l),
(762,944,l),
(762,1112,l),
(494,1112,l),
(482,1412,l),
(276,1412,l),
(258,1346,o),
(235,1276,o),
(214,1225,cs),
(195,1177,o),
(182,1150,o),
(154,1123,cs),
(126,1097,o),
(75,1089,o),
(25,1069,c),
(25,944,l),
(147,944,l),
(147,232,ls),
(147,63,o),
(229,-18,o),
(405,-18,cs)
);
}
);
width = 804;
}
);
subCategory = Lowercase;
unicode = 116;
}
{
color = 4;
glyphname = u;
layers = (
{
anchors = (
{
name = bottom;
pos = (622,0);
},
{
name = center;
pos = (604,560);
},
{
name = ogonek;
pos = (1119,10);
},
{
name = top;
pos = (586,1110);
},
{
name = topright;
pos = (979,1134);
}
);
layerId = UUID0;
shapes = (
{
closed = 1;
nodes = (
(1053,-18,o),
(1105,0,o),
(1149,12,c),
(1151,88,l),
(1027,88,l),
(1027,1110,l),
(981,1134,l),
(979,1134,l),
(713,1108,l),
(713,1034,l),
(865,1000,l),
(865,228,l),
(803,174,o),
(692,100,o),
(567,100,cs),
(381,100,o),
(340,198,o),
(340,436,cs),
(340,1110,l),
(304,1134,l),
(302,1134,l),
(60,1108,l),
(60,1034,l),
(178,1000,l),
(178,412,ls),
(178,108,o),
(271,-22,o),
(517,-22,cs),
(660,-22,o),
(803,72,o),
(883,144,c),
(883,66,ls),
(883,-2,o),
(919,-18,o),
(983,-18,cs)
);
}
);
width = 1243;
},
{
anchors = (
{
name = bottom;
pos = (649,0);
},
{
name = center;
pos = (644,567);
},
{
name = ogonek;
pos = (1168,10);
},
{
name = top;
pos = (623,1112);
},
{
name = topright;
pos = (1078,1136);
}
);
layerId = "DEBB1CE4-A72D-4960-969E-E04A036D2FA1";
shapes = (
{
closed = 1;
nodes = (
(1094,-20,o),
(1188,0,o),
(1238,10,c),
(1238,138,l),
(1132,138,l),
(1132,1108,l),
(1084,1136,l),
(1078,1136,l),
(680,1110,l),
(680,986,l),
(806,956,l),
(806,236,l),
(776,206,o),
(714,160,o),
(618,160,cs),
(510,160,o),
(472,218,o),
(472,392,cs),
(472,1108,l),
(428,1136,l),
(426,1136,l),
(50,1110,l),
(50,982,l),
(144,956,l),
(144,400,ls),
(144,96,o),
(244,-22,o),
(506,-22,cs),
(644,-22,o),
(784,64,o),
(844,146,c),
(844,102,ls),
(844,24,o),
(882,-20,o),
(980,-20,cs)
);
}
);
width = 1298;
},
{
anchors = (
{
name = bottom;
pos = (571,0);
},
{
name = center;
pos = (564,487);
},
{
name = ogonek;
pos = (1024,10);
},
{
name = top;
pos = (571,1005);
},
{
name = topright;
pos = (955,1035);
}
);
layerId = "184155C8-9F61-4F1C-9784-DDA8EA717636";
shapes = (
{
closed = 1;
nodes = (
(977,-19,o),
(1060,0,o),
(1110,10,c),
(1110,50,l),
(1036,68,l),
(1036,992,l),
(977,1035,l),
(939,1035,l),
(598,921,l),
(598,880,l),
(705,833,l),
(705,208,l),
(669,183,o),
(625,156,o),
(545,156,cs),
(473,156,o),
(449,204,o),
(449,324,cs),
(449,992,l),
(395,1035,l),
(363,1035,l),
(22,921,l),
(22,880,l),
(116,833,l),
(116,322,ls),
(116,87,o),
(208,-20,o),
(403,-20,cs),
(533,-20,o),
(648,66,o),
(718,177,c),
(718,71,ls),
(718,-12,o),
(777,-19,o),
(867,-19,cs)
);
}
);
width = 1136;
},
{
anchors = (
{
name = bottom;
pos = (568,0);
},
{
name = center;
pos = (536,564);
},
{
name = ogonek;
pos = (1022,10);
},
{
name = top;
pos = (541,1112);
},
{
name = topright;
pos = (946,1136);
}
);
layerId = "EA2265BD-E890-48C4-9E90-A53076E780C5";
shapes = (
{
closed = 1;
nodes = (
(962,-20,o),
(1056,0,o),
(1106,10,c),
(1106,138,l),
(1000,138,l),
(1000,1108,l),
(952,1136,l),
(946,1136,l),
(607,1110,l),
(607,986,l),
(687,956,l),
(687,236,l),
(659,186,o),
(616,160,o),
(558,160,cs),
(470,160,o),
(420,218,o),
(420,372,cs),
(420,1108,l),
(376,1136,l),
(374,1136,l),
(14,1110,l),
(14,982,l),
(107,956,l),
(107,375,ls),
(107,96,o),
(224,-22,o),
(460,-22,cs),
(588,-22,o),
(677,54,o),
(725,146,c),
(725,102,ls),
(725,24,o),
(763,-20,o),
(861,-20,cs)
);
}
);
width = 1136;
},
{
anchors = (
{
name = bottom;
pos = (521,0);
},
{
name = center;
pos = (514,567);
},
{
name = ogonek;
pos = (938,10);
},
{
name = top;
pos = (500,1110);
},
{
name = topright;
pos = (817,1134);
}
);
layerId = "0E4B6E2E-ECAB-4D06-9686-B0B40AA31834";
shapes = (
{
closed = 1;
nodes = (
(896,-18,o),
(952,0,o),
(990,12,c),
(992,88,l),
(884,88,l),
(884,1110,l),
(843,1134,l),
(841,1134,l),
(600,1108,l),
(600,1034,l),
(734,1000,l),
(734,237,l),
(690,183,o),
(613,96,o),
(472,96,cs),
(321,96,o),
(288,191,o),
(288,410,cs),
(288,1110,l),
(256,1134,l),
(255,1134,l),
(35,1108,l),
(35,1034,l),
(138,1000,l),
(138,386,ls),
(138,103,o),
(233,-22,o),
(433,-22,cs),
(579,-22,o),
(687,69,o),
(747,141,c),
(747,66,ls),
(747,-2,o),
(783,-18,o),
(845,-18,cs)
);
}
);
width = 1042;
},
{
anchors = (
{
name = bottom;
pos = (510,0);
},
{
name = center;
pos = (507,487);
},
{
name = ogonek;
pos = (926,10);
},
{
name = top;
pos = (503,1005);
},
{
name = topright;
pos = (860,1022);
}
);
background = {
shapes = (
{
closed = 1;
nodes = (
(917,-19,o),
(1000,0,o),
(1050,10,c),
(1050,50,l),
(976,68,l),
(976,992,l),
(917,1035,l),
(879,1035,l),
(538,921,l),
(538,880,l),
(645,833,l),
(645,208,l),
(609,183,o),
(565,156,o),
(485,156,cs),
(413,156,o),
(389,204,o),
(389,324,cs),
(389,992,l),
(335,1035,l),
(303,1035,l),
(-38,921,l),
(-38,880,l),
(56,833,l),
(56,322,ls),
(56,87,o),
(148,-20,o),
(343,-20,cs),
(473,-20,o),
(588,66,o),
(658,177,c),
(658,71,ls),
(658,-12,o),
(717,-19,o),
(807,-19,cs)
);
}
);
};
layerId = "F2B10EEF-9DDC-48CA-970D-6B8C79870881";
shapes = (
{
closed = 1;
nodes = (
(882,-19,o),
(949,0,o),
(985,10,c),
(985,50,l),
(921,68,l),
(921,992,l),
(870,1022,l),
(832,1022,l),
(518,921,l),
(518,880,l),
(608,833,l),
(608,204,l),
(570,173,o),
(532,156,o),
(485,156,cs),
(430,156,o),
(409,182,o),
(409,323,cs),
(409,992,l),
(358,1022,l),
(320,1022,l),
(8,921,l),
(8,880,l),
(96,833,l),
(96,333,ls),
(96,96,o),
(180,-20,o),
(337,-20,cs),
(504,-20,o),
(577,75,o),
(617,162,c),
(617,93,ls),
(617,10,o),
(660,-19,o),
(727,-19,cs)
);
}
);
width = 1010;
},
{
anchors = (
{
name = bottom;
pos = (484,0);
},
{
name = center;
pos = (480,522);
},
{
name = ogonek;
pos = (873,10);
},
{
name = top;
pos = (474,1005);
},
{
name = topright;
pos = (779,1010);
}
);
layerId = "E96AC896-F5DF-475B-BBD9-C7FEC6A86D0E";
shapes = (
{
closed = 1;
nodes = (
(832,-16,o),
(880,0,o),
(922,14,c),
(922,47,l),
(813,47,l),
(813,998,l),
(797,1010,l),
(761,1010,l),
(553,958,l),
(553,931,l),
(680,896,l),
(680,193,l),
(606,117,o),
(513,66,o),
(422,66,cs),
(300,66,o),
(272,153,o),
(272,292,cs),
(272,998,l),
(256,1010,l),
(217,1010,l),
(28,958,l),
(28,931,l),
(138,896,l),
(139,286,ls),
(139,91,o),
(215,-20,o),
(378,-20,cs),
(537,-20,o),
(627,84,o),
(681,158,c),
(681,66,ls),
(681,8,o),
(717,-16,o),
(770,-16,cs)
);
}
);
width = 950;
},
{
anchors = (
{
name = bottom;
pos = (505,0);
},
{
name = center;
pos = (495,484);
},
{
name = ogonek;
pos = (908,10);
},
{
name = top;
pos = (485,1005);
},
{
name = topright;
pos = (828,1010);
}
);
layerId = "C9B9556E-C2FD-4F62-BB40-44923C452C22";
shapes = (
{
closed = 1;
nodes = (
(889,-16,o),
(937,0,o),
(979,14,c),
(979,47,l),
(871,47,l),
(871,998,l),
(855,1010,l),
(818,1010,l),
(598,958,l),
(598,931,l),
(733,896,l),
(733,193,l),
(666,125,o),
(568,66,o),
(436,66,cs),
(297,66,o),
(268,173,o),
(268,332,cs),
(268,998,l),
(252,1010,l),
(213,1010,l),
(5,958,l),
(5,931,l),
(130,896,l),
(131,326,ls),
(131,81,o),
(209,-20,o),
(420,-20,cs),
(575,-20,o),
(675,84,o),
(734,158,c),
(734,66,ls),
(734,8,o),
(770,-16,o),
(827,-16,cs)
);
}
);
width = 1009;
},
{
anchors = (
{
name = bottom;
pos = (594,0);
},
{
name = center;
pos = (585,490);
},
{
name = ogonek;
pos = (1069,10);
},
{
name = top;
pos = (584,1005);
},
{
name = topright;
pos = (1009,1035);
}
);
annotations = (
{
pos = (1603,-442);
type = Text;
}
);
layerId = "AFA1064D-EFC9-4C9F-B9B0-9118E41D87C4";
shapes = (
{
closed = 1;
nodes = (
(1014,-19,o),
(1101,0,o),
(1153,10,c),
(1153,50,l),
(1077,68,l),
(1077,992,l),
(1015,1035,l),
(975,1035,l),
(613,921,l),
(613,880,l),
(734,833,l),
(734,204,l),
(696,183,o),
(654,153,o),
(568,153,cs),
(479,153,o),
(446,202,o),
(446,314,cs),
(446,992,l),
(391,1035,l),
(354,1035,l),
(0,921,l),
(0,880,l),
(103,833,l),
(103,327,ls),
(103,96,o),
(200,-20,o),
(393,-20,cs),
(551,-20,o),
(696,72,o),
(747,167,c),
(747,71,ls),
(747,-12,o),
(809,-19,o),
(896,-19,cs)
);
}
);
width = 1188;
},
{
anchors = (
{
name = bottom;
pos = (544,0);
},
{
name = center;
pos = (533,520);
},
{
name = ogonek;
pos = (978,10);
},
{
name = top;
pos = (544,1005);
},
{
name = topright;
pos = (920,1010);
}
);
layerId = "2103F1D3-C390-4F79-A87D-298F85EA6916";
shapes = (
{
closed = 1;
nodes = (
(961,-16,o),
(1009,0,o),
(1051,14,c),
(1051,47,l),
(943,47,l),
(943,998,l),
(927,1010,l),
(890,1010,l),
(656,958,l),
(656,931,l),
(800,896,l),
(800,193,l),
(733,127,o),
(604,66,o),
(502,66,cs),
(363,66,o),
(289,143,o),
(289,322,cs),
(289,998,l),
(273,1010,l),
(234,1010,l),
(28,958,l),
(28,931,l),
(145,896,l),
(146,316,ls),
(146,111,o),
(255,-20,o),
(466,-20,cs),
(602,-20,o),
(742,82,o),
(801,158,c),
(801,66,ls),
(801,8,o),
(837,-16,o),
(894,-16,cs)
);
}
);
width = 1087;
},
{
anchors = (
{
name = bottom;
pos = (616,0);
},
{
name = center;
pos = (594,559);
},
{
name = ogonek;
pos = (1108,10);
},
{
name = top;
pos = (592,1110);
},
{
name = topright;
pos = (983,1134);
}
);
layerId = "779F1615-9D1A-4778-9767-9A030AA58B6C";
shapes = (
{
closed = 1;
nodes = (
(1088,-18,o),
(1127,0,o),
(1175,12,c),
(1177,88,l),
(1060,88,l),
(1060,1110,l),
(1010,1134,l),
(1008,1134,l),
(738,1108,l),
(738,1034,l),
(897,1000,l),
(897,228,l),
(829,174,o),
(708,100,o),
(558,100,cs),
(361,100,o),
(305,198,o),
(305,436,cs),
(305,1110,l),
(266,1134,l),
(264,1134,l),
(11,1108,l),
(11,1034,l),
(142,1000,l),
(142,412,ls),
(142,108,o),
(249,-22,o),
(517,-22,cs),
(673,-22,o),
(825,67,o),
(913,144,c),
(913,66,ls),
(913,-2,o),
(950,-18,o),
(1012,-18,cs)
);
}
);
userData = {
com.schriftgestaltung.Glyphs.lastChange = "2019-04-25 21:50:43 +0000";
};
width = 1231;
},
{
anchors = (
{
name = bottom;
pos = (659,0);
},
{
name = center;
pos = (644,564);
},
{
name = ogonek;
pos = (1186,10);
},
{
name = top;
pos = (632,1112);
},
{
name = topright;
pos = (1098,1136);
}
);
layerId = "97BB7961-D669-43AB-8BBF-11FFD0C46A4B";
shapes = (
{
closed = 1;
nodes = (
(1114,-20,o),
(1208,0,o),
(1258,10,c),
(1258,138,l),
(1152,148,l),
(1152,1108,l),
(1104,1136,l),
(1098,1136,l),
(692,1110,l),
(692,986,l),
(826,956,l),
(826,236,l),
(796,206,o),
(724,160,o),
(628,160,cs),
(500,160,o),
(462,218,o),
(462,392,cs),
(462,1108,l),
(418,1136,l),
(416,1136,l),
(30,1110,l),
(30,982,l),
(124,956,l),
(124,400,ls),
(124,96,o),
(234,-22,o),
(506,-22,cs),
(654,-22,o),
(804,64,o),
(864,146,c),
(864,102,ls),
(864,24,o),
(902,-20,o),
(1000,-20,cs)
);
}
);
width = 1318;
}
);
unicode = 117;
userData = {
KernOnName = u;
};
}
{
category = Letter;
glyphname = v;
kernLeft = v;
kernRight = v;
layers = (
{
anchors = (
{
name = bottom;
pos = (558,0);
},
{
name = top;
pos = (558,1110);
}
);
layerId = UUID0;
shapes = (
{
closed = 1;
nodes = (
(92,1002,l),
(496,-16,l),
(630,-16,l),
(1024,1002,l),
(1126,1028,l),
(1126,1110,l),
(744,1110,l),
(744,1028,l),
(884,1002,l),
(670,398,l),
(586,124,l),
(488,408,l),
(274,1002,l),
(422,1028,l),
(422,1110,l),
(-2,1110,l),
(-2,1028,l)
);
}
);
width = 1115;
},
{
anchors = (
{
name = bottom;
pos = (599,0);
},
{
name = top;
pos = (599,1112);
}
);
layerId = "DEBB1CE4-A72D-4960-969E-E04A036D2FA1";
shapes = (
{
closed = 1;
nodes = (
(76,959,l),
(467,-16,l),
(734,-16,l),
(1104,959,l),
(1209,984,l),
(1209,1112,l),
(746,1112,l),
(746,984,l),
(868,959,l),
(697,429,l),
(654,250,l),
(603,432,l),
(441,959,l),
(566,984,l),
(566,1112,l),
(-2,1112,l),
(-2,984,l)
);
}
);
width = 1198;
},
{
anchors = (
{
name = bottom;
pos = (497,0);
},
{
name = top;
pos = (603,1005);
}
);
layerId = "184155C8-9F61-4F1C-9784-DDA8EA717636";
shapes = (
{
closed = 1;
nodes = (
(39,921,l),
(340,0,l),
(670,0,l),
(952,921,l),
(1063,967,l),
(1063,1005,l),
(707,1005,l),
(707,966,l),
(839,921,l),
(706,329,l),
(646,120,l),
(585,349,l),
(433,921,l),
(538,967,l),
(538,1005,l),
(-52,1005,l),
(-52,967,l)
);
}
);
width = 993;
},
{
anchors = (
{
name = bottom;
pos = (518,0);
},
{
name = top;
pos = (518,1112);
}
);
layerId = "EA2265BD-E890-48C4-9E90-A53076E780C5";
shapes = (
{
closed = 1;
nodes = (
(72,960,l),
(386,-16,l),
(662,-16,l),
(971,960,l),
(1062,985,l),
(1062,1112,l),
(644,1112,l),
(644,985,l),
(744,960,l),
(604,438,l),
(577,257,l),
(545,441,l),
(422,960,l),
(523,985,l),
(523,1112,l),
(9,1112,l),
(9,985,l)
);
}
);
width = 1036;
},
{
anchors = (
{
name = bottom;
pos = (483,0);
},
{
name = top;
pos = (483,1110);
}
);
layerId = "0E4B6E2E-ECAB-4D06-9686-B0B40AA31834";
shapes = (
{
closed = 1;
nodes = (
(77,1003,l),
(414,-16,l),
(543,-16,l),
(889,1003,l),
(977,1029,l),
(977,1110,l),
(640,1110,l),
(640,1029,l),
(758,1003,l),
(569,397,l),
(501,121,l),
(422,407,l),
(253,1003,l),
(377,1029,l),
(377,1110,l),
(-2,1110,l),
(-2,1029,l)
);
}
);
width = 966;
},
{
anchors = (
{
name = bottom;
pos = (409,0);
},
{
name = top;
pos = (503,1005);
}
);
layerId = "F2B10EEF-9DDC-48CA-970D-6B8C79870881";
shapes = (
{
closed = 1;
nodes = (
(15,917,l),
(275,0,l),
(555,0,l),
(804,917,l),
(907,961,l),
(907,1005,l),
(605,1005,l),
(605,960,l),
(714,917,l),
(575,402,l),
(519,178,l),
(462,404,l),
(356,917,l),
(441,961,l),
(441,1005,l),
(-62,1005,l),
(-62,961,l)
);
}
);
width = 817;
},
{
anchors = (
{
name = bottom;
pos = (410,0);
},
{
name = top;
pos = (410,1005);
}
);
layerId = "E96AC896-F5DF-475B-BBD9-C7FEC6A86D0E";
shapes = (
{
closed = 1;
nodes = (
(53,943,l),
(330,0,l),
(464,0,l),
(759,943,l),
(832,970,l),
(832,1005,l),
(575,1005,l),
(575,970,l),
(667,943,l),
(460,184,l),
(432,55,l),
(400,183,l),
(191,943,l),
(283,970,l),
(283,1005,l),
(-20,1005,l),
(-20,970,l)
);
}
);
width = 820;
},
{
anchors = (
{
name = bottom;
pos = (455,0);
},
{
name = top;
pos = (497,1005);
}
);
layerId = "C9B9556E-C2FD-4F62-BB40-44923C452C22";
shapes = (
{
closed = 1;
nodes = (
(68,943,l),
(387,0,l),
(518,0,l),
(860,943,l),
(942,970,l),
(942,1005,l),
(654,1005,l),
(654,970,l),
(757,943,l),
(524,184,l),
(492,55,l),
(456,183,l),
(214,943,l),
(329,970,l),
(329,1005,l),
(-15,1005,l),
(-15,970,l)
);
}
);
width = 910;
},
{
anchors = (
{
name = bottom;
pos = (517,0);
},
{
name = top;
pos = (587,1005);
}
);
layerId = "AFA1064D-EFC9-4C9F-B9B0-9118E41D87C4";
shapes = (
{
closed = 1;
nodes = (
(38,921,l),
(370,0,l),
(689,0,l),
(1003,921,l),
(1118,967,l),
(1118,1005,l),
(774,1005,l),
(774,966,l),
(898,921,l),
(725,336,l),
(658,130,l),
(607,336,l),
(434,921,l),
(547,967,l),
(547,1005,l),
(-51,1005,l),
(-51,967,l)
);
}
);
width = 1033;
},
{
anchors = (
{
name = bottom;
pos = (490,0);
},
{
name = top;
pos = (497,1005);
}
);
layerId = "2103F1D3-C390-4F79-A87D-298F85EA6916";
shapes = (
{
closed = 1;
nodes = (
(70,943,l),
(419,0,l),
(557,0,l),
(925,943,l),
(1014,970,l),
(1014,1005,l),
(714,1005,l),
(714,970,l),
(825,943,l),
(564,184,l),
(529,55,l),
(490,183,l),
(220,943,l),
(351,970,l),
(351,1005,l),
(-20,1005,l),
(-20,970,l)
);
}
);
width = 979;
},
{
anchors = (
{
name = bottom;
pos = (568,0);
},
{
name = top;
pos = (568,1110);
}
);
layerId = "779F1615-9D1A-4778-9767-9A030AA58B6C";
shapes = (
{
closed = 1;
nodes = (
(92,1002,l),
(506,-16,l),
(640,-16,l),
(1044,1002,l),
(1146,1028,l),
(1146,1110,l),
(764,1110,l),
(764,1028,l),
(904,1002,l),
(680,398,l),
(596,124,l),
(498,408,l),
(274,1002,l),
(422,1028,l),
(422,1110,l),
(-2,1110,l),
(-2,1028,l)
);
}
);
userData = {
com.schriftgestaltung.Glyphs.lastChange = "2019-04-25 21:50:43 +0000";
};
width = 1135;
},
{
anchors = (
{
name = bottom;
pos = (596,0);
},
{
name = top;
pos = (596,1112);
}
);
layerId = "97BB7961-D669-43AB-8BBF-11FFD0C46A4B";
shapes = (
{
closed = 1;
nodes = (
(44,956,l),
(453,-16,l),
(758,-16,l),
(1143,956,l),
(1252,981,l),
(1252,1103,l),
(791,1103,l),
(791,981,l),
(917,956,l),
(721,429,l),
(678,250,l),
(627,432,l),
(436,956,l),
(563,981,l),
(563,1103,l),
(-47,1103,l),
(-47,981,l)
);
}
);
width = 1191;
}
);
subCategory = Lowercase;
unicode = 118;
}
{
glyphname = x;
layers = (
{
anchors = (
{
name = bottom;
pos = (579,0);
},
{
name = bottomright;
pos = (1137,0);
},
{
name = center;
pos = (575,558);
},
{
name = top;
pos = (579,1110);
}
);
layerId = UUID0;
shapes = (
{
closed = 1;
nodes = (
(20,84,l),
(20,0,l),
(461,0,l),
(461,84,l),
(285,102,l),
(497,398,l),
(553,486,l),
(615,396,l),
(815,102,l),
(673,84,l),
(673,0,l),
(1137,0,l),
(1137,84,l),
(1027,100,l),
(667,576,l),
(1003,1004,l),
(1117,1028,l),
(1117,1110,l),
(713,1110,l),
(713,1028,l),
(867,1004,l),
(657,722,l),
(603,636,l),
(543,724,l),
(345,1004,l),
(491,1028,l),
(491,1110,l),
(46,1110,l),
(46,1028,l),
(147,1004,l),
(495,558,l),
(141,102,l)
);
}
);
width = 1157;
},
{
anchors = (
{
name = bottom;
pos = (632,0);
},
{
name = bottomright;
pos = (1246,0);
},
{
name = center;
pos = (635,558);
},
{
name = top;
pos = (632,1112);
}
);
layerId = "DEBB1CE4-A72D-4960-969E-E04A036D2FA1";
shapes = (
{
closed = 1;
nodes = (
(17,130,l),
(17,0,l),
(506,0,l),
(506,130,l),
(359,151,l),
(503,364,l),
(550,451,l),
(609,363,l),
(750,151,l),
(641,130,l),
(641,0,l),
(1246,0,l),
(1246,130,l),
(1147,150,l),
(812,586,l),
(1111,961,l),
(1222,984,l),
(1222,1112,l),
(786,1112,l),
(786,984,l),
(913,961,l),
(770,762,l),
(719,677,l),
(669,761,l),
(529,961,l),
(652,984,l),
(652,1112,l),
(37,1112,l),
(37,984,l),
(137,961,l),
(455,542,l),
(140,151,l)
);
}
);
width = 1263;
},
{
anchors = (
{
name = bottom;
pos = (530,0);
},
{
name = bottomright;
pos = (1089,0);
},
{
name = center;
pos = (533,504);
},
{
name = top;
pos = (540,1005);
}
);
layerId = "184155C8-9F61-4F1C-9784-DDA8EA717636";
shapes = (
{
closed = 1;
nodes = (
(-29,38,l),
(-29,0,l),
(358,0,l),
(358,38,l),
(206,71,l),
(360,314,l),
(414,401,l),
(475,295,l),
(607,71,l),
(500,38,l),
(500,0,l),
(1089,0,l),
(1089,38,l),
(992,71,l),
(682,557,l),
(976,935,l),
(1084,966,l),
(1084,1005,l),
(704,1005,l),
(704,966,l),
(845,934,l),
(700,696,l),
(648,607,l),
(585,712,l),
(453,935,l),
(560,966,l),
(560,1005,l),
(-28,1005,l),
(-28,966,l),
(67,935,l),
(376,450,l),
(80,71,l)
);
}
);
width = 1060;
},
{
anchors = (
{
name = bottom;
pos = (529,0);
},
{
name = bottomright;
pos = (1046,0);
},
{
name = center;
pos = (528,558);
},
{
name = top;
pos = (539,1112);
}
);
layerId = "EA2265BD-E890-48C4-9E90-A53076E780C5";
shapes = (
{
closed = 1;
nodes = (
(11,130,l),
(11,0,l),
(407,0,l),
(407,130,l),
(282,151,l),
(394,374,l),
(434,461,l),
(484,373,l),
(597,151,l),
(512,130,l),
(512,0,l),
(1046,0,l),
(1046,130,l),
(965,150,l),
(697,576,l),
(951,961,l),
(1026,984,l),
(1026,1112,l),
(675,1112,l),
(675,984,l),
(783,961,l),
(674,752,l),
(631,667,l),
(588,751,l),
(474,961,l),
(571,984,l),
(571,1112,l),
(28,1112,l),
(28,984,l),
(113,961,l),
(363,552,l),
(95,151,l)
);
}
);
width = 1057;
},
{
anchors = (
{
name = bottom;
pos = (470,0);
},
{
name = bottomright;
pos = (935,0);
},
{
name = center;
pos = (469,558);
},
{
name = top;
pos = (490,1110);
}
);
layerId = "0E4B6E2E-ECAB-4D06-9686-B0B40AA31834";
shapes = (
{
closed = 1;
nodes = (
(5,84,l),
(5,0,l),
(362,0,l),
(362,84,l),
(221,102,l),
(398,398,l),
(442,486,l),
(492,396,l),
(662,102,l),
(551,84,l),
(551,0,l),
(935,0,l),
(935,84,l),
(852,100,l),
(552,576,l),
(830,1004,l),
(929,1028,l),
(929,1110,l),
(598,1110,l),
(598,1028,l),
(721,1004,l),
(546,722,l),
(502,636,l),
(454,724,l),
(286,1004,l),
(400,1028,l),
(400,1110,l),
(16,1110,l),
(16,1028,l),
(107,1004,l),
(396,558,l),
(106,102,l)
);
}
);
width = 940;
},
{
anchors = (
{
name = bottom;
pos = (456,0);
},
{
name = bottomright;
pos = (930,0);
},
{
name = center;
pos = (455,502);
},
{
name = top;
pos = (466,1005);
}
);
layerId = "F2B10EEF-9DDC-48CA-970D-6B8C79870881";
shapes = (
{
closed = 1;
nodes = (
(-19,38,l),
(-19,0,l),
(304,0,l),
(304,38,l),
(194,71,l),
(311,294,l),
(356,381,l),
(401,293,l),
(502,71,l),
(410,38,l),
(410,0,l),
(930,0,l),
(930,38,l),
(856,71,l),
(594,557,l),
(836,935,l),
(925,966,l),
(925,1005,l),
(611,1005,l),
(611,966,l),
(711,934,l),
(603,711,l),
(559,622,l),
(513,712,l),
(415,935,l),
(503,966,l),
(503,1005,l),
(-18,1005,l),
(-18,966,l),
(60,935,l),
(318,448,l),
(74,71,l)
);
}
);
width = 911;
},
{
anchors = (
{
name = bottom;
pos = (425,0);
},
{
name = bottomright;
pos = (852,0);
},
{
name = center;
pos = (425,501);
},
{
name = top;
pos = (445,1005);
}
);
layerId = "E96AC896-F5DF-475B-BBD9-C7FEC6A86D0E";
shapes = (
{
closed = 1;
nodes = (
(7,37,l),
(7,0,l),
(295,0,l),
(295,37,l),
(196,71,l),
(322,310,l),
(393,448,l),
(473,300,l),
(609,71,l),
(496,37,l),
(496,0,l),
(852,0,l),
(852,37,l),
(765,71,l),
(481,529,l),
(748,936,l),
(838,970,l),
(838,1005,l),
(562,1005,l),
(562,970,l),
(659,936,l),
(505,675,l),
(454,564,l),
(389,685,l),
(240,936,l),
(358,970,l),
(358,1005,l),
(-2,1005,l),
(-2,970,l),
(83,936,l),
(365,487,l),
(100,71,l)
);
}
);
width = 850;
},
{
anchors = (
{
name = bottom;
pos = (498,0);
},
{
name = bottomright;
pos = (973,0);
},
{
name = center;
pos = (496,504);
},
{
name = top;
pos = (507,1005);
}
);
layerId = "C9B9556E-C2FD-4F62-BB40-44923C452C22";
shapes = (
{
closed = 1;
nodes = (
(33,37,l),
(33,0,l),
(339,0,l),
(339,37,l),
(233,71,l),
(378,310,l),
(457,451,l),
(550,300,l),
(689,71,l),
(568,37,l),
(568,0,l),
(973,0,l),
(973,37,l),
(861,71,l),
(553,532,l),
(831,936,l),
(926,970,l),
(926,1005,l),
(633,1005,l),
(633,970,l),
(736,936,l),
(572,675,l),
(518,564,l),
(449,685,l),
(301,936,l),
(427,970,l),
(427,1005,l),
(23,1005,l),
(23,970,l),
(124,936,l),
(424,487,l),
(131,71,l)
);
}
);
width = 996;
},
{
anchors = (
{
name = bottom;
pos = (545,0);
},
{
name = bottomright;
pos = (1130,0);
},
{
name = center;
pos = (547,503);
},
{
name = top;
pos = (543,1005);
}
);
layerId = "AFA1064D-EFC9-4C9F-B9B0-9118E41D87C4";
shapes = (
{
closed = 1;
nodes = (
(-30,38,l),
(-30,0,l),
(364,0,l),
(364,38,l),
(230,71,l),
(364,296,l),
(420,383,l),
(474,295,l),
(608,71,l),
(499,38,l),
(499,0,l),
(1130,0,l),
(1130,38,l),
(1032,71,l),
(715,557,l),
(1005,935,l),
(1115,966,l),
(1115,1005,l),
(728,1005,l),
(728,966,l),
(851,934,l),
(726,711,l),
(672,622,l),
(616,712,l),
(482,935,l),
(591,966,l),
(591,1005,l),
(-39,1005,l),
(-39,966,l),
(57,935,l),
(373,450,l),
(81,71,l)
);
}
);
width = 1090;
},
{
anchors = (
{
name = bottom;
pos = (529,0);
},
{
name = bottomright;
pos = (1038,0);
},
{
name = center;
pos = (529,503);
},
{
name = top;
pos = (527,1005);
}
);
layerId = "2103F1D3-C390-4F79-A87D-298F85EA6916";
shapes = (
{
closed = 1;
nodes = (
(21,37,l),
(21,0,l),
(352,0,l),
(352,37,l),
(237,71,l),
(394,310,l),
(477,453,l),
(574,312,l),
(733,71,l),
(600,37,l),
(600,0,l),
(1038,0,l),
(1038,37,l),
(904,71,l),
(581,534,l),
(884,936,l),
(987,970,l),
(987,1005,l),
(670,1005,l),
(670,970,l),
(782,936,l),
(608,685,l),
(546,564,l),
(467,685,l),
(287,936,l),
(437,970,l),
(437,1005,l),
(20,1005,l),
(20,970,l),
(115,936,l),
(444,487,l),
(127,71,l)
);
}
);
width = 1058;
},
{
anchors = (
{
name = bottom;
pos = (617,0);
},
{
name = bottomright;
pos = (1221,0);
},
{
name = center;
pos = (617,554);
},
{
name = top;
pos = (627,1110);
}
);
layerId = "779F1615-9D1A-4778-9767-9A030AA58B6C";
shapes = (
{
closed = 1;
nodes = (
(12,84,l),
(12,0,l),
(482,0,l),
(482,84,l),
(301,102,l),
(527,400,l),
(584,488,l),
(651,398,l),
(879,102,l),
(707,84,l),
(707,0,l),
(1221,0,l),
(1221,84,l),
(1088,100,l),
(705,576,l),
(1065,1004,l),
(1200,1028,l),
(1200,1110,l),
(760,1110,l),
(760,1028,l),
(921,1004,l),
(695,721,l),
(639,635,l),
(574,723,l),
(363,1004,l),
(525,1028,l),
(525,1110,l),
(40,1110,l),
(40,1028,l),
(154,1004,l),
(523,557,l),
(148,102,l)
);
}
);
userData = {
com.schriftgestaltung.Glyphs.lastChange = "2019-04-25 21:50:43 +0000";
};
width = 1233;
},
{
anchors = (
{
name = bottom;
pos = (641,0);
},
{
name = bottomright;
pos = (1282,0);
},
{
name = center;
pos = (639,554);
},
{
name = top;
pos = (650,1112);
}
);
layerId = "97BB7961-D669-43AB-8BBF-11FFD0C46A4B";
shapes = (
{
closed = 1;
nodes = (
(0,130,l),
(0,0,l),
(509,0,l),
(509,130,l),
(354,151,l),
(478,327,l),
(550,441,l),
(612,356,l),
(762,151,l),
(646,130,l),
(646,0,l),
(1282,0,l),
(1282,130,l),
(1204,150,l),
(831,612,l),
(1173,961,l),
(1282,984,l),
(1282,1112,l),
(828,1112,l),
(828,984,l),
(955,961,l),
(808,799,l),
(736,700,l),
(680,780,l),
(549,961,l),
(678,984,l),
(678,1112,l),
(3,1112,l),
(3,984,l),
(102,961,l),
(448,535,l),
(123,151,l)
);
}
);
width = 1282;
}
);
unicode = 120;
userData = {
KernOnName = x;
};
}
{
color = 4;
glyphname = y;
layers = (
{
anchors = (
{
name = bottom;
pos = (836,0);
},
{
name = center;
pos = (575,564);
},
{
name = top;
pos = (575,1110);
}
);
layerId = UUID0;
shapes = (
{
closed = 1;
nodes = (
(478,-500,o),
(560,-339,o),
(684,-32,c),
(718,46,o),
(794,274,o),
(1032,1004,c),
(1136,1028,l),
(1136,1110,l),
(752,1110,l),
(752,1028,l),
(892,1004,l),
(704,394,l),
(604,66,l),
(500,392,l),
(290,1004,l),
(452,1028,l),
(452,1110,l),
(10,1110,l),
(10,1028,l),
(104,1002,l),
(486,0,l),
(574,0,l),
(464,-307,o),
(356,-347,o),
(260,-347,cs),
(224,-347,o),
(184,-343,o),
(168,-335,c),
(168,-486,l),
(184,-494,o),
(220,-500,o),
(256,-500,cs)
);
}
);
width = 1150;
},
{
anchors = (
{
name = bottom;
pos = (971,0);
},
{
name = center;
pos = (618,565);
},
{
name = top;
pos = (600,1112);
}
);
layerId = "DEBB1CE4-A72D-4960-969E-E04A036D2FA1";
shapes = (
{
closed = 1;
nodes = (
(547,-508,o),
(659,-334,o),
(773,-25,c),
(789,12,o),
(989,583,o),
(1113,961,c),
(1208,984,l),
(1208,1112,l),
(756,1112,l),
(756,984,l),
(877,961,l),
(723,428,l),
(675,226,l),
(615,427,l),
(450,960,l),
(588,984,l),
(588,1112,l),
(-2,1112,l),
(-2,984,l),
(86,959,l),
(461,0,l),
(577,0,l),
(514,-171,o),
(446,-264,o),
(305,-264,cs),
(257,-264,o),
(209,-251,o),
(190,-236,c),
(190,-487,l),
(218,-501,o),
(260,-508,o),
(312,-508,cs)
);
}
);
width = 1199;
},
{
anchors = (
{
name = bottom;
pos = (883,0);
},
{
name = center;
pos = (535,492);
},
{
name = top;
pos = (525,1005);
}
);
layerId = "184155C8-9F61-4F1C-9784-DDA8EA717636";
shapes = (
{
closed = 1;
nodes = (
(471,-500,o),
(574,-333,o),
(688,-25,c),
(704,12,o),
(866,543,o),
(990,921,c),
(1101,967,l),
(1101,1005,l),
(745,1005,l),
(745,966,l),
(877,921,l),
(734,329,l),
(674,120,l),
(613,349,l),
(451,921,l),
(556,967,l),
(556,1005,l),
(-30,1006,l),
(-30,968,l),
(61,922,l),
(367,0,l),
(613,0,l),
(550,-170,o),
(426,-253,o),
(278,-253,cs),
(240,-253,o),
(203,-246,o),
(177,-238,c),
(177,-483,l),
(194,-494,o),
(230,-500,o),
(272,-500,cs)
);
}
);
width = 1071;
},
{
anchors = (
{
name = bottom;
pos = (861,0);
},
{
name = center;
pos = (538,561);
},
{
name = top;
pos = (510,1112);
}
);
layerId = "EA2265BD-E890-48C4-9E90-A53076E780C5";
shapes = (
{
closed = 1;
nodes = (
(459,-508,o),
(551,-332,o),
(646,-25,c),
(655,13,o),
(752,325,o),
(959,962,c),
(1046,985,l),
(1046,1112,l),
(629,1112,l),
(629,985,l),
(731,962,l),
(600,427,l),
(571,242,l),
(538,426,l),
(409,961,l),
(512,985,l),
(512,1112,l),
(-5,1112,l),
(-5,985,l),
(59,960,l),
(380,0,l),
(487,0,l),
(444,-175,o),
(378,-266,o),
(249,-266,cs),
(207,-266,o),
(152,-254,o),
(134,-239,c),
(134,-487,l),
(161,-501,o),
(210,-508,o),
(258,-508,cs)
);
}
);
width = 1020;
},
{
anchors = (
{
name = bottom;
pos = (786,0);
},
{
name = center;
pos = (509,564);
},
{
name = top;
pos = (502,1110);
}
);
layerId = "0E4B6E2E-ECAB-4D06-9686-B0B40AA31834";
shapes = (
{
closed = 1;
nodes = (
(425,-498,o),
(498,-335,o),
(602,-32,c),
(629,47,o),
(704,253,o),
(901,1005,c),
(989,1029,l),
(989,1110,l),
(652,1110,l),
(652,1029,l),
(770,1005,l),
(612,393,l),
(531,62,l),
(446,391,l),
(271,1005,l),
(407,1029,l),
(407,1110,l),
(12,1110,l),
(12,1029,l),
(96,1003,l),
(417,0,l),
(499,0,l),
(409,-312,o),
(319,-350,o),
(225,-350,cs),
(197,-350,o),
(158,-347,o),
(143,-339,c),
(143,-484,l),
(158,-492,o),
(191,-498,o),
(223,-498,cs)
);
}
);
width = 1004;
},
{
anchors = (
{
name = bottom;
pos = (795,0);
},
{
name = center;
pos = (447,492);
},
{
name = top;
pos = (422,1005);
}
);
layerId = "F2B10EEF-9DDC-48CA-970D-6B8C79870881";
shapes = (
{
closed = 1;
nodes = (
(403,-501,o),
(497,-285,o),
(562,-25,c),
(578,12,o),
(711,543,o),
(813,921,c),
(914,967,l),
(914,1005,l),
(611,1005,l),
(611,966,l),
(719,921,l),
(579,349,l),
(535,175,l),
(496,349,l),
(378,921,l),
(464,967,l),
(464,1005,l),
(-62,1005,l),
(-62,967,l),
(29,921,l),
(292,0,l),
(487,0,l),
(424,-189,o),
(358,-264,o),
(210,-264,cs),
(162,-264,o),
(125,-257,o),
(99,-249,c),
(99,-484,l),
(116,-495,o),
(152,-501,o),
(204,-501,cs)
);
}
);
width = 844;
},
{
anchors = (
{
name = bottom;
pos = (682,0);
},
{
name = center;
pos = (418,544);
},
{
name = top;
pos = (422,1005);
}
);
layerId = "E96AC896-F5DF-475B-BBD9-C7FEC6A86D0E";
shapes = (
{
closed = 1;
nodes = (
(261,-501,o),
(331,-367,o),
(464,-32,cs),
(499,56,o),
(656,575,o),
(789,951,c),
(879,975,l),
(879,1010,l),
(574,1010,l),
(574,975,l),
(677,951,l),
(474,190,l),
(422,26,l),
(388,198,l),
(182,951,l),
(291,974,l),
(291,1010,l),
(-37,1010,l),
(-37,975,l),
(36,959,l),
(328,0,l),
(400,0,l),
(354,-163,o),
(261,-387,o),
(98,-387,cs),
(72,-387,o),
(32,-383,o),
(16,-375,c),
(16,-487,l),
(32,-495,o),
(68,-501,o),
(94,-501,cs)
);
}
);
width = 843;
},
{
anchors = (
{
name = bottom;
pos = (732,0);
},
{
name = center;
pos = (465,489);
},
{
name = top;
pos = (456,1005);
}
);
layerId = "C9B9556E-C2FD-4F62-BB40-44923C452C22";
shapes = (
{
closed = 1;
nodes = (
(305,-506,o),
(401,-372,o),
(515,-37,cs),
(545,51,o),
(721,567,o),
(862,943,c),
(947,970,l),
(947,1005,l),
(679,1005,l),
(679,970,l),
(769,943,l),
(535,183,l),
(503,54,l),
(468,185,l),
(216,943,l),
(311,969,l),
(311,1005,l),
(-20,1005,l),
(-20,970,l),
(67,943,l),
(402,0,l),
(466,0,l),
(427,-127,o),
(310,-395,o),
(161,-395,cs),
(131,-395,o),
(96,-391,o),
(80,-383,c),
(80,-492,l),
(96,-500,o),
(127,-506,o),
(172,-506,cs)
);
}
);
width = 927;
},
{
anchors = (
{
name = bottom;
pos = (875,0);
},
{
name = center;
pos = (527,492);
},
{
name = top;
pos = (515,1005);
}
);
layerId = "AFA1064D-EFC9-4C9F-B9B0-9118E41D87C4";
shapes = (
{
closed = 1;
nodes = (
(464,-501,o),
(567,-334,o),
(681,-25,c),
(697,12,o),
(879,543,o),
(1003,921,c),
(1114,967,l),
(1114,1005,l),
(758,1005,l),
(758,966,l),
(890,921,l),
(727,329,l),
(667,120,l),
(606,349,l),
(424,921,l),
(529,967,l),
(529,1005,l),
(-61,1005,l),
(-61,967,l),
(30,921,l),
(360,0,l),
(606,0,l),
(543,-171,o),
(419,-254,o),
(271,-254,cs),
(233,-254,o),
(196,-247,o),
(170,-239,c),
(170,-484,l),
(187,-495,o),
(223,-501,o),
(265,-501,cs)
);
}
);
width = 1029;
},
{
anchors = (
{
name = bottom;
pos = (762,0);
},
{
name = center;
pos = (504,544);
},
{
name = top;
pos = (490,1005);
}
);
layerId = "2103F1D3-C390-4F79-A87D-298F85EA6916";
shapes = (
{
closed = 1;
nodes = (
(307,-501,o),
(387,-372,o),
(532,-37,cs),
(570,51,o),
(770,567,o),
(923,943,c),
(1014,970,l),
(1014,1005,l),
(725,1005,l),
(725,970,l),
(822,943,l),
(555,183,l),
(521,54,l),
(483,185,l),
(225,943,l),
(327,969,l),
(327,1005,l),
(-20,1005,l),
(-20,970,l),
(74,943,l),
(422,0,l),
(481,0,l),
(439,-127,o),
(313,-395,o),
(122,-395,cs),
(96,-395,o),
(58,-391,o),
(41,-383,c),
(41,-487,l),
(58,-495,o),
(89,-501,o),
(131,-501,cs)
);
}
);
width = 979;
},
{
anchors = (
{
name = bottom;
pos = (886,0);
},
{
name = center;
pos = (633,564);
},
{
name = top;
pos = (623,1110);
}
);
layerId = "779F1615-9D1A-4778-9767-9A030AA58B6C";
shapes = (
{
closed = 1;
nodes = (
(487,-508,o),
(599,-340,o),
(723,-32,c),
(757,46,o),
(890,334,o),
(1116,1004,c),
(1236,1028,l),
(1236,1110,l),
(827,1110,l),
(827,1028,l),
(967,1004,l),
(762,393,l),
(642,66,l),
(538,392,l),
(306,1004,l),
(446,1028,l),
(446,1110,l),
(4,1110,l),
(4,1028,l),
(121,1002,l),
(531,0,l),
(616,0,l),
(506,-308,o),
(406,-348,o),
(312,-348,cs),
(276,-348,o),
(231,-344,o),
(215,-336,c),
(215,-494,l),
(231,-502,o),
(272,-508,o),
(317,-508,cs)
);
}
);
userData = {
com.schriftgestaltung.Glyphs.lastChange = "2019-04-25 21:50:43 +0000";
};
width = 1245;
},
{
anchors = (
{
name = bottom;
pos = (951,0);
},
{
name = center;
pos = (622,558);
},
{
name = top;
pos = (596,1112);
}
);
background = {
shapes = (
{
closed = 1;
nodes = (
(557,-512,o),
(669,-338,o),
(783,-29,c),
(799,8,o),
(999,579,o),
(1123,957,c),
(1218,980,l),
(1218,1108,l),
(766,1108,l),
(766,980,l),
(887,957,l),
(733,424,l),
(685,222,l),
(625,423,l),
(460,956,l),
(598,980,l),
(598,1108,l),
(8,1108,l),
(8,980,l),
(96,955,l),
(471,-4,l),
(587,-4,l),
(524,-175,o),
(456,-268,o),
(315,-268,cs),
(267,-268,o),
(219,-255,o),
(200,-240,c),
(200,-491,l),
(228,-505,o),
(270,-512,o),
(322,-512,cs)
);
}
);
};
layerId = "97BB7961-D669-43AB-8BBF-11FFD0C46A4B";
shapes = (
{
closed = 1;
nodes = (
(587,-518,o),
(678,-338,o),
(792,-29,c),
(808,8,o),
(1010,583,o),
(1143,961,c),
(1252,984,l),
(1252,1112,l),
(792,1112,l),
(792,984,l),
(917,961,l),
(740,424,l),
(685,222,l),
(625,423,l),
(436,960,l),
(563,984,l),
(563,1112,l),
(-47,1112,l),
(-47,984,l),
(44,959,l),
(447,0,l),
(617,0,l),
(554,-171,o),
(486,-264,o),
(345,-264,cs),
(297,-264,o),
(229,-251,o),
(210,-236,c),
(210,-497,l),
(238,-511,o),
(300,-518,o),
(352,-518,cs)
);
}
);
width = 1191;
}
);
unicode = 121;
userData = {
KernOnName = y;
};
}
{
glyphname = section;
layers = (
{
layerId = UUID0;
shapes = (
{
closed = 1;
nodes = (
(208,240,l),
(186,-106,l),
(248,-112,o),
(410,-198,o),
(636,-198,cs),
(988,-198,o),
(1136,-26,o),
(1136,140,cs),
(1136,230,o),
(1084,300,o),
(1012,358,c),
(1100,432,o),
(1154,520,o),
(1154,628,cs),
(1154,868,o),
(894,982,o),
(730,1050,cs),
(540,1128,o),
(374,1180,o),
(374,1356,cs),
(374,1478,o),
(486,1542,o),
(686,1542,cs),
(808,1542,o),
(896,1510,o),
(914,1492,c),
(960,1254,l),
(1058,1254,l),
(1070,1572,l),
(1010,1582,o),
(876,1644,o),
(692,1644,cs),
(402,1644,o),
(220,1514,o),
(220,1322,cs),
(220,1224,o),
(264,1150,o),
(328,1088,c),
(238,1024,o),
(186,948,o),
(186,832,cs),
(186,582,o),
(406,466,o),
(592,396,cs),
(794,320,o),
(980,254,o),
(980,98,cs),
(980,-12,o),
(878,-98,o),
(646,-98,cs),
(514,-98,o),
(390,-56,o),
(342,-12,c),
(312,240,l)
);
},
{
closed = 1;
nodes = (
(478,612,o),
(332,690,o),
(332,868,cs),
(332,936,o),
(360,982,o),
(410,1026,c),
(486,976,o),
(570,942,o),
(640,916,cs),
(846,838,o),
(994,756,o),
(994,594,cs),
(994,522,o),
(966,466,o),
(918,420,c),
(838,466,o),
(750,500,o),
(682,528,cs)
);
}
);
width = 1332;
},
{
layerId = "DEBB1CE4-A72D-4960-969E-E04A036D2FA1";
shapes = (
{
closed = 1;
nodes = (
(208,219,l),
(189,-106,l),
(252,-112,o),
(440,-198,o),
(673,-198,cs),
(1028,-198,o),
(1171,-20,o),
(1171,149,cs),
(1171,245,o),
(1128,319,o),
(1065,379,c),
(1152,451,o),
(1215,578,o),
(1215,733,cs),
(1215,995,o),
(910,1077,o),
(755,1150,cs),
(606,1217,o),
(498,1257,o),
(498,1371,cs),
(498,1453,o),
(564,1502,o),
(690,1502,cs),
(789,1502,o),
(862,1463,o),
(874,1443,c),
(930,1269,l),
(1105,1269,l),
(1117,1572,l),
(1057,1582,o),
(894,1645,o),
(707,1645,cs),
(424,1645,o),
(219,1511,o),
(219,1318,cs),
(219,1214,o),
(263,1137,o),
(328,1073,c),
(228,1002,o),
(173,883,o),
(173,770,cs),
(173,535,o),
(320,425,o),
(576,313,cs),
(750,240,o),
(894,188,o),
(894,77,cs),
(894,-6,o),
(825,-61,o),
(680,-61,cs),
(570,-61,o),
(471,-16,o),
(445,19,c),
(404,219,l)
);
},
{
closed = 1;
nodes = (
(528,662,o),
(372,749,o),
(372,877,cs),
(372,929,o),
(387,967,o),
(419,1001,c),
(496,949,o),
(583,912,o),
(652,881,cs),
(862,779,o),
(1001,712,o),
(1001,575,cs),
(1001,529,o),
(987,491,o),
(959,458,c),
(887,503,o),
(806,537,o),
(738,568,cs)
);
}
);
width = 1373;
},
{
layerId = "184155C8-9F61-4F1C-9784-DDA8EA717636";
shapes = (
{
closed = 1;
nodes = (
(209,219,l),
(190,-106,l),
(258,-112,o),
(445,-198,o),
(697,-198,cs),
(1060,-198,o),
(1209,-21,o),
(1209,156,cs),
(1209,246,o),
(1171,319,o),
(1103,382,c),
(1183,445,o),
(1255,579,o),
(1255,721,cs),
(1255,1015,o),
(946,1101,o),
(775,1177,cs),
(621,1245,o),
(510,1299,o),
(510,1415,cs),
(510,1520,o),
(597,1586,o),
(726,1586,cs),
(815,1586,o),
(896,1556,o),
(903,1527,cs),
(966,1269,l),
(1141,1269,l),
(1153,1572,l),
(1087,1582,o),
(926,1645,o),
(724,1645,cs),
(434,1645,o),
(221,1516,o),
(221,1305,cs),
(221,1206,o),
(268,1124,o),
(328,1068,c),
(229,996,o),
(173,891,o),
(173,756,cs),
(173,530,o),
(331,405,o),
(590,287,cs),
(762,209,o),
(922,155,o),
(922,30,cs),
(922,-73,o),
(821,-141,o),
(682,-141,cs),
(578,-141,o),
(476,-104,o),
(454,-61,c),
(406,219,l)
);
},
{
closed = 1;
nodes = (
(535,683,o),
(380,768,o),
(380,907,cs),
(380,940,o),
(389,977,o),
(409,1005,c),
(485,955,o),
(579,913,o),
(671,871,cs),
(881,774,o),
(1033,698,o),
(1033,552,cs),
(1033,517,o),
(1024,482,o),
(1006,453,c),
(938,494,o),
(902,511,o),
(761,577,cs)
);
}
);
width = 1413;
},
{
layerId = "EA2265BD-E890-48C4-9E90-A53076E780C5";
shapes = (
{
closed = 1;
nodes = (
(184,219,l),
(166,-106,l),
(227,-112,o),
(399,-198,o),
(623,-198,cs),
(946,-198,o),
(1080,-20,o),
(1080,152,cs),
(1080,242,o),
(1043,319,o),
(985,379,c),
(1057,440,o),
(1125,579,o),
(1125,719,cs),
(1125,996,o),
(860,1064,o),
(695,1147,cs),
(552,1218,o),
(467,1263,o),
(467,1367,cs),
(467,1453,o),
(524,1502,o),
(630,1502,cs),
(721,1502,o),
(786,1463,o),
(798,1443,c),
(851,1269,l),
(1021,1269,l),
(1033,1572,l),
(974,1582,o),
(823,1645,o),
(645,1645,cs),
(389,1645,o),
(193,1514,o),
(193,1311,cs),
(193,1215,o),
(237,1133,o),
(294,1073,c),
(197,997,o),
(149,889,o),
(149,756,cs),
(149,533,o),
(283,429,o),
(522,315,cs),
(665,247,o),
(807,194,o),
(807,74,cs),
(807,-4,o),
(746,-61,o),
(630,-61,cs),
(526,-61,o),
(437,-16,o),
(416,19,c),
(376,219,l)
);
},
{
closed = 1;
nodes = (
(488,659,o),
(343,743,o),
(343,885,cs),
(343,927,o),
(356,969,o),
(382,1001,c),
(457,947,o),
(513,925,o),
(598,881,cs),
(784,784,o),
(916,718,o),
(916,571,cs),
(916,531,o),
(906,491,o),
(884,458,c),
(829,496,o),
(771,521,o),
(683,564,cs)
);
}
);
width = 1259;
},
{
layerId = "0E4B6E2E-ECAB-4D06-9686-B0B40AA31834";
shapes = (
{
closed = 1;
nodes = (
(188,240,l),
(169,-106,l),
(228,-112,o),
(365,-198,o),
(579,-198,cs),
(880,-198,o),
(1017,-26,o),
(1017,137,cs),
(1017,231,o),
(972,300,o),
(909,358,c),
(994,432,o),
(1046,523,o),
(1046,629,cs),
(1046,869,o),
(798,985,o),
(655,1050,cs),
(500,1121,o),
(348,1183,o),
(348,1348,cs),
(348,1479,o),
(444,1542,o),
(607,1542,cs),
(718,1542,o),
(789,1513,o),
(811,1492,c),
(857,1254,l),
(950,1254,l),
(960,1572,l),
(902,1583,o),
(788,1644,o),
(616,1644,cs),
(365,1644,o),
(199,1514,o),
(199,1319,cs),
(199,1224,o),
(238,1150,o),
(295,1088,c),
(212,1024,o),
(166,949,o),
(166,826,cs),
(166,575,o),
(362,468,o),
(529,395,cs),
(676,331,o),
(865,263,o),
(865,100,cs),
(865,-12,o),
(773,-98,o),
(589,-98,cs),
(466,-98,o),
(365,-59,o),
(320,-12,c),
(287,240,l)
);
},
{
closed = 1;
nodes = (
(427,616,o),
(307,687,o),
(307,861,cs),
(307,936,o),
(329,981,o),
(370,1025,c),
(435,977,o),
(519,939,o),
(572,916,cs),
(758,834,o),
(890,763,o),
(890,595,cs),
(890,524,o),
(866,466,o),
(824,420,c),
(733,473,o),
(693,492,o),
(616,528,cs)
);
}
);
width = 1204;
},
{
layerId = "F2B10EEF-9DDC-48CA-970D-6B8C79870881";
shapes = (
{
closed = 1;
nodes = (
(184,219,l),
(168,-106,l),
(228,-112,o),
(398,-198,o),
(622,-198,cs),
(941,-198,o),
(1072,-22,o),
(1072,159,cs),
(1072,249,o),
(1040,319,o),
(980,379,c),
(1051,441,o),
(1118,579,o),
(1118,717,cs),
(1118,978,o),
(833,1065,o),
(687,1148,cs),
(560,1220,o),
(466,1283,o),
(466,1411,cs),
(466,1523,o),
(538,1586,o),
(642,1586,cs),
(713,1586,o),
(791,1556,o),
(797,1527,cs),
(854,1269,l),
(1015,1269,l),
(1025,1572,l),
(967,1582,o),
(819,1645,o),
(640,1645,cs),
(387,1645,o),
(194,1518,o),
(194,1300,cs),
(194,1207,o),
(229,1133,o),
(292,1072,c),
(201,999,o),
(149,893,o),
(149,756,cs),
(149,542,o),
(279,443,o),
(515,314,cs),
(654,238,o),
(802,170,o),
(802,31,cs),
(802,-73,o),
(718,-141,o),
(603,-141,cs),
(517,-141,o),
(428,-103,o),
(413,-61,c),
(377,219,l)
);
},
{
closed = 1;
nodes = (
(486,674,o),
(343,762,o),
(343,910,cs),
(343,940,o),
(349,983,o),
(365,1011,c),
(432,964,o),
(509,925,o),
(594,880,cs),
(789,777,o),
(913,703,o),
(913,549,cs),
(913,518,o),
(908,478,o),
(894,448,c),
(822,496,o),
(772,520,o),
(685,567,cs)
);
}
);
width = 1252;
},
{
layerId = "E96AC896-F5DF-475B-BBD9-C7FEC6A86D0E";
shapes = (
{
closed = 1;
nodes = (
(183,241,l),
(167,-106,l),
(225,-112,o),
(332,-198,o),
(568,-198,cs),
(874,-198,o),
(1011,-40,o),
(1011,133,cs),
(1011,232,o),
(967,313,o),
(886,374,c),
(984,445,o),
(1040,522,o),
(1040,630,cs),
(1040,821,o),
(893,914,o),
(716,1001,cs),
(528,1093,o),
(331,1168,o),
(331,1361,cs),
(331,1525,o),
(453,1595,o),
(604,1595,cs),
(713,1595,o),
(803,1553,o),
(830,1528,c),
(871,1254,l),
(952,1254,l),
(971,1572,l),
(930,1572,o),
(795,1644,o),
(613,1644,cs),
(371,1644,o),
(195,1516,o),
(195,1317,cs),
(195,1217,o),
(239,1133,o),
(307,1074,c),
(228,1018,o),
(150,952,o),
(150,815,cs),
(150,593,o),
(348,488,o),
(500,425,c),
(692,334,o),
(871,283,o),
(871,95,cs),
(871,-48,o),
(754,-149,o),
(574,-149,cs),
(444,-149,o),
(351,-101,o),
(317,-63,c),
(270,241,l)
);
},
{
closed = 1;
nodes = (
(359,650,o),
(289,749,o),
(289,847,cs),
(289,938,o),
(313,996,o),
(352,1039,c),
(430,987,o),
(510,951,o),
(611,905,cs),
(792,822,o),
(890,737,o),
(890,591,cs),
(890,533,o),
(878,456,o),
(833,410,c),
(724,469,o),
(585,532,o),
(501,576,cs)
);
}
);
width = 1185;
},
{
layerId = "C9B9556E-C2FD-4F62-BB40-44923C452C22";
shapes = (
{
closed = 1;
nodes = (
(204,240,l),
(188,-106,l),
(250,-112,o),
(361,-198,o),
(609,-198,cs),
(933,-198,o),
(1077,-50,o),
(1077,124,cs),
(1077,224,o),
(1030,313,o),
(944,374,c),
(1048,445,o),
(1107,522,o),
(1107,642,cs),
(1107,828,o),
(961,932,o),
(768,1015,c),
(573,1109,o),
(364,1162,o),
(364,1362,cs),
(364,1515,o),
(485,1595,o),
(648,1595,cs),
(766,1595,o),
(861,1553,o),
(891,1528,c),
(933,1254,l),
(1014,1254,l),
(1035,1572,l),
(992,1572,o),
(850,1644,o),
(658,1644,cs),
(402,1644,o),
(218,1516,o),
(218,1317,cs),
(218,1217,o),
(264,1133,o),
(336,1074,c),
(250,1016,o),
(170,938,o),
(170,804,cs),
(170,581,o),
(380,476,o),
(539,412,c),
(743,321,o),
(922,260,o),
(922,84,cs),
(922,-58,o),
(810,-149,o),
(616,-149,cs),
(475,-149,o),
(377,-101,o),
(341,-63,c),
(291,240,l)
);
},
{
closed = 1;
nodes = (
(365,662,o),
(314,765,o),
(314,849,cs),
(314,936,o),
(339,995,o),
(383,1038,c),
(465,987,o),
(530,958,o),
(656,904,cs),
(849,821,o),
(952,737,o),
(952,590,cs),
(952,533,o),
(940,457,o),
(889,411,c),
(781,466,o),
(637,526,o),
(536,576,cs)
);
}
);
width = 1272;
},
{
layerId = "AFA1064D-EFC9-4C9F-B9B0-9118E41D87C4";
shapes = (
{
closed = 1;
nodes = (
(230,219,l),
(210,-106,l),
(282,-112,o),
(475,-198,o),
(740,-198,cs),
(1120,-198,o),
(1278,-21,o),
(1278,156,cs),
(1278,241,o),
(1233,316,o),
(1155,382,c),
(1241,445,o),
(1316,580,o),
(1316,722,cs),
(1316,1005,o),
(1018,1095,o),
(815,1177,cs),
(671,1235,o),
(540,1298,o),
(540,1418,cs),
(540,1518,o),
(631,1586,o),
(763,1586,cs),
(851,1586,o),
(935,1556,o),
(942,1527,cs),
(1004,1269,l),
(1197,1269,l),
(1210,1572,l),
(1140,1582,o),
(975,1645,o),
(762,1645,cs),
(458,1645,o),
(235,1516,o),
(235,1305,cs),
(235,1206,o),
(285,1124,o),
(348,1068,c),
(243,995,o),
(186,888,o),
(186,756,cs),
(186,528,o),
(357,402,o),
(628,286,cs),
(819,204,o),
(975,154,o),
(975,29,cs),
(975,-73,o),
(870,-141,o),
(724,-141,cs),
(614,-141,o),
(508,-104,o),
(483,-61,c),
(443,219,l)
);
},
{
closed = 1;
nodes = (
(564,687,o),
(409,766,o),
(409,909,cs),
(409,939,o),
(416,976,o),
(433,1004,c),
(515,952,o),
(583,924,o),
(707,869,cs),
(914,777,o),
(1078,698,o),
(1078,552,cs),
(1078,519,o),
(1070,483,o),
(1054,454,c),
(956,510,o),
(957,505,o),
(799,578,cs)
);
}
);
width = 1486;
},
{
layerId = "2103F1D3-C390-4F79-A87D-298F85EA6916";
shapes = (
{
closed = 1;
nodes = (
(216,240,l),
(199,-106,l),
(264,-112,o),
(380,-198,o),
(643,-198,cs),
(987,-198,o),
(1141,-50,o),
(1141,124,cs),
(1141,224,o),
(1090,313,o),
(997,374,c),
(1110,445,o),
(1172,522,o),
(1172,642,cs),
(1172,829,o),
(1027,935,o),
(819,1019,cs),
(608,1112,o),
(377,1163,o),
(377,1363,cs),
(377,1515,o),
(509,1595,o),
(686,1595,cs),
(813,1595,o),
(916,1553,o),
(949,1528,c),
(993,1254,l),
(1074,1254,l),
(1097,1572,l),
(1053,1572,o),
(902,1644,o),
(698,1644,cs),
(427,1644,o),
(231,1516,o),
(231,1317,cs),
(231,1217,o),
(280,1133,o),
(358,1074,c),
(267,1016,o),
(180,937,o),
(180,804,cs),
(180,581,o),
(408,476,o),
(571,412,cs),
(793,321,o),
(986,260,o),
(986,84,cs),
(986,-58,o),
(864,-149,o),
(653,-149,cs),
(500,-149,o),
(396,-101,o),
(357,-63,c),
(303,240,l)
);
},
{
closed = 1;
nodes = (
(384,664,o),
(324,752,o),
(324,857,cs),
(324,935,o),
(357,999,o),
(406,1038,c),
(494,987,o),
(560,959,o),
(698,904,cs),
(914,817,o),
(1017,738,o),
(1017,589,cs),
(1017,534,o),
(1003,457,o),
(941,411,c),
(831,463,o),
(651,534,o),
(556,580,cs)
);
}
);
width = 1347;
},
{
layerId = "779F1615-9D1A-4778-9767-9A030AA58B6C";
shapes = (
{
closed = 1;
nodes = (
(230,240,l),
(206,-106,l),
(277,-112,o),
(441,-198,o),
(701,-198,cs),
(1069,-198,o),
(1235,-26,o),
(1235,136,cs),
(1235,229,o),
(1180,300,o),
(1103,358,c),
(1197,432,o),
(1253,521,o),
(1253,628,cs),
(1253,876,o),
(975,984,o),
(796,1050,cs),
(593,1124,o),
(401,1186,o),
(401,1348,cs),
(401,1480,o),
(530,1542,o),
(742,1542,cs),
(892,1542,o),
(985,1511,o),
(1010,1492,c),
(1055,1254,l),
(1153,1254,l),
(1166,1572,l),
(1096,1583,o),
(961,1644,o),
(751,1644,cs),
(444,1644,o),
(247,1514,o),
(247,1320,cs),
(247,1228,o),
(292,1151,o),
(361,1088,c),
(267,1024,o),
(211,947,o),
(211,830,cs),
(211,580,o),
(459,465,o),
(649,397,cs),
(831,332,o),
(1079,264,o),
(1079,101,cs),
(1079,-12,o),
(960,-98,o),
(717,-98,cs),
(556,-98,o),
(426,-60,o),
(362,-12,c),
(334,240,l)
);
},
{
closed = 1;
nodes = (
(519,615,o),
(357,687,o),
(357,861,cs),
(357,939,o),
(390,984,o),
(445,1029,c),
(536,973,o),
(618,945,o),
(700,916,cs),
(923,837,o),
(1093,761,o),
(1093,597,cs),
(1093,524,o),
(1060,466,o),
(1005,421,c),
(862,485,o),
(857,484,o),
(743,528,cs)
);
}
);
userData = {
com.schriftgestaltung.Glyphs.lastChange = "2019-04-25 21:50:43 +0000";
};
width = 1461;
},
{
layerId = "97BB7961-D669-43AB-8BBF-11FFD0C46A4B";
shapes = (
{
closed = 1;
nodes = (
(223,219,l),
(202,-106,l),
(274,-112,o),
(464,-198,o),
(726,-198,cs),
(1104,-198,o),
(1262,-20,o),
(1262,153,cs),
(1262,246,o),
(1220,322,o),
(1152,385,c),
(1227,443,o),
(1305,577,o),
(1305,718,cs),
(1305,1005,o),
(980,1107,o),
(813,1171,cs),
(590,1256,o),
(558,1308,o),
(558,1367,cs),
(558,1453,o),
(625,1502,o),
(737,1502,cs),
(831,1502,o),
(893,1467,o),
(908,1443,c),
(969,1269,l),
(1188,1269,l),
(1200,1572,l),
(1132,1583,o),
(967,1645,o),
(758,1645,cs),
(454,1645,o),
(235,1514,o),
(235,1308,cs),
(235,1216,o),
(279,1130,o),
(346,1067,c),
(235,988,o),
(187,879,o),
(187,757,cs),
(187,522,o),
(366,403,o),
(627,293,cs),
(803,219,o),
(941,181,o),
(941,73,cs),
(941,-6,o),
(867,-61,o),
(737,-61,cs),
(627,-61,o),
(540,-21,o),
(507,19,c),
(463,219,l)
);
},
{
closed = 1;
nodes = (
(551,695,o),
(420,756,o),
(420,890,cs),
(420,934,o),
(435,966,o),
(450,988,c),
(491,965,o),
(491,956,o),
(702,858,cs),
(903,765,o),
(1047,705,o),
(1047,571,cs),
(1047,540,o),
(1039,505,o),
(1023,476,c),
(933,527,o),
(878,551,o),
(787,591,cs)
);
}
);
width = 1477;
}
);
unicode = 167;
userData = {
KernOnSpecialSpacing = {
R = symbols;
};
};
}
{
glyphname = copyright;
layers = (
{
layerId = UUID0;
shapes = (
{
closed = 1;
nodes = (
(190,504,o),
(564,120,o),
(1040,120,cs),
(1514,120,o),
(1890,504,o),
(1890,980,cs),
(1890,1454,o),
(1514,1836,o),
(1040,1836,cs),
(564,1836,o),
(190,1454,o),
(190,980,cs)
);
},
{
closed = 1;
nodes = (
(298,1394,o),
(620,1742,o),
(1040,1742,cs),
(1458,1742,o),
(1780,1394,o),
(1780,980,cs),
(1780,564,o),
(1458,216,o),
(1040,216,cs),
(620,216,o),
(298,564,o),
(298,980,cs)
);
},
{
closed = 1;
nodes = (
(1184,504,o),
(1306,582,o),
(1362,652,c),
(1322,720,l),
(1268,666,o),
(1192,628,o),
(1100,628,cs),
(898,628,o),
(764,774,o),
(764,1002,cs),
(764,1220,o),
(870,1356,o),
(1042,1356,cs),
(1144,1356,o),
(1188,1342,o),
(1218,1320,c),
(1256,1192,l),
(1352,1192,l),
(1352,1402,l),
(1314,1440,o),
(1188,1460,o),
(1102,1460,cs),
(818,1460,o),
(608,1244,o),
(608,970,cs),
(608,700,o),
(756,504,o),
(1044,504,cs)
);
}
);
width = 2080;
},
{
layerId = "DEBB1CE4-A72D-4960-969E-E04A036D2FA1";
shapes = (
{
closed = 1;
nodes = (
(193,503,o),
(571,129,o),
(1041,129,cs),
(1514,129,o),
(1887,503,o),
(1887,979,cs),
(1887,1453,o),
(1514,1826,o),
(1041,1826,cs),
(571,1826,o),
(193,1453,o),
(193,979,cs)
);
},
{
closed = 1;
nodes = (
(333,1376,o),
(638,1705,o),
(1041,1705,cs),
(1440,1705,o),
(1746,1382,o),
(1746,979,cs),
(1746,579,o),
(1440,250,o),
(1041,250,cs),
(642,250,o),
(333,574,o),
(333,979,cs)
);
},
{
closed = 1;
nodes = (
(1193,503,o),
(1322,583,o),
(1377,653,c),
(1316,763,l),
(1269,719,o),
(1192,687,o),
(1115,687,cs),
(945,687,o),
(830,817,o),
(830,1012,cs),
(830,1190,o),
(905,1318,o),
(1051,1318,cs),
(1135,1318,o),
(1164,1302,o),
(1184,1287,c),
(1228,1154,l),
(1358,1154,l),
(1362,1405,l),
(1324,1443,o),
(1197,1464,o),
(1111,1464,cs),
(819,1464,o),
(615,1253,o),
(615,976,cs),
(615,703,o),
(759,503,o),
(1051,503,cs)
);
}
);
width = 2080;
},
{
layerId = "184155C8-9F61-4F1C-9784-DDA8EA717636";
shapes = (
{
closed = 1;
nodes = (
(193,503,o),
(574,119,o),
(1044,119,cs),
(1517,119,o),
(1892,503,o),
(1892,979,cs),
(1892,1453,o),
(1517,1836,o),
(1044,1836,cs),
(572,1836,o),
(193,1457,o),
(193,979,cs)
);
},
{
closed = 1;
nodes = (
(295,1409,o),
(622,1748,o),
(1044,1748,cs),
(1462,1748,o),
(1790,1405,o),
(1790,979,cs),
(1790,551,o),
(1458,210,o),
(1044,210,cs),
(623,210,o),
(295,547,o),
(295,978,cs)
);
},
{
closed = 1;
nodes = (
(1196,503,o),
(1325,583,o),
(1380,653,c),
(1355,709,l),
(1302,662,o),
(1215,627,o),
(1128,627,cs),
(950,627,o),
(833,780,o),
(833,1012,cs),
(833,1233,o),
(932,1399,o),
(1064,1399,cs),
(1113,1399,o),
(1166,1386,o),
(1187,1368,c),
(1231,1154,l),
(1361,1154,l),
(1365,1405,l),
(1327,1443,o),
(1200,1464,o),
(1114,1464,cs),
(822,1464,o),
(618,1253,o),
(618,976,cs),
(618,703,o),
(762,503,o),
(1054,503,cs)
);
}
);
width = 2085;
},
{
layerId = "EA2265BD-E890-48C4-9E90-A53076E780C5";
shapes = (
{
closed = 1;
nodes = (
(173,503,o),
(551,129,o),
(1021,129,cs),
(1494,129,o),
(1867,503,o),
(1867,979,cs),
(1867,1453,o),
(1494,1826,o),
(1021,1826,cs),
(551,1826,o),
(173,1453,o),
(173,979,cs)
);
},
{
closed = 1;
nodes = (
(313,1376,o),
(618,1705,o),
(1021,1705,cs),
(1420,1705,o),
(1726,1382,o),
(1726,979,cs),
(1726,579,o),
(1420,250,o),
(1021,250,cs),
(622,250,o),
(313,574,o),
(313,979,cs)
);
},
{
closed = 1;
nodes = (
(1173,503,o),
(1302,583,o),
(1357,653,c),
(1296,763,l),
(1249,719,o),
(1172,687,o),
(1095,687,cs),
(925,687,o),
(810,817,o),
(810,1012,cs),
(810,1190,o),
(885,1318,o),
(1031,1318,cs),
(1115,1318,o),
(1144,1302,o),
(1164,1287,c),
(1208,1154,l),
(1338,1154,l),
(1342,1405,l),
(1304,1443,o),
(1177,1464,o),
(1091,1464,cs),
(799,1464,o),
(595,1253,o),
(595,976,cs),
(595,703,o),
(739,503,o),
(1031,503,cs)
);
}
);
width = 2040;
},
{
layerId = "0E4B6E2E-ECAB-4D06-9686-B0B40AA31834";
shapes = (
{
closed = 1;
nodes = (
(160,504,o),
(534,120,o),
(1010,120,cs),
(1484,120,o),
(1860,504,o),
(1860,980,cs),
(1860,1454,o),
(1484,1836,o),
(1010,1836,cs),
(534,1836,o),
(160,1454,o),
(160,980,cs)
);
},
{
closed = 1;
nodes = (
(268,1394,o),
(590,1742,o),
(1010,1742,cs),
(1428,1742,o),
(1750,1394,o),
(1750,980,cs),
(1750,564,o),
(1428,216,o),
(1010,216,cs),
(590,216,o),
(268,564,o),
(268,980,cs)
);
},
{
closed = 1;
nodes = (
(1154,504,o),
(1276,582,o),
(1332,652,c),
(1292,720,l),
(1238,666,o),
(1162,628,o),
(1070,628,cs),
(868,628,o),
(734,774,o),
(734,1002,cs),
(734,1220,o),
(840,1356,o),
(1012,1356,cs),
(1114,1356,o),
(1158,1342,o),
(1188,1320,c),
(1226,1192,l),
(1322,1192,l),
(1322,1402,l),
(1284,1440,o),
(1158,1460,o),
(1072,1460,cs),
(788,1460,o),
(578,1244,o),
(578,970,cs),
(578,700,o),
(726,504,o),
(1014,504,cs)
);
}
);
width = 2020;
},
{
layerId = "F2B10EEF-9DDC-48CA-970D-6B8C79870881";
shapes = (
{
closed = 1;
nodes = (
(173,503,o),
(554,119,o),
(1024,119,cs),
(1497,119,o),
(1872,503,o),
(1872,979,cs),
(1872,1453,o),
(1497,1836,o),
(1024,1836,cs),
(552,1836,o),
(173,1457,o),
(173,979,cs)
);
},
{
closed = 1;
nodes = (
(275,1409,o),
(602,1748,o),
(1024,1748,cs),
(1442,1748,o),
(1770,1405,o),
(1770,979,cs),
(1770,551,o),
(1438,210,o),
(1024,210,cs),
(603,210,o),
(275,547,o),
(275,978,cs)
);
},
{
closed = 1;
nodes = (
(1176,503,o),
(1305,583,o),
(1360,653,c),
(1335,709,l),
(1282,662,o),
(1195,627,o),
(1108,627,cs),
(930,627,o),
(813,780,o),
(813,1012,cs),
(813,1233,o),
(912,1399,o),
(1044,1399,cs),
(1093,1399,o),
(1146,1386,o),
(1167,1368,c),
(1211,1154,l),
(1341,1154,l),
(1345,1405,l),
(1307,1443,o),
(1180,1464,o),
(1094,1464,cs),
(802,1464,o),
(598,1253,o),
(598,976,cs),
(598,703,o),
(742,503,o),
(1034,503,cs)
);
}
);
width = 2045;
},
{
layerId = "E96AC896-F5DF-475B-BBD9-C7FEC6A86D0E";
shapes = (
{
closed = 1;
nodes = (
(165,484,o),
(515,120,o),
(959,120,cs),
(1402,120,o),
(1754,484,o),
(1754,960,cs),
(1754,1434,o),
(1402,1796,o),
(959,1796,cs),
(515,1796,o),
(165,1434,o),
(165,960,cs)
);
},
{
closed = 1;
nodes = (
(226,1397,o),
(544,1742,o),
(959,1742,cs),
(1373,1742,o),
(1691,1397,o),
(1691,960,cs),
(1691,521,o),
(1373,176,o),
(959,176,cs),
(545,176,o),
(226,521,o),
(226,960,cs)
);
},
{
closed = 1;
nodes = (
(1096,484,o),
(1198,558,o),
(1259,626,c),
(1238,662,l),
(1181,600,o),
(1087,557,o),
(1004,557,cs),
(835,557,o),
(712,723,o),
(712,993,cs),
(712,1226,o),
(804,1390,o),
(987,1390,cs),
(1059,1390,o),
(1113,1364,o),
(1131,1343,c),
(1175,1172,l),
(1251,1172,l),
(1252,1382,l),
(1216,1420,o),
(1098,1440,o),
(1016,1440,cs),
(752,1440,o),
(556,1230,o),
(556,936,cs),
(556,669,o),
(716,484,o),
(949,484,cs)
);
}
);
width = 1919;
},
{
layerId = "C9B9556E-C2FD-4F62-BB40-44923C452C22";
shapes = (
{
closed = 1;
nodes = (
(170,484,o),
(520,120,o),
(964,120,cs),
(1407,120,o),
(1759,484,o),
(1759,960,cs),
(1759,1434,o),
(1407,1796,o),
(964,1796,cs),
(520,1796,o),
(170,1434,o),
(170,960,cs)
);
},
{
closed = 1;
nodes = (
(231,1397,o),
(549,1742,o),
(964,1742,cs),
(1378,1742,o),
(1696,1397,o),
(1696,960,cs),
(1696,521,o),
(1378,176,o),
(964,176,cs),
(550,176,o),
(231,521,o),
(231,960,cs)
);
},
{
closed = 1;
nodes = (
(1101,484,o),
(1203,558,o),
(1264,626,c),
(1243,662,l),
(1186,600,o),
(1092,557,o),
(1009,557,cs),
(840,557,o),
(717,723,o),
(717,993,cs),
(717,1226,o),
(809,1390,o),
(992,1390,cs),
(1064,1390,o),
(1118,1364,o),
(1136,1343,c),
(1180,1172,l),
(1256,1172,l),
(1257,1382,l),
(1221,1420,o),
(1103,1440,o),
(1021,1440,cs),
(757,1440,o),
(561,1230,o),
(561,936,cs),
(561,669,o),
(721,484,o),
(954,484,cs)
);
}
);
width = 1929;
},
{
layerId = "AFA1064D-EFC9-4C9F-B9B0-9118E41D87C4";
shapes = (
{
closed = 1;
nodes = (
(193,503,o),
(574,119,o),
(1044,119,cs),
(1517,119,o),
(1892,503,o),
(1892,979,cs),
(1892,1453,o),
(1517,1836,o),
(1044,1836,cs),
(572,1836,o),
(193,1457,o),
(193,979,cs)
);
},
{
closed = 1;
nodes = (
(295,1409,o),
(622,1748,o),
(1044,1748,cs),
(1462,1748,o),
(1790,1405,o),
(1790,979,cs),
(1790,551,o),
(1458,210,o),
(1044,210,cs),
(623,210,o),
(295,547,o),
(295,978,cs)
);
},
{
closed = 1;
nodes = (
(1196,503,o),
(1325,583,o),
(1380,653,c),
(1355,709,l),
(1302,662,o),
(1215,627,o),
(1128,627,cs),
(950,627,o),
(833,780,o),
(833,1012,cs),
(833,1233,o),
(932,1399,o),
(1064,1399,cs),
(1113,1399,o),
(1166,1386,o),
(1187,1368,c),
(1231,1154,l),
(1361,1154,l),
(1365,1405,l),
(1327,1443,o),
(1200,1464,o),
(1114,1464,cs),
(822,1464,o),
(618,1253,o),
(618,976,cs),
(618,703,o),
(762,503,o),
(1054,503,cs)
);
}
);
width = 2085;
},
{
layerId = "2103F1D3-C390-4F79-A87D-298F85EA6916";
shapes = (
{
closed = 1;
nodes = (
(178,484,o),
(528,120,o),
(972,120,cs),
(1415,120,o),
(1767,484,o),
(1767,960,cs),
(1767,1434,o),
(1415,1796,o),
(972,1796,cs),
(528,1796,o),
(178,1434,o),
(178,960,cs)
);
},
{
closed = 1;
nodes = (
(239,1397,o),
(557,1742,o),
(972,1742,cs),
(1386,1742,o),
(1704,1397,o),
(1704,960,cs),
(1704,521,o),
(1386,176,o),
(972,176,cs),
(558,176,o),
(239,521,o),
(239,960,cs)
);
},
{
closed = 1;
nodes = (
(1109,484,o),
(1211,558,o),
(1272,626,c),
(1251,662,l),
(1194,600,o),
(1100,557,o),
(1017,557,cs),
(848,557,o),
(725,723,o),
(725,993,cs),
(725,1226,o),
(817,1390,o),
(1000,1390,cs),
(1072,1390,o),
(1126,1364,o),
(1144,1343,c),
(1188,1172,l),
(1264,1172,l),
(1265,1382,l),
(1229,1420,o),
(1111,1440,o),
(1029,1440,cs),
(765,1440,o),
(569,1230,o),
(569,936,cs),
(569,669,o),
(729,484,o),
(962,484,cs)
);
}
);
width = 1945;
},
{
layerId = "779F1615-9D1A-4778-9767-9A030AA58B6C";
shapes = (
{
closed = 1;
nodes = (
(195,504,o),
(569,120,o),
(1045,120,cs),
(1519,120,o),
(1895,504,o),
(1895,980,cs),
(1895,1454,o),
(1519,1836,o),
(1045,1836,cs),
(569,1836,o),
(195,1454,o),
(195,980,cs)
);
},
{
closed = 1;
nodes = (
(303,1394,o),
(625,1742,o),
(1045,1742,cs),
(1463,1742,o),
(1785,1394,o),
(1785,980,cs),
(1785,564,o),
(1463,216,o),
(1045,216,cs),
(625,216,o),
(303,564,o),
(303,980,cs)
);
},
{
closed = 1;
nodes = (
(1189,504,o),
(1311,582,o),
(1367,652,c),
(1327,720,l),
(1273,666,o),
(1197,628,o),
(1105,628,cs),
(903,628,o),
(769,774,o),
(769,1002,cs),
(769,1220,o),
(875,1356,o),
(1047,1356,cs),
(1149,1356,o),
(1193,1342,o),
(1223,1320,c),
(1261,1192,l),
(1357,1192,l),
(1357,1402,l),
(1319,1440,o),
(1193,1460,o),
(1107,1460,cs),
(823,1460,o),
(613,1244,o),
(613,970,cs),
(613,700,o),
(761,504,o),
(1049,504,cs)
);
}
);
userData = {
com.schriftgestaltung.Glyphs.lastChange = "2019-04-25 21:50:43 +0000";
};
width = 2090;
},
{
layerId = "97BB7961-D669-43AB-8BBF-11FFD0C46A4B";
shapes = (
{
closed = 1;
nodes = (
(193,503,o),
(571,129,o),
(1041,129,cs),
(1514,129,o),
(1887,503,o),
(1887,979,cs),
(1887,1453,o),
(1514,1826,o),
(1041,1826,cs),
(571,1826,o),
(193,1453,o),
(193,979,cs)
);
},
{
closed = 1;
nodes = (
(333,1376,o),
(638,1705,o),
(1041,1705,cs),
(1440,1705,o),
(1746,1382,o),
(1746,979,cs),
(1746,579,o),
(1440,250,o),
(1041,250,cs),
(642,250,o),
(333,574,o),
(333,979,cs)
);
},
{
closed = 1;
nodes = (
(1193,503,o),
(1322,583,o),
(1377,653,c),
(1316,763,l),
(1269,719,o),
(1192,687,o),
(1115,687,cs),
(945,687,o),
(830,817,o),
(830,1012,cs),
(830,1190,o),
(905,1318,o),
(1051,1318,cs),
(1135,1318,o),
(1164,1302,o),
(1184,1287,c),
(1228,1154,l),
(1358,1154,l),
(1362,1405,l),
(1324,1443,o),
(1197,1464,o),
(1111,1464,cs),
(819,1464,o),
(615,1253,o),
(615,976,cs),
(615,703,o),
(759,503,o),
(1051,503,cs)
);
}
);
width = 2080;
}
);
unicode = 169;
userData = {
KernOnSpecialSpacing = {
R = symbols;
};
};
}
{
glyphname = ordfeminine;
kernLeft = ordfeminine;
kernRight = ordfeminine;
layers = (
{
layerId = UUID0;
shapes = (
{
closed = 1;
nodes = (
(39,759,o),
(175,682,o),
(320,682,cs),
(456,682,o),
(563,777,o),
(603,813,c),
(603,753,ls),
(603,690,o),
(634,685,o),
(681,685,cs),
(730,685,o),
(796,699,o),
(832,709,c),
(832,769,l),
(731,769,l),
(731,1304,ls),
(731,1531,o),
(645,1616,o),
(430,1616,cs),
(274,1616,o),
(104,1526,o),
(75,1498,c),
(110,1427,l),
(162,1456,o),
(271,1513,o),
(397,1513,cs),
(550,1513,o),
(592,1451,o),
(592,1291,cs),
(592,1239,l),
(324,1234,o),
(39,1163,o),
(39,936,cs)
);
},
{
closed = 1;
nodes = (
(269,777,o),
(193,823,o),
(193,952,cs),
(193,1075,o),
(323,1161,o),
(592,1163,c),
(592,876,l),
(527,826,o),
(433,777,o),
(368,777,cs)
);
}
);
width = 875;
},
{
layerId = "DEBB1CE4-A72D-4960-969E-E04A036D2FA1";
shapes = (
{
closed = 1;
nodes = (
(39,761,o),
(164,660,o),
(312,660,cs),
(445,660,o),
(557,733,o),
(598,786,c),
(598,749,ls),
(598,678,o),
(637,659,o),
(720,659,cs),
(790,659,o),
(898,675,o),
(936,683,c),
(936,785,l),
(853,785,l),
(853,1267,ls),
(853,1504,o),
(732,1600,o),
(474,1600,cs),
(277,1600,o),
(109,1509,o),
(67,1476,c),
(144,1359,l),
(196,1382,o),
(281,1427,o),
(405,1427,cs),
(539,1427,o),
(584,1377,o),
(584,1266,cs),
(584,1235,l),
(261,1232,o),
(39,1134,o),
(39,937,cs)
);
},
{
closed = 1;
nodes = (
(384,809,o),
(337,866,o),
(337,963,cs),
(337,1049,o),
(405,1125,o),
(584,1126,c),
(584,868,l),
(551,835,o),
(498,809,o),
(458,809,cs)
);
}
);
width = 979;
},
{
layerId = "184155C8-9F61-4F1C-9784-DDA8EA717636";
shapes = (
{
closed = 1;
nodes = (
(13,965,o),
(86,875,o),
(208,875,c),
(311,875,o),
(383,938,o),
(406,997,c),
(406,939,ls),
(406,883,o),
(447,877,o),
(512,877,cs),
(585,877,o),
(659,893,o),
(689,899,c),
(689,934,l),
(638,948,l),
(638,1365,ls),
(638,1546,o),
(531,1615,o),
(375,1615,cs),
(225,1615,o),
(105,1542,o),
(57,1504,c),
(77,1463,l),
(114,1476,o),
(185,1498,o),
(274,1498,cs),
(375,1498,o),
(403,1456,o),
(403,1396,cs),
(403,1317,l),
(231,1317,o),
(13,1253,o),
(13,1073,cs)
);
},
{
closed = 1;
nodes = (
(283,995,o),
(249,1036,o),
(249,1108,cs),
(249,1202,o),
(285,1266,o),
(403,1267,c),
(403,1030,l),
(390,1004,o),
(355,995,o),
(332,995,cs)
);
}
);
width = 699;
},
{
layerId = "EA2265BD-E890-48C4-9E90-A53076E780C5";
shapes = (
{
closed = 1;
nodes = (
(26,761,o),
(135,660,o),
(264,660,cs),
(380,660,o),
(478,733,o),
(514,786,c),
(514,749,ls),
(514,678,o),
(548,659,o),
(621,659,cs),
(682,659,o),
(776,675,o),
(809,683,c),
(809,785,l),
(737,785,l),
(737,1267,ls),
(737,1504,o),
(648,1600,o),
(423,1600,cs),
(251,1600,o),
(104,1509,o),
(68,1476,c),
(118,1359,l),
(163,1382,o),
(255,1427,o),
(363,1427,cs),
(480,1427,o),
(502,1377,o),
(502,1266,cs),
(502,1235,l),
(220,1232,o),
(26,1134,o),
(26,937,cs)
);
},
{
closed = 1;
nodes = (
(327,809,o),
(286,866,o),
(286,963,cs),
(286,1049,o),
(345,1125,o),
(502,1126,c),
(502,868,l),
(473,835,o),
(427,809,o),
(392,809,cs)
);
}
);
width = 828;
},
{
layerId = "0E4B6E2E-ECAB-4D06-9686-B0B40AA31834";
shapes = (
{
closed = 1;
nodes = (
(39,759,o),
(170,682,o),
(303,682,cs),
(427,682,o),
(520,777,o),
(557,813,c),
(557,753,ls),
(557,690,o),
(599,685,o),
(642,685,cs),
(684,685,o),
(744,699,o),
(777,709,c),
(777,769,l),
(685,769,l),
(685,1304,ls),
(685,1531,o),
(599,1616,o),
(403,1616,cs),
(261,1616,o),
(105,1526,o),
(79,1498,c),
(111,1427,l),
(158,1456,o),
(258,1513,o),
(373,1513,cs),
(513,1513,o),
(547,1451,o),
(547,1291,cs),
(547,1239,l),
(302,1234,o),
(39,1163,o),
(39,936,cs)
);
},
{
closed = 1;
nodes = (
(256,777,o),
(189,823,o),
(189,952,cs),
(189,1075,o),
(301,1161,o),
(547,1163,c),
(547,876,l),
(488,826,o),
(406,777,o),
(346,777,cs)
);
}
);
width = 787;
},
{
layerId = "F2B10EEF-9DDC-48CA-970D-6B8C79870881";
shapes = (
{
closed = 1;
nodes = (
(16,955,o),
(83,875,o),
(206,875,c),
(301,875,o),
(367,938,o),
(388,997,c),
(388,939,ls),
(388,883,o),
(426,877,o),
(486,877,cs),
(563,877,o),
(632,893,o),
(659,899,c),
(659,934,l),
(612,948,l),
(612,1365,ls),
(612,1546,o),
(514,1615,o),
(360,1615,cs),
(222,1615,o),
(111,1542,o),
(67,1504,c),
(85,1463,l),
(119,1476,o),
(185,1498,o),
(267,1498,cs),
(341,1498,o),
(386,1456,o),
(386,1396,cs),
(386,1317,l),
(227,1317,o),
(16,1253,o),
(16,1073,cs)
);
},
{
closed = 1;
nodes = (
(275,995,o),
(244,1036,o),
(244,1108,cs),
(244,1202,o),
(277,1266,o),
(386,1267,c),
(386,1030,l),
(374,1004,o),
(341,995,o),
(320,995,cs)
);
}
);
width = 679;
},
{
layerId = "E96AC896-F5DF-475B-BBD9-C7FEC6A86D0E";
shapes = (
{
closed = 1;
nodes = (
(28,935,o),
(116,880,o),
(212,880,cs),
(333,880,o),
(399,971,o),
(422,1010,c),
(422,936,ls),
(422,896,o),
(444,879,o),
(482,879,cs),
(541,879,o),
(572,890,o),
(599,900,c),
(599,931,l),
(530,931,l),
(530,1371,ls),
(530,1526,o),
(467,1616,o),
(328,1616,cs),
(192,1616,o),
(104,1554,o),
(55,1522,c),
(72,1484,l),
(129,1520,o),
(198,1547,o),
(309,1547,cs),
(405,1547,o),
(420,1456,o),
(420,1371,cs),
(420,1303,l),
(248,1303,o),
(28,1231,o),
(28,1061,cs)
);
},
{
closed = 1;
nodes = (
(175,943,o),
(143,994,o),
(143,1074,cs),
(143,1200,o),
(278,1264,o),
(420,1264,c),
(420,1036,l),
(372,986,o),
(314,943,o),
(248,943,cs)
);
}
);
width = 628;
},
{
layerId = "C9B9556E-C2FD-4F62-BB40-44923C452C22";
shapes = (
{
closed = 1;
nodes = (
(32,935,o),
(127,880,o),
(232,880,cs),
(363,880,o),
(435,971,o),
(459,1010,c),
(459,936,ls),
(459,896,o),
(483,879,o),
(525,879,cs),
(589,879,o),
(622,890,o),
(652,900,c),
(652,931,l),
(577,931,l),
(577,1371,ls),
(577,1526,o),
(508,1616,o),
(357,1616,cs),
(217,1616,o),
(121,1554,o),
(68,1522,c),
(87,1484,l),
(148,1520,o),
(223,1547,o),
(337,1547,cs),
(441,1547,o),
(457,1456,o),
(457,1371,cs),
(457,1303,l),
(271,1303,o),
(32,1231,o),
(32,1061,cs)
);
},
{
closed = 1;
nodes = (
(192,943,o),
(157,994,o),
(157,1074,cs),
(157,1200,o),
(303,1264,o),
(457,1264,c),
(457,1036,l),
(405,986,o),
(342,943,o),
(271,943,cs)
);
}
);
width = 680;
},
{
layerId = "AFA1064D-EFC9-4C9F-B9B0-9118E41D87C4";
shapes = (
{
closed = 1;
nodes = (
(15,955,o),
(91,875,o),
(218,875,c),
(325,875,o),
(400,938,o),
(424,997,c),
(424,939,ls),
(424,883,o),
(466,877,o),
(534,877,cs),
(610,877,o),
(687,893,o),
(718,899,c),
(718,934,l),
(665,948,l),
(665,1365,ls),
(665,1546,o),
(554,1615,o),
(391,1615,cs),
(235,1615,o),
(111,1542,o),
(61,1504,c),
(82,1463,l),
(120,1476,o),
(194,1498,o),
(286,1498,cs),
(371,1498,o),
(421,1456,o),
(421,1396,cs),
(421,1317,l),
(232,1317,o),
(15,1253,o),
(15,1073,cs)
);
},
{
closed = 1;
nodes = (
(296,995,o),
(260,1036,o),
(260,1108,cs),
(260,1202,o),
(288,1266,o),
(421,1267,c),
(421,1030,l),
(407,1004,o),
(371,995,o),
(347,995,cs)
);
}
);
width = 768;
},
{
layerId = "2103F1D3-C390-4F79-A87D-298F85EA6916";
shapes = (
{
closed = 1;
nodes = (
(32,935,o),
(132,880,o),
(242,880,cs),
(380,880,o),
(455,971,o),
(480,1010,c),
(480,936,ls),
(480,896,o),
(506,879,o),
(550,879,cs),
(617,879,o),
(651,890,o),
(683,900,c),
(683,931,l),
(604,931,l),
(604,1371,ls),
(604,1526,o),
(532,1616,o),
(373,1616,cs),
(226,1616,o),
(125,1554,o),
(70,1522,c),
(90,1484,l),
(154,1520,o),
(233,1547,o),
(352,1547,cs),
(461,1547,o),
(478,1456,o),
(478,1371,cs),
(478,1303,l),
(283,1303,o),
(32,1231,o),
(32,1061,cs)
);
},
{
closed = 1;
nodes = (
(200,943,o),
(163,994,o),
(163,1074,cs),
(163,1200,o),
(317,1264,o),
(478,1264,c),
(478,1036,l),
(424,986,o),
(357,943,o),
(283,943,cs)
);
}
);
width = 705;
},
{
layerId = "779F1615-9D1A-4778-9767-9A030AA58B6C";
shapes = (
{
closed = 1;
nodes = (
(59,757,o),
(207,682,o),
(356,682,cs),
(498,682,o),
(606,777,o),
(648,813,c),
(648,753,ls),
(648,690,o),
(683,685,o),
(732,685,cs),
(783,685,o),
(851,699,o),
(889,709,c),
(889,769,l),
(784,769,l),
(784,1304,ls),
(784,1531,o),
(691,1616,o),
(468,1616,cs),
(305,1616,o),
(127,1526,o),
(96,1498,c),
(133,1427,l),
(187,1456,o),
(302,1513,o),
(433,1513,cs),
(592,1513,o),
(636,1451,o),
(636,1291,cs),
(636,1239,l),
(365,1234,o),
(59,1163,o),
(59,936,cs)
);
},
{
closed = 1;
nodes = (
(300,777,o),
(222,821,o),
(222,952,cs),
(222,1075,o),
(354,1161,o),
(636,1163,c),
(636,876,l),
(569,826,o),
(469,777,o),
(401,777,cs)
);
}
);
userData = {
com.schriftgestaltung.Glyphs.lastChange = "2019-04-25 21:50:43 +0000";
};
width = 934;
},
{
layerId = "97BB7961-D669-43AB-8BBF-11FFD0C46A4B";
shapes = (
{
closed = 1;
nodes = (
(38,761,o),
(167,660,o),
(319,660,cs),
(456,660,o),
(572,733,o),
(614,786,c),
(614,749,ls),
(614,678,o),
(654,659,o),
(739,659,cs),
(812,659,o),
(923,675,o),
(962,683,c),
(962,785,l),
(876,785,l),
(876,1267,ls),
(876,1504,o),
(772,1600,o),
(507,1600,cs),
(304,1600,o),
(131,1509,o),
(87,1476,c),
(146,1359,l),
(200,1382,o),
(308,1427,o),
(436,1427,cs),
(574,1427,o),
(599,1377,o),
(599,1266,cs),
(599,1235,l),
(267,1232,o),
(38,1134,o),
(38,937,cs)
);
},
{
closed = 1;
nodes = (
(393,809,o),
(345,866,o),
(345,963,cs),
(345,1049,o),
(415,1125,o),
(599,1126,c),
(599,868,l),
(565,835,o),
(511,809,o),
(470,809,cs)
);
}
);
width = 993;
}
);
metricLeft = a;
metricRight = a;
unicode = 170;
}
{
glyphname = guillemetleft;
layers = (
{
layerId = UUID0;
shapes = (
{
closed = 1;
nodes = (
(132,664,l),
(132,532,l),
(564,114,l),
(654,186,l),
(322,600,l),
(654,1028,l),
(564,1094,l)
);
},
{
closed = 1;
nodes = (
(656,664,l),
(656,532,l),
(1116,114,l),
(1206,186,l),
(846,600,l),
(1206,1028,l),
(1116,1094,l)
);
}
);
width = 1358;
},
{
layerId = "DEBB1CE4-A72D-4960-969E-E04A036D2FA1";
shapes = (
{
closed = 1;
nodes = (
(117,673,l),
(117,520,l),
(563,80,l),
(689,137,l),
(421,596,l),
(689,1068,l),
(563,1122,l)
);
},
{
closed = 1;
nodes = (
(666,673,l),
(666,520,l),
(1140,80,l),
(1267,137,l),
(970,596,l),
(1267,1068,l),
(1140,1122,l)
);
}
);
width = 1404;
},
{
layerId = "184155C8-9F61-4F1C-9784-DDA8EA717636";
shapes = (
{
closed = 1;
nodes = (
(100,556,l),
(100,497,l),
(567,57,l),
(612,79,l),
(385,526,l),
(612,986,l),
(567,1005,l)
);
},
{
closed = 1;
nodes = (
(579,556,l),
(579,497,l),
(1071,57,l),
(1118,79,l),
(864,526,l),
(1118,986,l),
(1071,1005,l)
);
}
);
width = 1226;
},
{
layerId = "EA2265BD-E890-48C4-9E90-A53076E780C5";
shapes = (
{
closed = 1;
nodes = (
(117,673,l),
(117,520,l),
(563,80,l),
(689,137,l),
(421,596,l),
(689,1068,l),
(563,1122,l)
);
},
{
closed = 1;
nodes = (
(666,673,l),
(666,520,l),
(1140,80,l),
(1267,137,l),
(970,596,l),
(1267,1068,l),
(1140,1122,l)
);
}
);
width = 1404;
},
{
layerId = "0E4B6E2E-ECAB-4D06-9686-B0B40AA31834";
shapes = (
{
closed = 1;
nodes = (
(142,664,l),
(142,532,l),
(574,114,l),
(664,186,l),
(332,600,l),
(664,1028,l),
(574,1094,l)
);
},
{
closed = 1;
nodes = (
(666,664,l),
(666,532,l),
(1126,114,l),
(1216,186,l),
(856,600,l),
(1216,1028,l),
(1126,1094,l)
);
}
);
width = 1378;
},
{
layerId = "F2B10EEF-9DDC-48CA-970D-6B8C79870881";
shapes = (
{
closed = 1;
nodes = (
(90,559,l),
(90,494,l),
(515,57,l),
(560,81,l),
(353,526,l),
(560,984,l),
(515,1005,l)
);
},
{
closed = 1;
nodes = (
(501,559,l),
(501,494,l),
(948,57,l),
(995,81,l),
(764,526,l),
(995,984,l),
(948,1005,l)
);
}
);
width = 1087;
},
{
layerId = "E96AC896-F5DF-475B-BBD9-C7FEC6A86D0E";
shapes = (
{
closed = 1;
nodes = (
(68,543,l),
(68,495,l),
(392,129,l),
(429,160,l),
(188,521,l),
(429,889,l),
(392,919,l)
);
},
{
closed = 1;
nodes = (
(402,543,l),
(402,495,l),
(746,129,l),
(782,160,l),
(522,521,l),
(782,889,l),
(746,919,l)
);
}
);
width = 882;
},
{
layerId = "C9B9556E-C2FD-4F62-BB40-44923C452C22";
shapes = (
{
closed = 1;
nodes = (
(90,545,l),
(90,493,l),
(466,129,l),
(505,160,l),
(243,521,l),
(505,893,l),
(466,919,l)
);
},
{
closed = 1;
nodes = (
(509,545,l),
(509,493,l),
(907,129,l),
(946,160,l),
(662,521,l),
(946,893,l),
(907,919,l)
);
}
);
width = 1044;
},
{
layerId = "AFA1064D-EFC9-4C9F-B9B0-9118E41D87C4";
shapes = (
{
closed = 1;
nodes = (
(90,558,l),
(90,495,l),
(608,57,l),
(651,79,l),
(389,526,l),
(651,986,l),
(608,1005,l)
);
},
{
closed = 1;
nodes = (
(597,558,l),
(597,495,l),
(1143,57,l),
(1188,79,l),
(896,526,l),
(1188,986,l),
(1143,1005,l)
);
}
);
width = 1292;
},
{
layerId = "2103F1D3-C390-4F79-A87D-298F85EA6916";
shapes = (
{
closed = 1;
nodes = (
(108,543,l),
(108,495,l),
(510,129,l),
(550,162,l),
(267,521,l),
(550,891,l),
(510,919,l)
);
},
{
closed = 1;
nodes = (
(564,543,l),
(564,495,l),
(991,129,l),
(1030,162,l),
(723,521,l),
(1030,891,l),
(991,919,l)
);
}
);
width = 1156;
},
{
layerId = "779F1615-9D1A-4778-9767-9A030AA58B6C";
shapes = (
{
closed = 1;
nodes = (
(152,664,l),
(152,532,l),
(584,114,l),
(674,186,l),
(332,600,l),
(674,1028,l),
(584,1094,l)
);
},
{
closed = 1;
nodes = (
(676,664,l),
(676,532,l),
(1136,114,l),
(1226,186,l),
(856,600,l),
(1226,1028,l),
(1136,1094,l)
);
}
);
userData = {
com.schriftgestaltung.Glyphs.lastChange = "2019-04-25 21:50:43 +0000";
};
width = 1398;
},
{
layerId = "97BB7961-D669-43AB-8BBF-11FFD0C46A4B";
shapes = (
{
closed = 1;
nodes = (
(117,673,l),
(117,520,l),
(563,80,l),
(689,137,l),
(421,596,l),
(689,1068,l),
(563,1122,l)
);
},
{
closed = 1;
nodes = (
(666,673,l),
(666,520,l),
(1140,80,l),
(1267,137,l),
(970,596,l),
(1267,1068,l),
(1140,1122,l)
);
}
);
width = 1404;
}
);
metricLeft = "=|guillemetright";
metricRight = "=|guillemetright";
unicode = 171;
userData = {
KernOnName = guillemetleft;
KernOnSpecialSpacing = {
L = quotes;
R = quotes;
};
};
}
{
glyphname = registered;
kernLeft = copyright;
kernRight = copyright;
layers = (
{
layerId = UUID0;
shapes = (
{
closed = 1;
nodes = (
(190,504,o),
(564,120,o),
(1040,120,cs),
(1514,120,o),
(1890,504,o),
(1890,980,cs),
(1890,1454,o),
(1514,1836,o),
(1040,1836,cs),
(564,1836,o),
(190,1454,o),
(190,980,cs)
);
},
{
closed = 1;
nodes = (
(298,1394,o),
(620,1742,o),
(1040,1742,cs),
(1458,1742,o),
(1780,1394,o),
(1780,980,cs),
(1780,564,o),
(1458,216,o),
(1040,216,cs),
(620,216,o),
(298,564,o),
(298,980,cs)
);
},
{
closed = 1;
nodes = (
(656,580,l),
(656,506,l),
(990,506,l),
(990,580,l),
(882,598,l),
(882,896,l),
(1056,894,l),
(1252,816,o),
(1164,506,o),
(1356,506,cs),
(1486,506,l),
(1486,592,l),
(1308,606,o),
(1372,832,o),
(1192,920,c),
(1322,950,o),
(1412,1054,o),
(1412,1210,cs),
(1412,1360,o),
(1288,1452,o),
(1056,1452,c),
(954,1450,o),
(908,1446,o),
(804,1446,cs),
(656,1446,l),
(656,1364,l),
(750,1344,l),
(750,602,l)
);
},
{
closed = 1;
nodes = (
(882,1350,l),
(942,1360,o),
(986,1360,o),
(1030,1360,cs),
(1178,1360,o),
(1258,1314,o),
(1258,1184,cs),
(1258,1078,o),
(1170,994,o),
(1062,994,cs),
(1018,994,o),
(914,994,o),
(882,1000,c)
);
}
);
width = 2080;
},
{
layerId = "DEBB1CE4-A72D-4960-969E-E04A036D2FA1";
shapes = (
{
closed = 1;
nodes = (
(193,503,o),
(571,129,o),
(1041,129,cs),
(1514,129,o),
(1887,503,o),
(1887,979,cs),
(1887,1453,o),
(1514,1826,o),
(1041,1826,cs),
(571,1826,o),
(193,1453,o),
(193,979,cs)
);
},
{
closed = 1;
nodes = (
(333,1376,o),
(638,1705,o),
(1041,1705,cs),
(1440,1705,o),
(1746,1382,o),
(1746,979,cs),
(1746,579,o),
(1440,250,o),
(1041,250,cs),
(642,250,o),
(333,574,o),
(333,979,cs)
);
},
{
closed = 1;
nodes = (
(643,604,l),
(643,509,l),
(1034,509,l),
(1034,604,l),
(943,625,l),
(943,874,l),
(1055,873,l),
(1209,822,o),
(1170,509,o),
(1318,509,cs),
(1511,509,l),
(1511,638,l),
(1377,641,o),
(1436,857,o),
(1227,938,c),
(1380,968,o),
(1431,1076,o),
(1431,1198,cs),
(1431,1347,o),
(1326,1453,o),
(1063,1453,c),
(953,1453,o),
(912,1446,o),
(828,1449,cs),
(643,1449,l),
(643,1342,l),
(723,1320,l),
(723,630,l)
);
},
{
closed = 1;
nodes = (
(943,1326,l),
(976,1335,o),
(1008,1336,o),
(1039,1336,cs),
(1145,1336,o),
(1192,1290,o),
(1192,1166,cs),
(1192,1077,o),
(1137,994,o),
(1061,994,cs),
(1025,994,o),
(975,994,o),
(943,1001,c)
);
}
);
width = 2080;
},
{
layerId = "184155C8-9F61-4F1C-9784-DDA8EA717636";
shapes = (
{
closed = 1;
nodes = (
(193,503,o),
(574,119,o),
(1044,119,cs),
(1517,119,o),
(1892,503,o),
(1892,979,cs),
(1892,1453,o),
(1517,1836,o),
(1044,1836,cs),
(572,1836,o),
(193,1457,o),
(193,979,cs)
);
},
{
closed = 1;
nodes = (
(295,1409,o),
(622,1748,o),
(1044,1748,cs),
(1462,1748,o),
(1790,1405,o),
(1790,979,cs),
(1790,551,o),
(1458,210,o),
(1044,210,cs),
(623,210,o),
(295,547,o),
(295,978,cs)
);
},
{
closed = 1;
nodes = (
(646,546,l),
(646,509,l),
(1037,509,l),
(1037,546,l),
(946,575,l),
(946,902,l),
(1058,901,l),
(1212,846,o),
(1173,509,o),
(1321,509,cs),
(1514,509,l),
(1514,555,l),
(1379,563,o),
(1438,835,o),
(1227,938,c),
(1381,967,o),
(1434,1079,o),
(1434,1192,cs),
(1434,1350,o),
(1329,1453,o),
(1066,1453,c),
(956,1453,o),
(915,1448,o),
(831,1448,cs),
(646,1448,l),
(646,1406,l),
(726,1376,l),
(726,580,l)
);
},
{
closed = 1;
nodes = (
(946,1384,l),
(979,1391,o),
(1011,1394,o),
(1032,1394,cs),
(1136,1394,o),
(1195,1317,o),
(1195,1180,cs),
(1195,1052,o),
(1143,966,o),
(1064,966,cs),
(1028,966,o),
(978,966,o),
(946,973,c)
);
}
);
width = 2085;
},
{
layerId = "EA2265BD-E890-48C4-9E90-A53076E780C5";
shapes = (
{
closed = 1;
nodes = (
(173,503,o),
(551,129,o),
(1021,129,cs),
(1494,129,o),
(1867,503,o),
(1867,979,cs),
(1867,1453,o),
(1494,1826,o),
(1021,1826,cs),
(551,1826,o),
(173,1453,o),
(173,979,cs)
);
},
{
closed = 1;
nodes = (
(313,1376,o),
(618,1705,o),
(1021,1705,cs),
(1420,1705,o),
(1726,1382,o),
(1726,979,cs),
(1726,579,o),
(1420,250,o),
(1021,250,cs),
(622,250,o),
(313,574,o),
(313,979,cs)
);
},
{
closed = 1;
nodes = (
(623,604,l),
(623,509,l),
(1014,509,l),
(1014,604,l),
(923,625,l),
(923,874,l),
(1035,873,l),
(1189,822,o),
(1150,509,o),
(1298,509,cs),
(1491,509,l),
(1491,638,l),
(1357,641,o),
(1416,857,o),
(1207,938,c),
(1360,968,o),
(1411,1076,o),
(1411,1198,cs),
(1411,1347,o),
(1306,1453,o),
(1043,1453,c),
(933,1453,o),
(892,1446,o),
(808,1449,cs),
(623,1449,l),
(623,1342,l),
(703,1320,l),
(703,630,l)
);
},
{
closed = 1;
nodes = (
(923,1326,l),
(956,1335,o),
(988,1336,o),
(1019,1336,cs),
(1125,1336,o),
(1172,1290,o),
(1172,1166,cs),
(1172,1077,o),
(1117,994,o),
(1041,994,cs),
(1005,994,o),
(955,994,o),
(923,1001,c)
);
}
);
width = 2040;
},
{
layerId = "0E4B6E2E-ECAB-4D06-9686-B0B40AA31834";
shapes = (
{
closed = 1;
nodes = (
(160,504,o),
(534,120,o),
(1010,120,cs),
(1484,120,o),
(1860,504,o),
(1860,980,cs),
(1860,1454,o),
(1484,1836,o),
(1010,1836,cs),
(534,1836,o),
(160,1454,o),
(160,980,cs)
);
},
{
closed = 1;
nodes = (
(268,1394,o),
(590,1742,o),
(1010,1742,cs),
(1428,1742,o),
(1750,1394,o),
(1750,980,cs),
(1750,564,o),
(1428,216,o),
(1010,216,cs),
(590,216,o),
(268,564,o),
(268,980,cs)
);
},
{
closed = 1;
nodes = (
(626,580,l),
(626,506,l),
(960,506,l),
(960,580,l),
(852,598,l),
(852,896,l),
(1026,894,l),
(1222,816,o),
(1134,506,o),
(1326,506,cs),
(1456,506,l),
(1456,592,l),
(1278,606,o),
(1342,832,o),
(1162,920,c),
(1292,950,o),
(1382,1054,o),
(1382,1210,cs),
(1382,1360,o),
(1258,1452,o),
(1026,1452,c),
(924,1450,o),
(878,1446,o),
(774,1446,cs),
(626,1446,l),
(626,1364,l),
(720,1344,l),
(720,602,l)
);
},
{
closed = 1;
nodes = (
(852,1350,l),
(912,1360,o),
(956,1360,o),
(1000,1360,cs),
(1148,1360,o),
(1228,1314,o),
(1228,1184,cs),
(1228,1078,o),
(1140,994,o),
(1032,994,cs),
(988,994,o),
(884,994,o),
(852,1000,c)
);
}
);
width = 2020;
},
{
layerId = "F2B10EEF-9DDC-48CA-970D-6B8C79870881";
shapes = (
{
closed = 1;
nodes = (
(173,503,o),
(554,119,o),
(1024,119,cs),
(1497,119,o),
(1872,503,o),
(1872,979,cs),
(1872,1453,o),
(1497,1836,o),
(1024,1836,cs),
(552,1836,o),
(173,1457,o),
(173,979,cs)
);
},
{
closed = 1;
nodes = (
(275,1409,o),
(602,1748,o),
(1024,1748,cs),
(1442,1748,o),
(1770,1405,o),
(1770,979,cs),
(1770,551,o),
(1438,210,o),
(1024,210,cs),
(603,210,o),
(275,547,o),
(275,978,cs)
);
},
{
closed = 1;
nodes = (
(626,546,l),
(626,509,l),
(1017,509,l),
(1017,546,l),
(926,575,l),
(926,902,l),
(1038,901,l),
(1192,846,o),
(1153,509,o),
(1301,509,cs),
(1494,509,l),
(1494,555,l),
(1359,563,o),
(1418,835,o),
(1207,938,c),
(1361,967,o),
(1414,1079,o),
(1414,1192,cs),
(1414,1350,o),
(1309,1453,o),
(1046,1453,c),
(936,1453,o),
(895,1448,o),
(811,1448,cs),
(626,1448,l),
(626,1406,l),
(706,1376,l),
(706,580,l)
);
},
{
closed = 1;
nodes = (
(926,1384,l),
(959,1391,o),
(991,1394,o),
(1012,1394,cs),
(1116,1394,o),
(1175,1317,o),
(1175,1180,cs),
(1175,1052,o),
(1123,966,o),
(1044,966,cs),
(1008,966,o),
(958,966,o),
(926,973,c)
);
}
);
width = 2045;
},
{
layerId = "E96AC896-F5DF-475B-BBD9-C7FEC6A86D0E";
shapes = (
{
closed = 1;
nodes = (
(165,484,o),
(515,120,o),
(959,120,cs),
(1402,120,o),
(1754,484,o),
(1754,960,cs),
(1754,1434,o),
(1402,1796,o),
(959,1796,cs),
(515,1796,o),
(165,1434,o),
(165,960,cs)
);
},
{
closed = 1;
nodes = (
(226,1397,o),
(544,1742,o),
(959,1742,cs),
(1373,1742,o),
(1691,1397,o),
(1691,960,cs),
(1691,521,o),
(1373,176,o),
(959,176,cs),
(545,176,o),
(226,521,o),
(226,960,cs)
);
},
{
closed = 1;
nodes = (
(600,523,l),
(600,486,l),
(878,486,l),
(878,523,l),
(803,546,l),
(803,901,l),
(952,899,l),
(1128,867,o),
(1117,486,o),
(1226,486,cs),
(1393,486,l),
(1393,532,l),
(1206,549,o),
(1242,842,o),
(1080,917,c),
(1215,955,o),
(1304,1050,o),
(1304,1186,cs),
(1304,1342,o),
(1190,1432,o),
(975,1432,c),
(879,1430,o),
(836,1426,o),
(740,1426,cs),
(600,1426,l),
(600,1384,l),
(672,1364,l),
(672,546,l)
);
},
{
closed = 1;
nodes = (
(803,1375,l),
(864,1383,o),
(909,1383,o),
(976,1383,cs),
(1082,1383,o),
(1148,1314,o),
(1148,1182,cs),
(1148,1044,o),
(1083,949,o),
(961,949,cs),
(927,949,o),
(826,949,o),
(803,955,c)
);
}
);
width = 1919;
},
{
layerId = "C9B9556E-C2FD-4F62-BB40-44923C452C22";
shapes = (
{
closed = 1;
nodes = (
(170,484,o),
(520,120,o),
(964,120,cs),
(1407,120,o),
(1759,484,o),
(1759,960,cs),
(1759,1434,o),
(1407,1796,o),
(964,1796,cs),
(520,1796,o),
(170,1434,o),
(170,960,cs)
);
},
{
closed = 1;
nodes = (
(231,1397,o),
(549,1742,o),
(964,1742,cs),
(1378,1742,o),
(1696,1397,o),
(1696,960,cs),
(1696,521,o),
(1378,176,o),
(964,176,cs),
(550,176,o),
(231,521,o),
(231,960,cs)
);
},
{
closed = 1;
nodes = (
(605,523,l),
(605,486,l),
(883,486,l),
(883,523,l),
(808,546,l),
(808,901,l),
(957,899,l),
(1133,867,o),
(1122,486,o),
(1231,486,cs),
(1398,486,l),
(1398,532,l),
(1211,549,o),
(1247,842,o),
(1085,917,c),
(1220,955,o),
(1309,1050,o),
(1309,1186,cs),
(1309,1342,o),
(1195,1432,o),
(980,1432,c),
(884,1430,o),
(841,1426,o),
(745,1426,cs),
(605,1426,l),
(605,1384,l),
(677,1364,l),
(677,546,l)
);
},
{
closed = 1;
nodes = (
(808,1375,l),
(869,1383,o),
(914,1383,o),
(981,1383,cs),
(1087,1383,o),
(1153,1314,o),
(1153,1182,cs),
(1153,1044,o),
(1088,949,o),
(966,949,cs),
(932,949,o),
(831,949,o),
(808,955,c)
);
}
);
width = 1929;
},
{
layerId = "AFA1064D-EFC9-4C9F-B9B0-9118E41D87C4";
shapes = (
{
closed = 1;
nodes = (
(193,503,o),
(574,119,o),
(1044,119,cs),
(1517,119,o),
(1892,503,o),
(1892,979,cs),
(1892,1453,o),
(1517,1836,o),
(1044,1836,cs),
(572,1836,o),
(193,1457,o),
(193,979,cs)
);
},
{
closed = 1;
nodes = (
(295,1409,o),
(622,1748,o),
(1044,1748,cs),
(1462,1748,o),
(1790,1405,o),
(1790,979,cs),
(1790,551,o),
(1458,210,o),
(1044,210,cs),
(623,210,o),
(295,547,o),
(295,978,cs)
);
},
{
closed = 1;
nodes = (
(646,546,l),
(646,509,l),
(1037,509,l),
(1037,546,l),
(946,575,l),
(946,902,l),
(1058,901,l),
(1212,846,o),
(1173,509,o),
(1321,509,cs),
(1514,509,l),
(1514,555,l),
(1379,563,o),
(1438,835,o),
(1227,938,c),
(1381,967,o),
(1434,1079,o),
(1434,1192,cs),
(1434,1350,o),
(1329,1453,o),
(1066,1453,c),
(956,1453,o),
(915,1448,o),
(831,1448,cs),
(646,1448,l),
(646,1406,l),
(726,1376,l),
(726,580,l)
);
},
{
closed = 1;
nodes = (
(946,1384,l),
(979,1391,o),
(1011,1394,o),
(1032,1394,cs),
(1136,1394,o),
(1195,1317,o),
(1195,1180,cs),
(1195,1052,o),
(1143,966,o),
(1064,966,cs),
(1028,966,o),
(978,966,o),
(946,973,c)
);
}
);
width = 2085;
},
{
layerId = "2103F1D3-C390-4F79-A87D-298F85EA6916";
shapes = (
{
closed = 1;
nodes = (
(178,484,o),
(528,120,o),
(972,120,cs),
(1415,120,o),
(1767,484,o),
(1767,960,cs),
(1767,1434,o),
(1415,1796,o),
(972,1796,cs),
(528,1796,o),
(178,1434,o),
(178,960,cs)
);
},
{
closed = 1;
nodes = (
(239,1397,o),
(557,1742,o),
(972,1742,cs),
(1386,1742,o),
(1704,1397,o),
(1704,960,cs),
(1704,521,o),
(1386,176,o),
(972,176,cs),
(558,176,o),
(239,521,o),
(239,960,cs)
);
},
{
closed = 1;
nodes = (
(613,523,l),
(613,486,l),
(891,486,l),
(891,523,l),
(816,546,l),
(816,901,l),
(965,899,l),
(1141,867,o),
(1130,486,o),
(1239,486,cs),
(1406,486,l),
(1406,532,l),
(1219,549,o),
(1255,842,o),
(1093,917,c),
(1228,955,o),
(1317,1050,o),
(1317,1186,cs),
(1317,1342,o),
(1203,1432,o),
(988,1432,c),
(892,1430,o),
(849,1426,o),
(753,1426,cs),
(613,1426,l),
(613,1384,l),
(685,1364,l),
(685,546,l)
);
},
{
closed = 1;
nodes = (
(816,1375,l),
(877,1383,o),
(922,1383,o),
(989,1383,cs),
(1095,1383,o),
(1161,1314,o),
(1161,1182,cs),
(1161,1044,o),
(1096,949,o),
(974,949,cs),
(940,949,o),
(839,949,o),
(816,955,c)
);
}
);
width = 1945;
},
{
layerId = "779F1615-9D1A-4778-9767-9A030AA58B6C";
shapes = (
{
closed = 1;
nodes = (
(195,504,o),
(569,120,o),
(1045,120,cs),
(1519,120,o),
(1895,504,o),
(1895,980,cs),
(1895,1454,o),
(1519,1836,o),
(1045,1836,cs),
(569,1836,o),
(195,1454,o),
(195,980,cs)
);
},
{
closed = 1;
nodes = (
(303,1394,o),
(625,1742,o),
(1045,1742,cs),
(1463,1742,o),
(1785,1394,o),
(1785,980,cs),
(1785,564,o),
(1463,216,o),
(1045,216,cs),
(625,216,o),
(303,564,o),
(303,980,cs)
);
},
{
closed = 1;
nodes = (
(661,580,l),
(661,506,l),
(995,506,l),
(995,580,l),
(887,598,l),
(887,896,l),
(1061,894,l),
(1257,816,o),
(1169,506,o),
(1361,506,cs),
(1491,506,l),
(1491,592,l),
(1313,606,o),
(1377,832,o),
(1197,920,c),
(1327,950,o),
(1417,1054,o),
(1417,1210,cs),
(1417,1360,o),
(1293,1452,o),
(1061,1452,c),
(959,1450,o),
(913,1446,o),
(809,1446,cs),
(661,1446,l),
(661,1364,l),
(755,1344,l),
(755,602,l)
);
},
{
closed = 1;
nodes = (
(887,1350,l),
(947,1360,o),
(991,1360,o),
(1035,1360,cs),
(1183,1360,o),
(1263,1314,o),
(1263,1184,cs),
(1263,1078,o),
(1175,994,o),
(1067,994,cs),
(1023,994,o),
(919,994,o),
(887,1000,c)
);
}
);
userData = {
com.schriftgestaltung.Glyphs.lastChange = "2019-04-25 21:50:43 +0000";
};
width = 2090;
},
{
layerId = "97BB7961-D669-43AB-8BBF-11FFD0C46A4B";
shapes = (
{
closed = 1;
nodes = (
(193,503,o),
(571,129,o),
(1041,129,cs),
(1514,129,o),
(1887,503,o),
(1887,979,cs),
(1887,1453,o),
(1514,1826,o),
(1041,1826,cs),
(571,1826,o),
(193,1453,o),
(193,979,cs)
);
},
{
closed = 1;
nodes = (
(333,1376,o),
(638,1705,o),
(1041,1705,cs),
(1440,1705,o),
(1746,1382,o),
(1746,979,cs),
(1746,579,o),
(1440,250,o),
(1041,250,cs),
(642,250,o),
(333,574,o),
(333,979,cs)
);
},
{
closed = 1;
nodes = (
(643,604,l),
(643,509,l),
(1034,509,l),
(1034,604,l),
(943,625,l),
(943,874,l),
(1055,873,l),
(1209,822,o),
(1170,509,o),
(1318,509,cs),
(1511,509,l),
(1511,638,l),
(1377,641,o),
(1436,857,o),
(1227,938,c),
(1380,968,o),
(1431,1076,o),
(1431,1198,cs),
(1431,1347,o),
(1326,1453,o),
(1063,1453,c),
(953,1453,o),
(912,1446,o),
(828,1449,cs),
(643,1449,l),
(643,1342,l),
(723,1320,l),
(723,630,l)
);
},
{
closed = 1;
nodes = (
(943,1326,l),
(976,1335,o),
(1008,1336,o),
(1039,1336,cs),
(1145,1336,o),
(1192,1290,o),
(1192,1166,cs),
(1192,1077,o),
(1137,994,o),
(1061,994,cs),
(1025,994,o),
(975,994,o),
(943,1001,c)
);
}
);
width = 2080;
}
);
metricLeft = copyright;
metricRight = copyright;
unicode = 174;
}
{
glyphname = micro;
kernLeft = micro;
kernRight = micro;
layers = (
{
layerId = UUID0;
shapes = (
{
closed = 1;
nodes = (
(326,-364,l),
(326,140,l),
(382,28,o),
(488,-20,o),
(590,-20,cs),
(724,-20,o),
(834,60,o),
(884,154,c),
(884,56,ls),
(884,4,o),
(921,-19,o),
(977,-19,cs),
(1039,-19,o),
(1111,-2,o),
(1149,12,c),
(1149,88,l),
(1027,88,l),
(1026,1111,l),
(981,1134,l),
(978,1134,l),
(713,1108,l),
(713,1034,l),
(866,1000,l),
(866,258,l),
(836,206,o),
(756,102,o),
(598,102,cs),
(441,102,o),
(340,250,o),
(340,318,cs),
(340,1110,l),
(304,1134,l),
(301,1134,l),
(60,1108,l),
(60,1034,l),
(178,1001,l),
(178,-364,l)
);
}
);
width = 1241;
},
{
layerId = "DEBB1CE4-A72D-4960-969E-E04A036D2FA1";
shapes = (
{
closed = 1;
nodes = (
(441,-364,l),
(441,115,l),
(468,22,o),
(544,-20,o),
(628,-20,cs),
(730,-20,o),
(810,57,o),
(845,156,c),
(845,100,ls),
(845,33,o),
(877,-20,o),
(971,-20,cs),
(1071,-20,o),
(1158,-6,o),
(1208,9,c),
(1208,138,l),
(1132,138,l),
(1132,1108,l),
(1085,1136,l),
(1077,1136,l),
(682,1109,l),
(682,986,l),
(806,956,l),
(806,265,l),
(791,222,o),
(731,164,o),
(638,164,cs),
(527,164,o),
(471,256,o),
(471,339,cs),
(471,1108,l),
(429,1136,l),
(423,1136,l),
(50,1108,l),
(50,983,l),
(143,955,l),
(144,-364,l)
);
}
);
width = 1268;
},
{
layerId = "184155C8-9F61-4F1C-9784-DDA8EA717636";
shapes = (
{
closed = 1;
nodes = (
(418,-362,l),
(418,48,l),
(459,3,o),
(506,-18,o),
(562,-18,cs),
(637,-18,o),
(698,44,o),
(717,134,c),
(717,71,ls),
(717,26,o),
(727,-20,o),
(877,-20,cs),
(971,-20,o),
(1095,6,o),
(1116,10,c),
(1116,48,l),
(1038,68,l),
(1038,992,l),
(979,1035,l),
(939,1035,l),
(598,921,l),
(598,880,l),
(704,833,l),
(704,208,l),
(672,173,o),
(634,156,o),
(567,156,cs),
(507,156,o),
(440,221,o),
(440,336,cs),
(440,992,l),
(385,1035,l),
(351,1035,l),
(10,921,l),
(10,880,l),
(104,833,l),
(104,-362,l)
);
}
);
width = 1136;
},
{
layerId = "EA2265BD-E890-48C4-9E90-A53076E780C5";
shapes = (
{
closed = 1;
nodes = (
(402,-364,l),
(402,93,l),
(402,50,o),
(477,-20,o),
(537,-20,cs),
(620,-20,o),
(706,51,o),
(725,150,c),
(725,94,ls),
(725,53,o),
(735,-20,o),
(872,-20,cs),
(948,-20,o),
(1074,-2,o),
(1106,9,c),
(1106,138,l),
(1000,138,l),
(1000,1108,l),
(952,1136,l),
(946,1136,l),
(622,1109,l),
(622,986,l),
(687,957,l),
(687,235,l),
(659,188,o),
(620,160,o),
(557,160,cs),
(472,160,o),
(420,217,o),
(420,373,cs),
(420,1108,l),
(378,1136,l),
(373,1136,l),
(14,1109,l),
(14,982,l),
(107,955,l),
(108,-364,l)
);
}
);
width = 1136;
},
{
layerId = "0E4B6E2E-ECAB-4D06-9686-B0B40AA31834";
shapes = (
{
closed = 1;
nodes = (
(277,-364,l),
(277,128,l),
(328,20,o),
(411,-20,o),
(503,-20,cs),
(620,-20,o),
(702,57,o),
(748,154,c),
(748,48,ls),
(748,-4,o),
(773,-26,o),
(825,-26,cs),
(882,-26,o),
(960,-10,o),
(996,8,c),
(996,86,l),
(884,86,l),
(884,1110,l),
(845,1133,l),
(835,1133,l),
(604,1108,l),
(604,1034,l),
(735,1000,l),
(735,258,l),
(709,206,o),
(650,102,o),
(510,102,cs),
(337,102,o),
(288,250,o),
(288,318,cs),
(288,1110,l),
(257,1133,l),
(241,1133,l),
(35,1109,l),
(35,1035,l),
(138,1002,l),
(138,-364,l)
);
}
);
width = 1046;
},
{
layerId = "F2B10EEF-9DDC-48CA-970D-6B8C79870881";
shapes = (
{
closed = 1;
nodes = (
(396,-362,l),
(396,48,l),
(414,3,o),
(461,-18,o),
(502,-18,cs),
(586,-18,o),
(609,38,o),
(630,95,c),
(630,73,ls),
(630,9,o),
(675,-19,o),
(737,-19,cs),
(890,-19,o),
(970,6,o),
(991,10,c),
(991,48,l),
(937,68,l),
(937,992,l),
(883,1036,l),
(847,1035,l),
(530,921,l),
(530,880,l),
(621,833,l),
(621,208,l),
(586,163,o),
(553,156,o),
(522,156,cs),
(462,156,o),
(417,222,o),
(417,294,cs),
(417,992,l),
(366,1036,l),
(333,1036,l),
(2,921,l),
(2,880,l),
(101,833,l),
(101,-362,l)
);
}
);
width = 1041;
},
{
layerId = "E96AC896-F5DF-475B-BBD9-C7FEC6A86D0E";
shapes = (
{
closed = 1;
nodes = (
(252,-364,l),
(252,82,l),
(281,32,o),
(349,-20,o),
(462,-20,cs),
(550,-20,o),
(652,53,o),
(700,157,c),
(700,66,ls),
(700,45,o),
(700,-16,o),
(794,-16,cs),
(843,-16,o),
(894,0,o),
(930,14,c),
(930,47,l),
(835,46,l),
(835,998,l),
(818,1010,l),
(784,1010,l),
(573,959,l),
(573,932,l),
(698,898,l),
(698,193,l),
(627,104,o),
(532,66,o),
(470,66,cs),
(273,66,o),
(273,270,o),
(273,279,cs),
(273,998,l),
(256,1010,l),
(219,1010,l),
(10,959,l),
(10,932,l),
(136,898,l),
(137,-364,l)
);
}
);
width = 960;
},
{
layerId = "C9B9556E-C2FD-4F62-BB40-44923C452C22";
shapes = (
{
closed = 1;
nodes = (
(244,-364,l),
(244,83,l),
(281,32,o),
(353,-20,o),
(490,-20,cs),
(585,-20,o),
(679,46,o),
(734,158,c),
(734,66,ls),
(734,44,o),
(734,-16,o),
(834,-16,cs),
(886,-16,o),
(937,0,o),
(979,14,c),
(979,47,l),
(871,47,l),
(871,998,l),
(858,1010,l),
(822,1010,l),
(608,958,l),
(608,931,l),
(733,896,l),
(733,193,l),
(659,98,o),
(563,76,o),
(496,76,cs),
(268,76,o),
(268,256,o),
(268,322,cs),
(268,998,l),
(253,1010,l),
(211,1010,l),
(5,958,l),
(5,931,l),
(130,896,l),
(131,-364,l)
);
}
);
width = 1009;
},
{
layerId = "AFA1064D-EFC9-4C9F-B9B0-9118E41D87C4";
shapes = (
{
closed = 1;
nodes = (
(435,-362,l),
(435,62,l),
(461,8,o),
(529,-18,o),
(578,-18,cs),
(679,-18,o),
(729,62,o),
(759,150,c),
(759,71,ls),
(759,29,o),
(769,-20,o),
(919,-20,cs),
(1033,-20,o),
(1161,8,o),
(1175,10,c),
(1175,48,l),
(1099,68,l),
(1099,992,l),
(1037,1035,l),
(999,1035,l),
(625,921,l),
(625,880,l),
(746,833,l),
(746,208,l),
(701,172,o),
(653,153,o),
(602,153,cs),
(529,153,o),
(458,227,o),
(458,336,cs),
(458,992,l),
(403,1035,l),
(368,1036,l),
(0,921,l),
(0,880,l),
(105,833,l),
(105,-362,l)
);
}
);
width = 1210;
},
{
layerId = "2103F1D3-C390-4F79-A87D-298F85EA6916";
shapes = (
{
closed = 1;
nodes = (
(267,-364,l),
(267,85,l),
(308,14,o),
(431,-20,o),
(504,-20,cs),
(682,-20,o),
(760,84,o),
(800,158,c),
(800,66,ls),
(800,44,o),
(800,-16,o),
(907,-16,cs),
(960,-16,o),
(1009,0,o),
(1056,14,c),
(1056,47,l),
(944,47,l),
(944,998,l),
(924,1010,l),
(893,1010,l),
(676,958,l),
(676,931,l),
(800,896,l),
(800,193,l),
(719,98,o),
(615,75,o),
(513,76,cs),
(293,78,o),
(279,233,o),
(279,277,cs),
(279,998,l),
(258,1010,l),
(224,1010,l),
(10,958,l),
(10,931,l),
(135,896,l),
(136,-364,l)
);
}
);
width = 1091;
},
{
layerId = "779F1615-9D1A-4778-9767-9A030AA58B6C";
shapes = (
{
closed = 1;
nodes = (
(289,-364,l),
(289,121,l),
(328,49,o),
(444,-20,o),
(576,-20,cs),
(738,-20,o),
(858,60,o),
(912,154,c),
(912,68,ls),
(912,16,o),
(947,-18,o),
(998,-18,cs),
(1062,-18,o),
(1132,-10,o),
(1171,8,c),
(1171,86,l),
(1060,86,l),
(1060,1110,l),
(1011,1135,l),
(1005,1135,l),
(737,1106,l),
(737,1034,l),
(898,1001,l),
(898,258,l),
(864,206,o),
(775,100,o),
(584,100,cs),
(382,100,o),
(305,250,o),
(305,318,cs),
(305,1113,l),
(266,1135,l),
(262,1135,l),
(11,1108,l),
(11,1034,l),
(142,1001,l),
(142,-364,l)
);
}
);
userData = {
com.schriftgestaltung.Glyphs.lastChange = "2019-04-25 21:50:43 +0000";
};
width = 1225;
},
{
layerId = "97BB7961-D669-43AB-8BBF-11FFD0C46A4B";
shapes = (
{
closed = 1;
nodes = (
(442,-364,l),
(442,61,l),
(480,23,o),
(533,-19,o),
(635,-19,cs),
(766,-19,o),
(822,50,o),
(864,150,c),
(864,94,ls),
(864,63,o),
(864,-20,o),
(1023,-20,cs),
(1100,-20,o),
(1212,-5,o),
(1258,9,c),
(1258,138,l),
(1151,138,l),
(1151,1108,l),
(1107,1136,l),
(1100,1136,l),
(702,1109,l),
(702,986,l),
(826,956,l),
(826,243,l),
(812,207,o),
(697,164,o),
(642,164,cs),
(499,164,o),
(462,241,o),
(462,304,cs),
(462,1108,l),
(418,1136,l),
(414,1136,l),
(30,1110,l),
(30,984,l),
(124,955,l),
(125,-364,l)
);
}
);
width = 1318;
}
);
metricLeft = u;
metricRight = u;
unicode = 181;
}
